#N canvas 272 386 450 342 10;
#X obj 101 101 cnv 15 198 48 empty empty note_\$1 2 7 0 14 -204786
-66577 0;
#X obj 134 116 tgl 20 0 empty empty rep 1 10 0 10 -262144 -1 -1 0 1
;
#X obj 90 61 metro 500;
#X obj 99 265 pack 1 64;
#X obj 98 172 f 1;
#X floatatom 220 131 5 0 0 0 N - -, f 5;
#X obj 174 214 pipe 1 250;
#X obj 174 264 pack 1 0;
#X obj 157 111 bng 15 250 50 0 empty empty on 17 7 0 10 -262144 -1
-1;
#X obj 157 127 bng 15 250 50 0 empty empty off 17 7 0 10 -262144 -1
-1;
#X obj 104 116 bng 30 250 50 0 empty empty play 3 15 0 10 -4034 -1
-1;
#X floatatom 220 109 5 10 99999 0 t - -, f 5;
#X floatatom 265 132 5 0 0 0 V - -, f 5;
#X obj 281 192 - 100;
#X floatatom 264 109 5 0 0 0 P - -, f 5;
#X obj 281 218 max 10;
#X obj 291 52 - 50;
#X msg 291 76 set \$1;
#X obj 99 307 s /piano/\$1/note;
#X obj 281 166 t b f;
#X obj 186 12 loadbang;
#X msg 253 58 100;
#X msg 220 59 300;
#X msg 186 56 69;
#X connect 1 0 2 0;
#X connect 2 0 4 0;
#X connect 3 0 18 0;
#X connect 4 0 6 0;
#X connect 4 0 3 0;
#X connect 5 0 4 1;
#X connect 6 0 7 0;
#X connect 7 0 18 0;
#X connect 8 0 3 0;
#X connect 9 0 7 0;
#X connect 10 0 4 0;
#X connect 11 0 2 1;
#X connect 11 0 13 0;
#X connect 11 0 16 0;
#X connect 12 0 3 1;
#X connect 13 0 15 0;
#X connect 14 0 19 0;
#X connect 15 0 6 1;
#X connect 15 0 16 1;
#X connect 16 0 17 0;
#X connect 17 0 14 0;
#X connect 19 0 13 0;
#X connect 19 1 13 1;
#X connect 20 0 23 0;
#X connect 20 0 21 0;
#X connect 20 0 22 0;
#X connect 21 0 12 0;
#X connect 22 0 11 0;
#X connect 23 0 5 0;
#X coords 0 -1 1 1 200 50 1 100 100;
