#N canvas 295 90 727 438 12;
#X declare -stdpath iemlib;
#X declare -lib zexy;
#X declare -lib cyclone/seq;
#X declare -lib cyclone/midiflush;
#X declare -lib cyclone/midiparse;
#X declare -lib iemlib/iemlib1 -lib iemlib/iemlib2;
#X declare -path .. -path ../.. -path abs -path data -path libs -path
libs/pdpp/data;
#N canvas 434 277 694 359 declares 1;
#X obj 32 209 declare -stdpath iemlib;
#X text 25 12 --- path for Pd abstractions \, data \, libs ... ---
;
#X text 14 35 a) paths for the projects;
#X text 13 53 b) paths and libs for libraries in project;
#X text 32 166 Linux: .local/lib/Pd/extra \, /usr/[local/]lib/pd/extra
;
#X text 30 188 OS-X: ~/Library/Pd \, /Library/Pd \, /Applications/Pd/...
;
#X text 11 144 c) paths and libs for project in system: Need iemlib
\, zexy;
#X obj 32 235 declare -lib zexy;
#X text 58 79 Note the order \, locals first can overwrite libs;
#X obj 33 264 declare -lib cyclone/seq;
#X obj 210 265 declare -lib cyclone/midiflush;
#X text 426 263 for MIDI player;
#X obj 213 286 declare -lib cyclone/midiparse;
#X obj 208 210 declare -lib iemlib/iemlib1 -lib iemlib/iemlib2;
#X obj 35 104 declare -path .. -path ../.. -path abs -path data -path
libs -path libs/pdpp/data, f 70;
#X restore 44 38 pd declares;
#N canvas 335 98 492 350 GUI 0;
#X text 119 35 --- MIDI-File Player ---;
#X obj 3 61 pdpp/iface/mifi_ctl 1;
#X obj 203 61 pdpp/iface/mifi_ctl 2;
#X restore 43 88 pd GUI;
#N canvas 450 58 912 636 init 1;
#X obj 41 94 t b b b;
#X text 160 56 Initial values set after loading;
#X msg 101 122 --- patch main loaded --- \;;
#X text 125 97 prepare patches;
#X text 102 168 Initialze main values;
#X text 39 31 Note: includes loadbang;
#X obj 100 145 print init:;
#X obj 42 56 loadbang;
#X msg 64 186 \; /mifi/1/veltab/read symbol ../../../data/mifi-1-veltab.txt
\; /mifi/2/veltab/read symbol ../../../data/mifi-2-veltab.txt, f 64
;
#X msg 36 298 \; /mifi/1/load ../../../data/perpetuu.mid \; /mifi/1/loop
1 \; /mifi/1/start bang;
#X msg 31 418 \; /mifi/2/load ../../../data/perpetuu.mid \; /mifi/2/loop
1 \; /mifi/2/start bang;
#X obj 31 394 del 10000;
#X connect 0 0 9 0;
#X connect 0 0 11 0;
#X connect 0 1 8 0;
#X connect 0 2 2 0;
#X connect 2 0 6 0;
#X connect 7 0 0 0;
#X connect 11 0 10 0;
#X restore 44 62 pd init;
#X text 127 63 Initialize Patch;
#X text 126 39 Declares for patch;
#X obj 42 141 pdpp/iface/mifi 1;
#X text 40 114 --- complete rhea processing with stack ---;
#X text 125 92 Graphical User Interface;
#X obj 42 193 s note;
#X obj 91 166 pdpp/iface/mifi 2;
#X text 45 8 MIFI File example V-1.0 (GPLv3);
#X obj 50 221 r note;
#X obj 50 245 print note;
#X connect 5 0 8 0;
#X connect 9 0 8 0;
#X connect 11 0 12 0;
