#N canvas 157 66 360 247 10;
#X obj 37 29 inlet;
#X obj 37 50 t l l;
#X obj 37 125 spigot;
#X obj 37 146 outlet;
#X obj 65 76 unpack 600 0;
#X obj 134 101 > 0;
#X text 108 32 (c)algorythmics \, winfried ritsch;
#X text 43 10 np/drop_noteoffs;
#X text 165 102 note offs blocked;
#X connect 0 0 1 0;
#X connect 1 0 2 0;
#X connect 1 1 4 0;
#X connect 2 0 3 0;
#X connect 4 1 5 0;
#X connect 5 0 2 1;
