#N canvas 624 385 481 323 10;
#X obj 37 49 inlet;
#X obj 24 280 outlet;
#X text 224 11 (c)algorythmics \, winfried ritsch;
#X obj 35 93 s \$0_innotes;
#X obj 25 257 r \$0_outnotes;
#X text 192 224 A4 ... 69 ... a';
#X text 192 159 A0 ... 21 ... A'';
#X text 192 173 C1 ... 24 ... C';
#X text 191 187 C2 ... 36 ... C;
#X text 192 200 C3 ... 48 ... c;
#X text 192 213 C4 ... 60 ... c';
#X text 191 237 C5 ... 72 ... c'';
#X text 192 250 C6 ... 84 ... c''';
#X text 192 266 C7 ... 96 ... c'''';
#X text 190 282 C8 ... 108 ... c''''';
#N canvas 4 61 716 300 okt0 0;
#X obj 13 23 r \$0_innotes;
#X obj 13 62 s \$0_outnotes;
#X obj 168 23 r \$0_innotes;
#X obj 168 62 s \$0_outnotes;
#X obj 328 17 r \$0_innotes;
#X obj 328 56 s \$0_outnotes;
#X obj 13 43 notehold 21 70;
#X obj 169 43 notehold 22 70;
#X obj 328 37 notehold 23 70;
#X connect 0 0 6 0;
#X connect 2 0 7 0;
#X connect 4 0 8 0;
#X connect 6 0 1 0;
#X connect 7 0 3 0;
#X connect 8 0 5 0;
#X restore 18 146 pd okt0;
#N canvas 0 0 963 202 okt1 0;
#X obj 13 23 r \$0_innotes;
#X obj 13 62 s \$0_outnotes;
#X obj 168 23 r \$0_innotes;
#X obj 168 62 s \$0_outnotes;
#X obj 328 17 r \$0_innotes;
#X obj 328 56 s \$0_outnotes;
#X obj 483 17 r \$0_innotes;
#X obj 483 56 s \$0_outnotes;
#X obj 638 17 r \$0_innotes;
#X obj 638 56 s \$0_outnotes;
#X obj 798 11 r \$0_innotes;
#X obj 798 50 s \$0_outnotes;
#X obj 10 98 r \$0_innotes;
#X obj 10 137 s \$0_outnotes;
#X obj 165 98 r \$0_innotes;
#X obj 165 137 s \$0_outnotes;
#X obj 325 92 r \$0_innotes;
#X obj 325 131 s \$0_outnotes;
#X obj 480 92 r \$0_innotes;
#X obj 480 131 s \$0_outnotes;
#X obj 635 92 r \$0_innotes;
#X obj 635 131 s \$0_outnotes;
#X obj 795 86 r \$0_innotes;
#X obj 795 125 s \$0_outnotes;
#X obj 13 44 notehold 24 70;
#X obj 169 43 notehold 25 70;
#X obj 328 37 notehold 26 70;
#X obj 484 37 notehold 27 70;
#X obj 639 37 notehold 28 70;
#X obj 798 31 notehold 29 70;
#X obj 10 118 notehold 30 70;
#X obj 166 118 notehold 31 70;
#X obj 325 112 notehold 32 70;
#X obj 481 112 notehold 33 70;
#X obj 636 112 notehold 34 70;
#X obj 795 106 notehold 35 70;
#X connect 0 0 24 0;
#X connect 2 0 25 0;
#X connect 4 0 26 0;
#X connect 6 0 27 0;
#X connect 8 0 28 0;
#X connect 10 0 29 0;
#X connect 12 0 30 0;
#X connect 14 0 31 0;
#X connect 16 0 32 0;
#X connect 18 0 33 0;
#X connect 20 0 34 0;
#X connect 22 0 35 0;
#X connect 24 0 1 0;
#X connect 25 0 3 0;
#X connect 26 0 5 0;
#X connect 27 0 7 0;
#X connect 28 0 9 0;
#X connect 29 0 11 0;
#X connect 30 0 13 0;
#X connect 31 0 15 0;
#X connect 32 0 17 0;
#X connect 33 0 19 0;
#X connect 34 0 21 0;
#X connect 35 0 23 0;
#X restore 86 150 pd okt1;
#N canvas 4 61 963 202 okt2 0;
#X obj 13 23 r \$0_innotes;
#X obj 13 62 s \$0_outnotes;
#X obj 168 23 r \$0_innotes;
#X obj 168 62 s \$0_outnotes;
#X obj 328 17 r \$0_innotes;
#X obj 328 56 s \$0_outnotes;
#X obj 483 17 r \$0_innotes;
#X obj 483 56 s \$0_outnotes;
#X obj 638 17 r \$0_innotes;
#X obj 638 56 s \$0_outnotes;
#X obj 798 11 r \$0_innotes;
#X obj 798 50 s \$0_outnotes;
#X obj 10 98 r \$0_innotes;
#X obj 10 137 s \$0_outnotes;
#X obj 165 98 r \$0_innotes;
#X obj 165 137 s \$0_outnotes;
#X obj 325 92 r \$0_innotes;
#X obj 325 131 s \$0_outnotes;
#X obj 480 92 r \$0_innotes;
#X obj 480 131 s \$0_outnotes;
#X obj 635 92 r \$0_innotes;
#X obj 635 131 s \$0_outnotes;
#X obj 795 86 r \$0_innotes;
#X obj 795 125 s \$0_outnotes;
#X obj 13 44 notehold 36 70;
#X obj 169 43 notehold 37 70;
#X obj 328 37 notehold 38 70;
#X obj 485 37 notehold 39 70;
#X obj 639 37 notehold 40 70;
#X obj 798 31 notehold 41 70;
#X obj 10 118 notehold 42 70;
#X obj 166 118 notehold 43 70;
#X obj 325 112 notehold 44 70;
#X obj 481 112 notehold 45 70;
#X obj 636 112 notehold 46 70;
#X obj 795 106 notehold 47 70;
#X connect 0 0 24 0;
#X connect 2 0 25 0;
#X connect 4 0 26 0;
#X connect 6 0 27 0;
#X connect 8 0 28 0;
#X connect 10 0 29 0;
#X connect 12 0 30 0;
#X connect 14 0 31 0;
#X connect 16 0 32 0;
#X connect 18 0 33 0;
#X connect 20 0 34 0;
#X connect 22 0 35 0;
#X connect 24 0 1 0;
#X connect 25 0 3 0;
#X connect 26 0 5 0;
#X connect 27 0 7 0;
#X connect 28 0 9 0;
#X connect 29 0 11 0;
#X connect 30 0 13 0;
#X connect 31 0 15 0;
#X connect 32 0 17 0;
#X connect 33 0 19 0;
#X connect 34 0 21 0;
#X connect 35 0 23 0;
#X restore 20 169 pd okt2;
#N canvas 19 324 963 202 okt4 0;
#X obj 13 23 r \$0_innotes;
#X obj 13 62 s \$0_outnotes;
#X obj 168 23 r \$0_innotes;
#X obj 168 62 s \$0_outnotes;
#X obj 328 17 r \$0_innotes;
#X obj 328 56 s \$0_outnotes;
#X obj 483 17 r \$0_innotes;
#X obj 483 56 s \$0_outnotes;
#X obj 638 17 r \$0_innotes;
#X obj 638 56 s \$0_outnotes;
#X obj 798 11 r \$0_innotes;
#X obj 798 50 s \$0_outnotes;
#X obj 10 98 r \$0_innotes;
#X obj 10 137 s \$0_outnotes;
#X obj 165 98 r \$0_innotes;
#X obj 165 137 s \$0_outnotes;
#X obj 325 92 r \$0_innotes;
#X obj 325 131 s \$0_outnotes;
#X obj 480 92 r \$0_innotes;
#X obj 480 131 s \$0_outnotes;
#X obj 635 92 r \$0_innotes;
#X obj 635 131 s \$0_outnotes;
#X obj 795 86 r \$0_innotes;
#X obj 795 125 s \$0_outnotes;
#X obj 13 44 notehold 60 70;
#X obj 170 43 notehold 61 70;
#X obj 328 36 notehold 62 70;
#X obj 484 37 notehold 63 70;
#X obj 639 37 notehold 64 70;
#X obj 798 31 notehold 65 70;
#X obj 10 118 notehold 66 70;
#X obj 166 118 notehold 67 70;
#X obj 325 112 notehold 68 70;
#X obj 481 112 notehold 69 70;
#X obj 636 112 notehold 70 70;
#X obj 795 106 notehold 71 70;
#X connect 0 0 24 0;
#X connect 2 0 25 0;
#X connect 4 0 26 0;
#X connect 6 0 27 0;
#X connect 8 0 28 0;
#X connect 10 0 29 0;
#X connect 12 0 30 0;
#X connect 14 0 31 0;
#X connect 16 0 32 0;
#X connect 18 0 33 0;
#X connect 20 0 34 0;
#X connect 22 0 35 0;
#X connect 24 0 1 0;
#X connect 25 0 3 0;
#X connect 26 0 5 0;
#X connect 27 0 7 0;
#X connect 28 0 9 0;
#X connect 29 0 11 0;
#X connect 30 0 13 0;
#X connect 31 0 15 0;
#X connect 32 0 17 0;
#X connect 33 0 19 0;
#X connect 34 0 21 0;
#X connect 35 0 23 0;
#X restore 20 188 pd okt4;
#N canvas 0 0 963 202 okt6 0;
#X obj 13 23 r \$0_innotes;
#X obj 13 62 s \$0_outnotes;
#X obj 168 23 r \$0_innotes;
#X obj 168 62 s \$0_outnotes;
#X obj 328 17 r \$0_innotes;
#X obj 328 56 s \$0_outnotes;
#X obj 483 17 r \$0_innotes;
#X obj 483 56 s \$0_outnotes;
#X obj 638 17 r \$0_innotes;
#X obj 638 56 s \$0_outnotes;
#X obj 798 11 r \$0_innotes;
#X obj 798 50 s \$0_outnotes;
#X obj 10 98 r \$0_innotes;
#X obj 10 137 s \$0_outnotes;
#X obj 165 98 r \$0_innotes;
#X obj 165 137 s \$0_outnotes;
#X obj 325 92 r \$0_innotes;
#X obj 325 131 s \$0_outnotes;
#X obj 480 92 r \$0_innotes;
#X obj 480 131 s \$0_outnotes;
#X obj 635 92 r \$0_innotes;
#X obj 635 131 s \$0_outnotes;
#X obj 795 86 r \$0_innotes;
#X obj 795 125 s \$0_outnotes;
#X obj 13 44 notehold 84 70;
#X obj 169 43 notehold 85 70;
#X obj 328 37 notehold 86 70;
#X obj 484 37 notehold 87 70;
#X obj 639 37 notehold 88 70;
#X obj 798 31 notehold 89 70;
#X obj 10 118 notehold 90 70;
#X obj 167 117 notehold 91 70;
#X obj 325 113 notehold 92 70;
#X obj 481 112 notehold 93 70;
#X obj 636 112 notehold 94 70;
#X obj 795 106 notehold 95 70;
#X connect 0 0 24 0;
#X connect 2 0 25 0;
#X connect 4 0 26 0;
#X connect 6 0 27 0;
#X connect 8 0 28 0;
#X connect 10 0 29 0;
#X connect 12 0 30 0;
#X connect 14 0 31 0;
#X connect 16 0 32 0;
#X connect 18 0 33 0;
#X connect 20 0 34 0;
#X connect 22 0 35 0;
#X connect 24 0 1 0;
#X connect 25 0 3 0;
#X connect 26 0 5 0;
#X connect 27 0 7 0;
#X connect 28 0 9 0;
#X connect 29 0 11 0;
#X connect 30 0 13 0;
#X connect 31 0 15 0;
#X connect 32 0 17 0;
#X connect 33 0 19 0;
#X connect 34 0 21 0;
#X connect 35 0 23 0;
#X restore 20 207 pd okt6;
#N canvas 0 0 963 202 okt8 0;
#X obj 13 23 r \$0_innotes;
#X obj 13 62 s \$0_outnotes;
#X obj 13 44 notehold 108 70;
#X connect 0 0 2 0;
#X connect 2 0 1 0;
#X restore 22 227 pd okt8;
#N canvas 0 0 963 202 okt3 0;
#X obj 13 23 r \$0_innotes;
#X obj 13 62 s \$0_outnotes;
#X obj 168 23 r \$0_innotes;
#X obj 168 62 s \$0_outnotes;
#X obj 328 17 r \$0_innotes;
#X obj 328 56 s \$0_outnotes;
#X obj 483 17 r \$0_innotes;
#X obj 483 56 s \$0_outnotes;
#X obj 638 17 r \$0_innotes;
#X obj 638 56 s \$0_outnotes;
#X obj 798 11 r \$0_innotes;
#X obj 798 50 s \$0_outnotes;
#X obj 10 98 r \$0_innotes;
#X obj 10 137 s \$0_outnotes;
#X obj 165 98 r \$0_innotes;
#X obj 165 137 s \$0_outnotes;
#X obj 325 92 r \$0_innotes;
#X obj 325 131 s \$0_outnotes;
#X obj 480 92 r \$0_innotes;
#X obj 480 131 s \$0_outnotes;
#X obj 635 92 r \$0_innotes;
#X obj 635 131 s \$0_outnotes;
#X obj 795 86 r \$0_innotes;
#X obj 795 125 s \$0_outnotes;
#X obj 13 44 notehold 48 70;
#X obj 169 43 notehold 49 70;
#X obj 328 37 notehold 50 70;
#X obj 484 37 notehold 51 70;
#X obj 639 37 notehold 52 70;
#X obj 798 31 notehold 53 70;
#X obj 11 118 notehold 54 70;
#X obj 166 118 notehold 55 70;
#X obj 325 112 notehold 56 70;
#X obj 482 112 notehold 57 70;
#X obj 636 112 notehold 58 70;
#X obj 795 106 notehold 59 70;
#X connect 0 0 24 0;
#X connect 2 0 25 0;
#X connect 4 0 26 0;
#X connect 6 0 27 0;
#X connect 8 0 28 0;
#X connect 10 0 29 0;
#X connect 12 0 30 0;
#X connect 14 0 31 0;
#X connect 16 0 32 0;
#X connect 18 0 33 0;
#X connect 20 0 34 0;
#X connect 22 0 35 0;
#X connect 24 0 1 0;
#X connect 25 0 3 0;
#X connect 26 0 5 0;
#X connect 27 0 7 0;
#X connect 28 0 9 0;
#X connect 29 0 11 0;
#X connect 30 0 13 0;
#X connect 31 0 15 0;
#X connect 32 0 17 0;
#X connect 33 0 19 0;
#X connect 34 0 21 0;
#X connect 35 0 23 0;
#X restore 86 172 pd okt3;
#N canvas 0 0 963 202 okt5 0;
#X obj 13 23 r \$0_innotes;
#X obj 13 62 s \$0_outnotes;
#X obj 168 23 r \$0_innotes;
#X obj 168 62 s \$0_outnotes;
#X obj 328 17 r \$0_innotes;
#X obj 328 56 s \$0_outnotes;
#X obj 483 17 r \$0_innotes;
#X obj 483 56 s \$0_outnotes;
#X obj 638 17 r \$0_innotes;
#X obj 638 56 s \$0_outnotes;
#X obj 798 11 r \$0_innotes;
#X obj 798 50 s \$0_outnotes;
#X obj 10 98 r \$0_innotes;
#X obj 10 137 s \$0_outnotes;
#X obj 165 98 r \$0_innotes;
#X obj 165 137 s \$0_outnotes;
#X obj 325 92 r \$0_innotes;
#X obj 325 131 s \$0_outnotes;
#X obj 480 92 r \$0_innotes;
#X obj 480 131 s \$0_outnotes;
#X obj 635 92 r \$0_innotes;
#X obj 635 131 s \$0_outnotes;
#X obj 795 86 r \$0_innotes;
#X obj 795 125 s \$0_outnotes;
#X obj 13 44 notehold 72 70;
#X obj 169 43 notehold 73 70;
#X obj 327 36 notehold 74 70;
#X obj 484 37 notehold 75 70;
#X obj 640 37 notehold 76 70;
#X obj 798 31 notehold 77 70;
#X obj 10 118 notehold 78 70;
#X obj 166 118 notehold 79 70;
#X obj 325 112 notehold 3 80 70;
#X obj 481 112 notehold 81 70;
#X obj 636 112 notehold 82 70;
#X obj 795 106 notehold 83 70;
#X connect 0 0 24 0;
#X connect 2 0 25 0;
#X connect 4 0 26 0;
#X connect 6 0 27 0;
#X connect 8 0 28 0;
#X connect 10 0 29 0;
#X connect 12 0 30 0;
#X connect 14 0 31 0;
#X connect 16 0 32 0;
#X connect 18 0 33 0;
#X connect 20 0 34 0;
#X connect 22 0 35 0;
#X connect 24 0 1 0;
#X connect 25 0 3 0;
#X connect 26 0 5 0;
#X connect 27 0 7 0;
#X connect 28 0 9 0;
#X connect 29 0 11 0;
#X connect 30 0 13 0;
#X connect 31 0 15 0;
#X connect 32 0 17 0;
#X connect 33 0 19 0;
#X connect 34 0 21 0;
#X connect 35 0 23 0;
#X restore 88 196 pd okt5;
#N canvas 0 0 963 202 okt7 0;
#X obj 13 23 r \$0_innotes;
#X obj 13 62 s \$0_outnotes;
#X obj 168 23 r \$0_innotes;
#X obj 168 62 s \$0_outnotes;
#X obj 328 17 r \$0_innotes;
#X obj 328 56 s \$0_outnotes;
#X obj 483 17 r \$0_innotes;
#X obj 483 56 s \$0_outnotes;
#X obj 638 17 r \$0_innotes;
#X obj 638 56 s \$0_outnotes;
#X obj 798 11 r \$0_innotes;
#X obj 798 50 s \$0_outnotes;
#X obj 10 98 r \$0_innotes;
#X obj 10 137 s \$0_outnotes;
#X obj 165 98 r \$0_innotes;
#X obj 165 137 s \$0_outnotes;
#X obj 325 92 r \$0_innotes;
#X obj 325 131 s \$0_outnotes;
#X obj 480 92 r \$0_innotes;
#X obj 480 131 s \$0_outnotes;
#X obj 635 92 r \$0_innotes;
#X obj 635 131 s \$0_outnotes;
#X obj 795 86 r \$0_innotes;
#X obj 795 125 s \$0_outnotes;
#X obj 13 44 notehold 96 70;
#X obj 169 43 notehold 97 70;
#X obj 328 37 notehold 98 70;
#X obj 484 37 notehold 99 70;
#X obj 639 37 notehold 100 70;
#X obj 798 31 notehold 101 70;
#X obj 10 118 notehold 102 70;
#X obj 166 118 notehold 103 70;
#X obj 325 112 notehold 104 70;
#X obj 482 112 notehold 105 70;
#X obj 638 111 notehold 106 70;
#X obj 794 106 notehold 107 70;
#X connect 0 0 24 0;
#X connect 2 0 25 0;
#X connect 4 0 26 0;
#X connect 6 0 27 0;
#X connect 8 0 28 0;
#X connect 10 0 29 0;
#X connect 12 0 30 0;
#X connect 14 0 31 0;
#X connect 16 0 32 0;
#X connect 18 0 33 0;
#X connect 20 0 34 0;
#X connect 22 0 35 0;
#X connect 24 0 1 0;
#X connect 25 0 3 0;
#X connect 26 0 5 0;
#X connect 27 0 7 0;
#X connect 28 0 9 0;
#X connect 29 0 11 0;
#X connect 30 0 13 0;
#X connect 31 0 15 0;
#X connect 32 0 17 0;
#X connect 33 0 19 0;
#X connect 34 0 21 0;
#X connect 35 0 23 0;
#X restore 83 218 pd okt7;
#X text 190 33 only play each key once until note off is played or
overwrite mode rekey;
#X obj 188 102 s /np/notehold/minpause;
#X floatatom 188 81 5 0 0 0 - - -;
#N canvas 635 91 495 439 test 0;
#X obj 142 54 metro 200;
#X obj 24 13 tgl 15 0 empty empty empty 17 7 0 10 -262144 -1 -1 0 1
;
#X floatatom 184 97 5 0 0 0 - - -;
#X floatatom 197 22 5 0 0 0 - - -;
#X obj 6 231 timer;
#X obj 6 252 pack 1000 60 50;
#X obj 35 175 unpack 60 100;
#X obj 32 200 t b f;
#X obj 5 278 print in;
#X obj 107 349 timer;
#X obj 109 377 pack 1000 60 50;
#X obj 132 294 unpack 60 100;
#X obj 133 315 t b f;
#X obj 108 404 print out;
#X obj 137 122 makenote 100 250;
#X floatatom 141 96 5 0 0 0 - - -;
#X obj 25 30 t f b;
#X obj 135 144 pack 60 200;
#X floatatom 226 98 5 0 0 0 - - -;
#X obj 134 219 notehold 21 70;
#X msg 266 39 21;
#X connect 0 0 15 0;
#X connect 1 0 16 0;
#X connect 2 0 14 1;
#X connect 3 0 0 1;
#X connect 4 0 5 0;
#X connect 5 0 8 0;
#X connect 6 0 7 0;
#X connect 6 1 5 2;
#X connect 7 0 4 1;
#X connect 7 1 5 1;
#X connect 9 0 10 0;
#X connect 10 0 13 0;
#X connect 11 0 12 0;
#X connect 11 1 10 2;
#X connect 12 0 9 1;
#X connect 12 1 10 1;
#X connect 14 0 17 0;
#X connect 14 1 17 1;
#X connect 15 0 14 0;
#X connect 16 0 0 0;
#X connect 16 1 4 0;
#X connect 16 1 9 0;
#X connect 17 0 6 0;
#X connect 17 0 19 0;
#X connect 18 0 14 2;
#X connect 19 0 11 0;
#X connect 20 0 15 0;
#X restore 188 124 pd test;
#X text 43 10 np/piano_noteshold;
#X text 79 49 <note> <vel>;
#X text 216 145 notelist;
#X obj 358 58 loadbang;
#X msg 360 82 50;
#X connect 0 0 3 0;
#X connect 4 0 1 0;
#X connect 26 0 25 0;
#X connect 31 0 32 0;
#X connect 32 0 26 0;
