#N canvas 1593 391 611 342 12;
#X text 33 9 config_txt <id>;
#X obj 32 126 bng 15 250 50 0 empty empty empty 17 7 0 10 #fcfcfc #000000 #000000;
#X msg 31 273 line 0 \, bang;
#X obj 32 146 t b b;
#X msg 94 136 click;
#X obj 32 98 inlet;
#X obj 242 146 r /config/\$1/write;
#X obj 94 111 r /config/\$1/edit;
#X obj 61 232 text define config-\$1;
#X obj 31 300 text sequence config-\$1 -g;
#X obj 62 177 symbol .;
#X msg 62 202 read -c \$1/config.txt;
#X obj 242 177 symbol .;
#X msg 242 204 write -c \$1/config.txt;
#X obj 295 102 inlet;
#X text 295 85 file directory as symbol;
#X text 49 33 define a config text with receivers and values and read/write it;
#X text 274 281 comment;
#X connect 1 0 3 0;
#X connect 2 0 9 0;
#X connect 3 0 2 0;
#X connect 3 1 10 0;
#X connect 4 0 8 0;
#X connect 5 0 1 0;
#X connect 6 0 12 0;
#X connect 7 0 4 0;
#X connect 10 0 11 0;
#X connect 11 0 8 0;
#X connect 12 0 13 0;
#X connect 13 0 8 0;
#X connect 14 0 12 1;
#X connect 14 0 10 1;
