#N canvas 891 303 429 332 12;
#X obj 141 124 sel -1;
#X msg 141 181 1000;
#X obj 52 37 inlet;
#X obj 52 60 t a b;
#X obj 53 247 text set config-\$1;
#X obj 53 218 list prepend \$2;
#X obj 141 97 text search config-\$1;
#X obj 142 73 symbol \$2;
#X obj 52 183 spigot 0;
#X msg 79 148 1;
#X msg 115 149 0;
#X obj 180 150 t b;
#X text 46 4 config_arg_default <id> <receiver name>;
#X text 118 31 if not found set the default value;
#X connect 0 0 9 0;
#X connect 0 0 1 0;
#X connect 0 1 11 0;
#X connect 1 0 4 1;
#X connect 2 0 3 0;
#X connect 3 0 8 0;
#X connect 3 1 7 0;
#X connect 5 0 4 0;
#X connect 6 0 0 0;
#X connect 7 0 6 0;
#X connect 8 0 5 0;
#X connect 9 0 8 1;
#X connect 10 0 8 1;
#X connect 11 0 10 0;
