#N canvas 491 0 429 332 12;
#X obj 114 163 sel -1;
#X msg 114 187 1000;
#X obj 53 45 inlet;
#X obj 53 76 t a b;
#X obj 53 247 text set config-\$1;
#X obj 53 218 list prepend \$2;
#X text 46 4 config_arg <id> <receiver name>;
#X obj 113 126 text search config-\$1;
#X obj 114 102 symbol \$2;
#X text 102 41 configure the receive name;
#X connect 0 0 1 0;
#X connect 0 1 4 1;
#X connect 1 0 4 1;
#X connect 2 0 3 0;
#X connect 3 0 5 0;
#X connect 3 1 8 0;
#X connect 5 0 4 0;
#X connect 7 0 0 0;
#X connect 8 0 7 0;
