#N canvas 35 437 450 300 10;
#X text 43 18 midivol_ctl <varname> <ctl nr> <midi channel> <mode>
;
#X text 103 54 mode only 0 is exponential;
#X obj 41 95 ctlin \$2 \$3;
#X obj 27 226 s \$1;
#X obj 128 95 r \$1/set;
#X obj 128 116 ctlout \$2 \$3;
#X obj 34 128 mtof;
#X obj 72 227 outlet;
#X obj 29 187 + 0;
#X obj 34 150 * 0.0798;
#X connect 2 0 6 0;
#X connect 4 0 5 0;
#X connect 6 0 9 0;
#X connect 8 0 3 0;
#X connect 8 0 7 0;
#X connect 9 0 8 0;
