#N canvas 343 567 450 300 10;
#X obj 41 95 ctlin \$2 \$3;
#X obj 41 206 s \$1;
#X obj 48 248 r \$1/set;
#X obj 48 269 ctlout \$2 \$3;
#X obj 43 149 midi2notelen;
#X obj 224 94 loadbang;
#X obj 224 116 f \$4;
#X obj 224 147 max 0;
#X obj 224 169 sel 0;
#X obj 40 177 * 1;
#X text 42 18 midivol_ctl <varname> <ctl nr> <midi channel> <fakt>
;
#X text 102 54 fakt only 0 is exponential;
#X obj 214 233 r /midi/ctl/feedback;
#X obj 141 112 r \$1;
#X text 135 260 feedback if 6.arg is 1 and feedback is turned on;
#X obj 141 206 spigot 0;
#X obj 141 228 spigot \$5;
#X obj 137 140 notelen2midi;
#X obj 136 165 / 1;
#X obj 136 187 i;
#X connect 0 0 4 0;
#X connect 2 0 3 0;
#X connect 4 0 9 0;
#X connect 5 0 6 0;
#X connect 6 0 7 0;
#X connect 7 0 8 0;
#X connect 8 1 9 1;
#X connect 9 0 1 0;
#X connect 12 0 15 1;
#X connect 13 0 17 0;
#X connect 15 0 16 0;
#X connect 16 0 3 0;
#X connect 17 0 18 0;
#X connect 18 0 19 0;
#X connect 19 0 15 0;
