#N canvas 1325 584 462 181 10;
#X obj 15 41 inlet;
#X obj 15 136 outlet;
#X obj 15 65 - 30;
#X obj 15 110 ftom;
#X obj 15 86 i;
#X text 75 71 some logarithmic function to map MIDI 0..127 to a notelen
which makes sense \, but completly unrelated to some norm.;
#X text 79 115 used with MIDI-controllers... mostly knobs;
#X text 81 36 midi/notelen2midi;
#X text 94 147 (c) GPL winfried ritsch;
#X connect 0 0 2 0;
#X connect 2 0 4 0;
#X connect 3 0 1 0;
#X connect 4 0 3 0;
