#N canvas 343 567 450 300 10;
#X obj 87 39 ctlin \$2 \$3;
#X obj 84 138 s \$1;
#X obj 95 161 r \$1/set;
#X obj 95 184 ctlout \$2 \$3;
#X obj 89 86 select \$4 \$5;
#X msg 89 114 0;
#X msg 123 116 1;
#X text 43 18 ctl_switch <varname> <ctl nr> <midi channel> <off> <on>
;
#X connect 0 0 4 0;
#X connect 2 0 3 0;
#X connect 4 0 5 0;
#X connect 4 1 6 0;
#X connect 5 0 1 0;
#X connect 6 0 1 0;
