#N canvas 1206 100 619 567 10;
#X obj 19 56 inlet;
#X obj 19 515 outlet;
#X text 123 5 (c)algorythmics \, winfried ritsch;
#X obj 19 78 route \$1;
#X text 20 27 piano_notehold <note> <value ms min dur>;
#X obj 19 492 pack \$1 100;
#X obj 81 194 sel 0;
#X obj 22 324 demux 0 1;
#X msg 81 250 0;
#X obj 81 225 del 30;
#X obj 151 150 r /np/piano_notehold/minpause;
#X obj 22 127 t f f;
#X obj 19 467 t b f;
#X text 32 350 direct;
#X obj 86 405 pipe 30;
#X obj 161 215 t b;
#X msg 161 237 1;
#X msg 46 383 0;
#X text 231 374 note off;
#X text 144 393 after min pause note on;
#X text 95 117 detect repetition;
#X text 107 326 play pause and note afterwards;
#X text 127 193 if note on go in on mode;
#X text 135 255 a note off unlocks in pause time;
#X floatatom 158 308 5 0 0 0 - - -;
#X obj 20 444 change 0;
#X msg 180 377 clear;
#X obj 85 346 t f b f;
#X obj 187 351 sel 0;
#X connect 0 0 3 0;
#X connect 3 0 11 0;
#X connect 5 0 1 0;
#X connect 6 0 9 0;
#X connect 6 1 15 0;
#X connect 7 0 25 0;
#X connect 7 1 27 0;
#X connect 8 0 7 1;
#X connect 8 0 24 0;
#X connect 9 0 8 0;
#X connect 10 0 9 1;
#X connect 10 0 14 1;
#X connect 11 0 6 0;
#X connect 11 1 7 0;
#X connect 12 0 5 0;
#X connect 12 1 5 1;
#X connect 14 0 25 0;
#X connect 15 0 16 0;
#X connect 16 0 7 1;
#X connect 16 0 24 0;
#X connect 17 0 25 0;
#X connect 25 0 12 0;
#X connect 26 0 14 0;
#X connect 27 0 14 0;
#X connect 27 1 17 0;
#X connect 28 0 26 0;
