#N canvas 827 329 619 567 10;
#X obj 16 59 inlet;
#X obj 9 438 spigot 1;
#X obj 9 530 outlet;
#X msg 72 378 0;
#X msg 104 377 1;
#X text 123 5 (c)algorythmics \, winfried ritsch;
#X obj 16 81 route \$1;
#X obj 16 102 unpack 64 250;
#X text 82 87 <vel> <dur>;
#X text 372 57 min notelen;
#X obj 125 62 inlet;
#X text 20 27 pianonotedrop <value ms>;
#X obj 102 331 pipe \$2;
#X msg 101 278 clear;
#X obj 67 244 t b b;
#X text 119 222 make longer;
#X text 173 354 only once;
#X obj 9 507 pack \$1 100 250;
#X obj 15 331 t b b b;
#X obj 16 133 t b f b;
#X obj 103 352 t b b b;
#X obj 57 185 > 0;
#X msg 93 158 0;
#X obj 46 158 t f f;
#X obj 58 217 sel 1;
#X obj 145 169 max \$2;
#X obj 169 64 r /np/pianonote_drop/minlen;
#X obj 158 247 + 30;
#X obj 223 207 r /np/pianonote_drop/minpause;
#X obj 227 95 r /np/pianonote_drop/overwrite;
#X obj 97 421 s \$0_noteoff;
#X obj 147 147 t b f;
#X obj 157 280 spigot 1;
#X obj 226 141 t b b;
#X text 268 139 if overwrite notelen is ignored minlen is used;
#X obj 227 120 sel 1 0;
#X msg 267 171 0;
#X obj 226 171 f \$2;
#X msg 315 163 1;
#X text 19 40 pianonotes faster then limit are dropped.;
#X connect 0 0 6 0;
#X connect 1 0 17 0;
#X connect 3 0 1 1;
#X connect 3 0 30 0;
#X connect 4 0 1 1;
#X connect 4 0 30 0;
#X connect 6 0 7 0;
#X connect 7 0 19 0;
#X connect 7 1 25 0;
#X connect 10 0 31 0;
#X connect 12 0 20 0;
#X connect 13 0 12 0;
#X connect 14 0 12 0;
#X connect 17 0 2 0;
#X connect 18 0 12 0;
#X connect 18 1 3 0;
#X connect 18 2 1 0;
#X connect 19 0 18 0;
#X connect 19 1 17 1;
#X connect 19 2 23 0;
#X connect 20 0 4 0;
#X connect 20 1 13 0;
#X connect 20 2 22 0;
#X connect 21 0 24 0;
#X connect 22 0 21 1;
#X connect 23 0 21 1;
#X connect 23 1 21 0;
#X connect 24 0 14 0;
#X connect 25 0 27 0;
#X connect 25 0 17 2;
#X connect 26 0 31 0;
#X connect 26 0 37 1;
#X connect 27 0 32 0;
#X connect 28 0 27 1;
#X connect 29 0 35 0;
#X connect 31 0 25 0;
#X connect 31 1 25 1;
#X connect 32 0 12 1;
#X connect 33 0 37 0;
#X connect 33 1 36 0;
#X connect 35 0 33 0;
#X connect 35 1 38 0;
#X connect 36 0 32 1;
#X connect 37 0 12 1;
#X connect 38 0 32 1;
