#N canvas 551 197 638 420 10;
#X obj 38 47 inlet;
#X obj 16 370 outlet;
#X text 224 11 (c)algorythmics \, winfried ritsch;
#X text 79 49 note vel;
#X obj 23 326 list append;
#X text 43 10 np/n_undouble;
#X obj 37 67 list split 3;
#X text 151 29 only play each key ones until note off is played and
duration exceeded;
#X text 162 109 if duration 0 then duration ignored;
#X text 162 121 else use >min duration;
#X text 160 97 on note ons;
#X text 132 260 notelen are transformed to note off later;
#X obj 34 161 s \$0_innotes;
#X obj 7 299 r \$0_outnotes;
#X text 451 198 A4 ... 69 ... a';
#X text 451 133 A0 ... 21 ... A'';
#X text 451 147 C1 ... 24 ... C';
#X text 450 161 C2 ... 36 ... C;
#X text 451 174 C3 ... 48 ... c;
#X text 451 187 C4 ... 60 ... c';
#X text 450 211 C5 ... 72 ... c'';
#X text 451 224 C6 ... 84 ... c''';
#X text 451 240 C7 ... 96 ... c'''';
#X text 449 256 C8 ... 108 ... c''''';
#N canvas 4 56 716 300 okt0 0;
#X obj 13 23 r \$0_innotes;
#X obj 13 62 s \$0_outnotes;
#X obj 168 23 r \$0_innotes;
#X obj 168 62 s \$0_outnotes;
#X obj 328 17 r \$0_innotes;
#X obj 328 56 s \$0_outnotes;
#X obj 13 43 pianonote_drop 21 70;
#X obj 169 43 pianonote_drop 22 70;
#X obj 328 37 pianonote_drop 23 70;
#X connect 0 0 6 0;
#X connect 2 0 7 0;
#X connect 4 0 8 0;
#X connect 6 0 1 0;
#X connect 7 0 3 0;
#X connect 8 0 5 0;
#X restore 16 190 pd okt0;
#N canvas 0 50 963 202 okt1 0;
#X obj 13 23 r \$0_innotes;
#X obj 13 62 s \$0_outnotes;
#X obj 168 23 r \$0_innotes;
#X obj 168 62 s \$0_outnotes;
#X obj 328 17 r \$0_innotes;
#X obj 328 56 s \$0_outnotes;
#X obj 483 17 r \$0_innotes;
#X obj 483 56 s \$0_outnotes;
#X obj 638 17 r \$0_innotes;
#X obj 638 56 s \$0_outnotes;
#X obj 798 11 r \$0_innotes;
#X obj 798 50 s \$0_outnotes;
#X obj 10 98 r \$0_innotes;
#X obj 10 137 s \$0_outnotes;
#X obj 165 98 r \$0_innotes;
#X obj 165 137 s \$0_outnotes;
#X obj 325 92 r \$0_innotes;
#X obj 325 131 s \$0_outnotes;
#X obj 480 92 r \$0_innotes;
#X obj 480 131 s \$0_outnotes;
#X obj 635 92 r \$0_innotes;
#X obj 635 131 s \$0_outnotes;
#X obj 795 86 r \$0_innotes;
#X obj 795 125 s \$0_outnotes;
#X obj 13 44 pianonote_drop 24 70;
#X obj 169 43 pianonote_drop 25 70;
#X obj 328 37 pianonote_drop 26 70;
#X obj 484 37 pianonote_drop 27 70;
#X obj 639 37 pianonote_drop 28 70;
#X obj 798 31 pianonote_drop 29 70;
#X obj 10 118 pianonote_drop 30 70;
#X obj 166 118 pianonote_drop 31 70;
#X obj 325 112 pianonote_drop 32 70;
#X obj 481 112 pianonote_drop 33 70;
#X obj 636 112 pianonote_drop 34 70;
#X obj 795 106 pianonote_drop 35 70;
#X connect 0 0 24 0;
#X connect 2 0 25 0;
#X connect 4 0 26 0;
#X connect 6 0 27 0;
#X connect 8 0 28 0;
#X connect 10 0 29 0;
#X connect 12 0 30 0;
#X connect 14 0 31 0;
#X connect 16 0 32 0;
#X connect 18 0 33 0;
#X connect 20 0 34 0;
#X connect 22 0 35 0;
#X connect 24 0 1 0;
#X connect 25 0 3 0;
#X connect 26 0 5 0;
#X connect 27 0 7 0;
#X connect 28 0 9 0;
#X connect 29 0 11 0;
#X connect 30 0 13 0;
#X connect 31 0 15 0;
#X connect 32 0 17 0;
#X connect 33 0 19 0;
#X connect 34 0 21 0;
#X connect 35 0 23 0;
#X restore 84 194 pd okt1;
#N canvas 0 50 963 202 okt2 0;
#X obj 13 23 r \$0_innotes;
#X obj 13 62 s \$0_outnotes;
#X obj 168 23 r \$0_innotes;
#X obj 168 62 s \$0_outnotes;
#X obj 328 17 r \$0_innotes;
#X obj 328 56 s \$0_outnotes;
#X obj 483 17 r \$0_innotes;
#X obj 483 56 s \$0_outnotes;
#X obj 638 17 r \$0_innotes;
#X obj 638 56 s \$0_outnotes;
#X obj 798 11 r \$0_innotes;
#X obj 798 50 s \$0_outnotes;
#X obj 10 98 r \$0_innotes;
#X obj 10 137 s \$0_outnotes;
#X obj 165 98 r \$0_innotes;
#X obj 165 137 s \$0_outnotes;
#X obj 325 92 r \$0_innotes;
#X obj 325 131 s \$0_outnotes;
#X obj 480 92 r \$0_innotes;
#X obj 480 131 s \$0_outnotes;
#X obj 635 92 r \$0_innotes;
#X obj 635 131 s \$0_outnotes;
#X obj 795 86 r \$0_innotes;
#X obj 795 125 s \$0_outnotes;
#X obj 13 44 pianonote_drop 36 70;
#X obj 169 43 pianonote_drop 37 70;
#X obj 328 37 pianonote_drop 38 70;
#X obj 485 37 pianonote_drop 39 70;
#X obj 639 37 pianonote_drop 40 70;
#X obj 798 31 pianonote_drop 41 70;
#X obj 10 118 pianonote_drop 42 70;
#X obj 166 118 pianonote_drop 43 70;
#X obj 325 112 pianonote_drop 44 70;
#X obj 481 112 pianonote_drop 45 70;
#X obj 636 112 pianonote_drop 46 70;
#X obj 795 106 pianonote_drop 47 70;
#X connect 0 0 24 0;
#X connect 2 0 25 0;
#X connect 4 0 26 0;
#X connect 6 0 27 0;
#X connect 8 0 28 0;
#X connect 10 0 29 0;
#X connect 12 0 30 0;
#X connect 14 0 31 0;
#X connect 16 0 32 0;
#X connect 18 0 33 0;
#X connect 20 0 34 0;
#X connect 22 0 35 0;
#X connect 24 0 1 0;
#X connect 25 0 3 0;
#X connect 26 0 5 0;
#X connect 27 0 7 0;
#X connect 28 0 9 0;
#X connect 29 0 11 0;
#X connect 30 0 13 0;
#X connect 31 0 15 0;
#X connect 32 0 17 0;
#X connect 33 0 19 0;
#X connect 34 0 21 0;
#X connect 35 0 23 0;
#X restore 18 213 pd okt2;
#N canvas 19 324 963 202 okt4 0;
#X obj 13 23 r \$0_innotes;
#X obj 13 62 s \$0_outnotes;
#X obj 168 23 r \$0_innotes;
#X obj 168 62 s \$0_outnotes;
#X obj 328 17 r \$0_innotes;
#X obj 328 56 s \$0_outnotes;
#X obj 483 17 r \$0_innotes;
#X obj 483 56 s \$0_outnotes;
#X obj 638 17 r \$0_innotes;
#X obj 638 56 s \$0_outnotes;
#X obj 798 11 r \$0_innotes;
#X obj 798 50 s \$0_outnotes;
#X obj 10 98 r \$0_innotes;
#X obj 10 137 s \$0_outnotes;
#X obj 165 98 r \$0_innotes;
#X obj 165 137 s \$0_outnotes;
#X obj 325 92 r \$0_innotes;
#X obj 325 131 s \$0_outnotes;
#X obj 480 92 r \$0_innotes;
#X obj 480 131 s \$0_outnotes;
#X obj 635 92 r \$0_innotes;
#X obj 635 131 s \$0_outnotes;
#X obj 795 86 r \$0_innotes;
#X obj 795 125 s \$0_outnotes;
#X obj 13 44 pianonote_drop 60 70;
#X obj 170 43 pianonote_drop 61 70;
#X obj 328 36 pianonote_drop 62 70;
#X obj 484 37 pianonote_drop 63 70;
#X obj 639 37 pianonote_drop 64 70;
#X obj 798 31 pianonote_drop 65 70;
#X obj 10 118 pianonote_drop 66 70;
#X obj 166 118 pianonote_drop 67 70;
#X obj 325 112 pianonote_drop 68 70;
#X obj 481 112 pianonote_drop 69 70;
#X obj 636 112 pianonote_drop 70 70;
#X obj 795 106 pianonote_drop 71 70;
#X connect 0 0 24 0;
#X connect 2 0 25 0;
#X connect 4 0 26 0;
#X connect 6 0 27 0;
#X connect 8 0 28 0;
#X connect 10 0 29 0;
#X connect 12 0 30 0;
#X connect 14 0 31 0;
#X connect 16 0 32 0;
#X connect 18 0 33 0;
#X connect 20 0 34 0;
#X connect 22 0 35 0;
#X connect 24 0 1 0;
#X connect 25 0 3 0;
#X connect 26 0 5 0;
#X connect 27 0 7 0;
#X connect 28 0 9 0;
#X connect 29 0 11 0;
#X connect 30 0 13 0;
#X connect 31 0 15 0;
#X connect 32 0 17 0;
#X connect 33 0 19 0;
#X connect 34 0 21 0;
#X connect 35 0 23 0;
#X restore 18 232 pd okt4;
#N canvas 0 50 963 202 okt6 0;
#X obj 13 23 r \$0_innotes;
#X obj 13 62 s \$0_outnotes;
#X obj 168 23 r \$0_innotes;
#X obj 168 62 s \$0_outnotes;
#X obj 328 17 r \$0_innotes;
#X obj 328 56 s \$0_outnotes;
#X obj 483 17 r \$0_innotes;
#X obj 483 56 s \$0_outnotes;
#X obj 638 17 r \$0_innotes;
#X obj 638 56 s \$0_outnotes;
#X obj 798 11 r \$0_innotes;
#X obj 798 50 s \$0_outnotes;
#X obj 10 98 r \$0_innotes;
#X obj 10 137 s \$0_outnotes;
#X obj 165 98 r \$0_innotes;
#X obj 165 137 s \$0_outnotes;
#X obj 325 92 r \$0_innotes;
#X obj 325 131 s \$0_outnotes;
#X obj 480 92 r \$0_innotes;
#X obj 480 131 s \$0_outnotes;
#X obj 635 92 r \$0_innotes;
#X obj 635 131 s \$0_outnotes;
#X obj 795 86 r \$0_innotes;
#X obj 795 125 s \$0_outnotes;
#X obj 13 44 pianonote_drop 84 70;
#X obj 169 43 pianonote_drop 85 70;
#X obj 328 37 pianonote_drop 86 70;
#X obj 484 37 pianonote_drop 87 70;
#X obj 639 37 pianonote_drop 88 70;
#X obj 798 31 pianonote_drop 89 70;
#X obj 10 118 pianonote_drop 90 70;
#X obj 167 117 pianonote_drop 91 70;
#X obj 325 113 pianonote_drop 92 70;
#X obj 481 112 pianonote_drop 93 70;
#X obj 636 112 pianonote_drop 94 70;
#X obj 795 106 pianonote_drop 95 70;
#X connect 0 0 24 0;
#X connect 2 0 25 0;
#X connect 4 0 26 0;
#X connect 6 0 27 0;
#X connect 8 0 28 0;
#X connect 10 0 29 0;
#X connect 12 0 30 0;
#X connect 14 0 31 0;
#X connect 16 0 32 0;
#X connect 18 0 33 0;
#X connect 20 0 34 0;
#X connect 22 0 35 0;
#X connect 24 0 1 0;
#X connect 25 0 3 0;
#X connect 26 0 5 0;
#X connect 27 0 7 0;
#X connect 28 0 9 0;
#X connect 29 0 11 0;
#X connect 30 0 13 0;
#X connect 31 0 15 0;
#X connect 32 0 17 0;
#X connect 33 0 19 0;
#X connect 34 0 21 0;
#X connect 35 0 23 0;
#X restore 18 251 pd okt6;
#N canvas 0 50 963 202 okt8 0;
#X obj 13 23 r \$0_innotes;
#X obj 13 62 s \$0_outnotes;
#X obj 13 44 pianonote_drop 108 70;
#X connect 0 0 2 0;
#X connect 2 0 1 0;
#X restore 20 271 pd okt8;
#N canvas 0 50 963 202 okt3 0;
#X obj 13 23 r \$0_innotes;
#X obj 13 62 s \$0_outnotes;
#X obj 168 23 r \$0_innotes;
#X obj 168 62 s \$0_outnotes;
#X obj 328 17 r \$0_innotes;
#X obj 328 56 s \$0_outnotes;
#X obj 483 17 r \$0_innotes;
#X obj 483 56 s \$0_outnotes;
#X obj 638 17 r \$0_innotes;
#X obj 638 56 s \$0_outnotes;
#X obj 798 11 r \$0_innotes;
#X obj 798 50 s \$0_outnotes;
#X obj 10 98 r \$0_innotes;
#X obj 10 137 s \$0_outnotes;
#X obj 165 98 r \$0_innotes;
#X obj 165 137 s \$0_outnotes;
#X obj 325 92 r \$0_innotes;
#X obj 325 131 s \$0_outnotes;
#X obj 480 92 r \$0_innotes;
#X obj 480 131 s \$0_outnotes;
#X obj 635 92 r \$0_innotes;
#X obj 635 131 s \$0_outnotes;
#X obj 795 86 r \$0_innotes;
#X obj 795 125 s \$0_outnotes;
#X obj 13 44 pianonote_drop 48 70;
#X obj 169 43 pianonote_drop 49 70;
#X obj 328 37 pianonote_drop 50 70;
#X obj 484 37 pianonote_drop 51 70;
#X obj 639 37 pianonote_drop 52 70;
#X obj 798 31 pianonote_drop 53 70;
#X obj 11 118 pianonote_drop 54 70;
#X obj 166 118 pianonote_drop 55 70;
#X obj 325 112 pianonote_drop 56 70;
#X obj 482 112 pianonote_drop 57 70;
#X obj 636 112 pianonote_drop 58 70;
#X obj 795 106 pianonote_drop 59 70;
#X connect 0 0 24 0;
#X connect 2 0 25 0;
#X connect 4 0 26 0;
#X connect 6 0 27 0;
#X connect 8 0 28 0;
#X connect 10 0 29 0;
#X connect 12 0 30 0;
#X connect 14 0 31 0;
#X connect 16 0 32 0;
#X connect 18 0 33 0;
#X connect 20 0 34 0;
#X connect 22 0 35 0;
#X connect 24 0 1 0;
#X connect 25 0 3 0;
#X connect 26 0 5 0;
#X connect 27 0 7 0;
#X connect 28 0 9 0;
#X connect 29 0 11 0;
#X connect 30 0 13 0;
#X connect 31 0 15 0;
#X connect 32 0 17 0;
#X connect 33 0 19 0;
#X connect 34 0 21 0;
#X connect 35 0 23 0;
#X restore 84 216 pd okt3;
#N canvas 0 50 963 202 okt5 0;
#X obj 13 23 r \$0_innotes;
#X obj 13 62 s \$0_outnotes;
#X obj 168 23 r \$0_innotes;
#X obj 168 62 s \$0_outnotes;
#X obj 328 17 r \$0_innotes;
#X obj 328 56 s \$0_outnotes;
#X obj 483 17 r \$0_innotes;
#X obj 483 56 s \$0_outnotes;
#X obj 638 17 r \$0_innotes;
#X obj 638 56 s \$0_outnotes;
#X obj 798 11 r \$0_innotes;
#X obj 798 50 s \$0_outnotes;
#X obj 10 98 r \$0_innotes;
#X obj 10 137 s \$0_outnotes;
#X obj 165 98 r \$0_innotes;
#X obj 165 137 s \$0_outnotes;
#X obj 325 92 r \$0_innotes;
#X obj 325 131 s \$0_outnotes;
#X obj 480 92 r \$0_innotes;
#X obj 480 131 s \$0_outnotes;
#X obj 635 92 r \$0_innotes;
#X obj 635 131 s \$0_outnotes;
#X obj 795 86 r \$0_innotes;
#X obj 795 125 s \$0_outnotes;
#X obj 13 44 pianonote_drop 72 70;
#X obj 169 43 pianonote_drop 73 70;
#X obj 327 36 pianonote_drop 74 70;
#X obj 484 37 pianonote_drop 75 70;
#X obj 640 37 pianonote_drop 76 70;
#X obj 798 31 pianonote_drop 77 70;
#X obj 10 118 pianonote_drop 78 70;
#X obj 166 118 pianonote_drop 79 70;
#X obj 325 112 pianonote_drop 3 80 70;
#X obj 481 112 pianonote_drop 81 70;
#X obj 636 112 pianonote_drop 82 70;
#X obj 795 106 pianonote_drop 83 70;
#X connect 0 0 24 0;
#X connect 2 0 25 0;
#X connect 4 0 26 0;
#X connect 6 0 27 0;
#X connect 8 0 28 0;
#X connect 10 0 29 0;
#X connect 12 0 30 0;
#X connect 14 0 31 0;
#X connect 16 0 32 0;
#X connect 18 0 33 0;
#X connect 20 0 34 0;
#X connect 22 0 35 0;
#X connect 24 0 1 0;
#X connect 25 0 3 0;
#X connect 26 0 5 0;
#X connect 27 0 7 0;
#X connect 28 0 9 0;
#X connect 29 0 11 0;
#X connect 30 0 13 0;
#X connect 31 0 15 0;
#X connect 32 0 17 0;
#X connect 33 0 19 0;
#X connect 34 0 21 0;
#X connect 35 0 23 0;
#X restore 86 240 pd okt5;
#N canvas 0 50 963 202 okt7 0;
#X obj 13 23 r \$0_innotes;
#X obj 13 62 s \$0_outnotes;
#X obj 168 23 r \$0_innotes;
#X obj 168 62 s \$0_outnotes;
#X obj 328 17 r \$0_innotes;
#X obj 328 56 s \$0_outnotes;
#X obj 483 17 r \$0_innotes;
#X obj 483 56 s \$0_outnotes;
#X obj 638 17 r \$0_innotes;
#X obj 638 56 s \$0_outnotes;
#X obj 798 11 r \$0_innotes;
#X obj 798 50 s \$0_outnotes;
#X obj 10 98 r \$0_innotes;
#X obj 10 137 s \$0_outnotes;
#X obj 165 98 r \$0_innotes;
#X obj 165 137 s \$0_outnotes;
#X obj 325 92 r \$0_innotes;
#X obj 325 131 s \$0_outnotes;
#X obj 480 92 r \$0_innotes;
#X obj 480 131 s \$0_outnotes;
#X obj 635 92 r \$0_innotes;
#X obj 635 131 s \$0_outnotes;
#X obj 795 86 r \$0_innotes;
#X obj 795 125 s \$0_outnotes;
#X obj 13 44 pianonote_drop 96 70;
#X obj 169 43 pianonote_drop 97 70;
#X obj 328 37 pianonote_drop 98 70;
#X obj 484 37 pianonote_drop 99 70;
#X obj 639 37 pianonote_drop 100 70;
#X obj 798 31 pianonote_drop 101 70;
#X obj 10 118 pianonote_drop 102 70;
#X obj 166 118 pianonote_drop 103 70;
#X obj 325 112 pianonote_drop 104 70;
#X obj 482 112 pianonote_drop 105 70;
#X obj 638 111 pianonote_drop 106 70;
#X obj 794 106 pianonote_drop 107 70;
#X connect 0 0 24 0;
#X connect 2 0 25 0;
#X connect 4 0 26 0;
#X connect 6 0 27 0;
#X connect 8 0 28 0;
#X connect 10 0 29 0;
#X connect 12 0 30 0;
#X connect 14 0 31 0;
#X connect 16 0 32 0;
#X connect 18 0 33 0;
#X connect 20 0 34 0;
#X connect 22 0 35 0;
#X connect 24 0 1 0;
#X connect 25 0 3 0;
#X connect 26 0 5 0;
#X connect 27 0 7 0;
#X connect 28 0 9 0;
#X connect 29 0 11 0;
#X connect 30 0 13 0;
#X connect 31 0 15 0;
#X connect 32 0 17 0;
#X connect 33 0 19 0;
#X connect 34 0 21 0;
#X connect 35 0 23 0;
#X restore 81 262 pd okt7;
#X obj 462 86 metro 200;
#X obj 462 66 tgl 15 0 empty empty empty 17 7 0 10 -262144 -1 -1 0
1;
#X obj 462 108 pack 60 100 250;
#X floatatom 499 59 5 0 0 0 - - -, f 5;
#X floatatom 546 59 5 0 0 0 - - -, f 5;
#X floatatom 591 60 5 0 0 0 - - -, f 5;
#X floatatom 541 39 5 0 0 0 - - -, f 5;
#X obj 39 93 unpack 69 100 250;
#X obj 38 138 pack 69 100 250;
#X obj 40 114 i 69;
#X connect 0 0 6 0;
#X connect 4 0 1 0;
#X connect 6 0 40 0;
#X connect 6 1 4 1;
#X connect 13 0 4 0;
#X connect 33 0 35 0;
#X connect 34 0 33 0;
#X connect 35 0 6 0;
#X connect 36 0 35 0;
#X connect 37 0 35 1;
#X connect 38 0 35 2;
#X connect 39 0 33 1;
#X connect 40 0 42 0;
#X connect 40 1 41 1;
#X connect 40 2 41 2;
#X connect 41 0 12 0;
#X connect 42 0 41 0;
