#N canvas 1166 267 405 245 10;
#X obj 101 117 cnv 15 198 32 empty empty board_\$1 150 22 0 10 -195568
-66577 0;
#X floatatom 142 119 5 0 0 0 - - -;
#X floatatom 180 119 5 0 0 0 - - -;
#X floatatom 219 119 5 0 0 0 - - -;
#X floatatom 258 119 5 0 0 0 - - -;
#X obj 103 119 tgl 15 0 empty empty empty 17 7 0 10 -24198 -1 -1 1
1;
#X obj 144 45 route \$1;
#X text 176 135 IP Addresse;
#X text 104 134 Online;
#X obj 24 42 route \$1;
#X obj 120 119 tgl 15 0 empty empty empty 17 7 0 10 -258699 -1 -1 0
1;
#X obj 24 20 r /pde/send_status;
#X text 205 45 for selected board;
#X text 272 60 IP is sent;
#X obj 144 20 r /pde/ips;
#X obj 2 71 r /pde/board/\$1/online;
#X text 14 -29 pde/dedect_gui <board nr>;
#X text 15 187 LGPL (c) algorthmics 2010;
#X text 39 -11 visualize detection of board;
#X obj 144 68 unpack 0 1 2 3 4;
#X connect 6 0 19 0;
#X connect 9 0 10 0;
#X connect 11 0 9 0;
#X connect 14 0 6 0;
#X connect 15 0 5 0;
#X connect 19 1 1 0;
#X connect 19 2 2 0;
#X connect 19 3 3 0;
#X connect 19 4 4 0;
#X coords 0 -1 1 1 200 50 1 100 100;
