#N canvas 489 192 450 300 10;
#X obj 41 -11 pack;
#X obj 64 -33 + 80;
#X obj 41 -62 t f f;
#X obj 81 -160 loadbang;
#X obj 30 -161 inlet;
#X obj 40 -89 list split 1;
#X obj 59 -112 t l;
#N canvas 0 0 562 568 arguments 0;
#X obj 39 112 f;
#X obj 39 137 + 1;
#X obj 39 162 t b a;
#X obj 39 462 t a;
#X obj 39 57 until;
#X obj 39 438 list prepend;
#X obj 10 527 outlet;
#X obj 39 7 inlet;
#X obj 39 32 t b b;
#X obj 39 363 list split 1;
#N canvas 368 169 216 100 \$0-test 0;
#X obj 5 5 r 1066-argv-b;
#X obj 5 35 list append \$1 \$1-t;
#X obj 5 65 s 1066-arg;
#X connect 0 0 1 0;
#X connect 1 0 2 0;
#X restore 39 308 pd \$0-test;
#X obj 76 253 s pd-\$0-test;
#X obj 39 338 r \$0-arg;
#X obj 76 187 list append \$0 $;
#X msg 122 338 symbol \$3\$1-t;
#X obj 85 388 sel s;
#X obj 85 413 s \$0-argv-end;
#X obj 88 32 s \$0-argv-reset;
#X obj 144 438 r \$0-argv-reset;
#X obj 89 57 r \$0-argv-end;
#X obj 39 278 s \$0-argv-b;
#X msg 76 212 clear \, obj 5 5 r \$2-argv-b \, obj 5 35 list append
\$3\$1 \$3\$1-t \, obj 5 65 s \$2-arg \, connect 0 0 1 0 \, connect
1 0 2 0;
#X obj 89 82 0;
#X obj 10 502 list;
#X connect 0 0 1 0;
#X connect 1 0 0 1;
#X connect 1 0 2 0;
#X connect 2 0 20 0;
#X connect 2 1 13 0;
#X connect 3 0 5 1;
#X connect 3 0 23 1;
#X connect 4 0 0 0;
#X connect 5 0 3 0;
#X connect 7 0 8 0;
#X connect 8 0 4 0;
#X connect 8 1 17 0;
#X connect 9 0 5 0;
#X connect 9 1 15 0;
#X connect 12 0 9 0;
#X connect 13 0 21 0;
#X connect 13 0 14 0;
#X connect 14 0 15 1;
#X connect 15 0 16 0;
#X connect 15 0 23 0;
#X connect 18 0 5 1;
#X connect 18 0 23 1;
#X connect 19 0 4 1;
#X connect 19 0 22 0;
#X connect 21 0 11 0;
#X connect 22 0 0 1;
#X connect 23 0 6 0;
#X restore 37 -131 pd arguments;
#X text 166 -144 init ports with numbers in arguments;
#X msg 37 19 \; /pde/ctlport 0 0 0 0 0 0 0 0 0 0 0 0 0 \$1 192 168
9 \$2;
#X text 27 -184 pde_portctl <board nr> [...];
#X text 22 60 LGPL: (c) algorythmics \, winfried ritsch;
#X text 117 -110 this fakes messages for init from escher boards;
#X connect 0 0 9 0;
#X connect 1 0 0 1;
#X connect 2 0 0 0;
#X connect 2 1 1 0;
#X connect 3 0 7 0;
#X connect 4 0 7 0;
#X connect 5 0 2 0;
#X connect 5 1 6 0;
#X connect 6 0 5 0;
#X connect 7 0 5 0;
