#N canvas 85 58 727 438 12;
#X declare -path . -path abs -path data -path libs/pdpp/data -path
libs -path libs/cyclone -path libs/iemlib -lib iemlib -lib zexy;
#N canvas 434 277 694 359 declares 0;
#X text 16 1 --- path for Pd abstractions \, data \, libs ... ---;
#X text 10 135 a) paths for the projects;
#X text 11 162 b) paths and libs for libraries in project;
#X text 25 218 Linux: .local/lib/Pd/extra \, /usr/[local/]lib/pd/extra
;
#X text 25 234 OS-X: ~/Library/Pd \, /Library/Pd \, /Applications/Pd/...
;
#X text 40 181 Note the order \, locals first can overwrite libs;
#X obj 7 95 declare -path . -path abs -path data -path libs/pdpp/data
-path libs -path libs/cyclone -path libs/iemlib -lib iemlib -lib zexy
, f 70;
#X text 9 315 Note: for Pd V0.49+ the order of the declare "-lib" statements
should be after the "-path libs";
#X text 12 263 Hint: Copy all your libraries to the libs folder to
get control over the correct version;
#X text 12 200 c) (deprecated) paths and libs for project in system:
;
#X text 10 18 Needed internal Libs: pde \, pdpp (now in git subtree
and releases included);
#X text 10 52 Needed external Libs: iemlib \, zexy (included in Releases
for Linux \, OS-X and Windows);
#X restore 44 38 pd declares;
#N canvas 410 321 687 590 GUI 1;
#X text 260 52 --- test arpeggio/note ---;
#X obj 233 76 pdpp/iface/osc_ctl 1;
#X obj 30 285 pdpp/noteeq/ctl 1;
#X obj 29 368 pdpp/test/arp 1;
#X obj 29 418 pdpp/test/note 1;
#X obj 29 518 pdpp/iface/midiout_ctl 1;
#X obj 53 56 nbx 2 14 0 1e+37 0 0 /rhea/nr /rhea/nr /rhea/nr 0 -8 0
10 -262144 -1 -1 3 256;
#X obj 91 56 bng 15 250 50 0 reinit reinit reinit_from_config.txt 17
7 0 10 -262144 -1 -1;
#X text 28 47 1);
#X obj 120 36 tgl 15 0 setup-vis setup-vis setup 17 7 0 10 -257985
-1 -1 0 1;
#X obj 435 76 pdpp/iface/midiin_ctl 1;
#X text 72 342 --- TESTS ---;
#X text 355 342 --- MIDI-File Player ---;
#X obj 30 76 pdpp/rhea/ctl 1;
#X obj 239 368 pdpp/iface/mifi_ctl 1;
#X obj 439 368 pdpp/iface/mifi_ctl 2;
#X text 27 13 RheaPlayer Interface V1.0z;
#X obj 258 293 bng 45 250 50 0 allnotesoff allnotesoff AllNotesOff
-5 -7 0 10 -258113 -1 -1;
#X restore 43 88 pd GUI;
#N canvas 364 58 912 624 init 0;
#X obj 41 94 t b b b;
#X text 160 56 Initial values set after loading;
#X msg 101 122 --- patch main loaded --- \;;
#X text 125 97 prepare patches;
#X text 102 168 Initialze main values;
#X text 88 509 Start DSP engine;
#X obj 41 587 print init:;
#X text 39 31 Note: includes loadbang;
#X obj 100 145 print init:;
#X obj 42 56 loadbang;
#X obj 527 458 pdpp/rhea/ip 1;
#X text 525 415 Set IP and port from rheanumber;
#N canvas 404 313 450 300 setup 0;
#X text 21 24 Setup for the pianoplayer to use.;
#X text 19 55 Before the first use define the number of the player
;
#X text 16 72 (Hint: Noted on rhea's ethernet port);
#X floatatom 45 93 5 0 0 0 - - -;
#N canvas 91 58 450 424 generate 0;
#X obj 50 41 inlet;
#X obj 114 163 sel -1;
#X msg 114 187 1000;
#X obj 75 331 text set config;
#X obj 53 76 t b f b;
#X obj 113 126 text search config;
#X msg 113 102 symbol /rhea/nr;
#X msg 75 220 list /rhea/nr \$1;
#X obj 53 373 s /config/write;
#X connect 0 0 4 0;
#X connect 1 0 2 0;
#X connect 1 1 3 1;
#X connect 2 0 3 1;
#X connect 4 0 8 0;
#X connect 4 1 7 0;
#X connect 4 2 6 0;
#X connect 5 0 1 0;
#X connect 6 0 5 0;
#X connect 7 0 3 0;
#X restore 44 122 pd generate config.txt;
#X obj 248 125 bng 15 250 50 0 /config/write empty save_config.txt
17 7 0 10 -258113 -1 -1;
#X obj 247 105 bng 15 250 50 0 /config/edit /config/edit edit_config.txt
17 7 0 10 -262144 -1 -1;
#X text 14 105 1);
#X text 217 106 2);
#X text 9 236 On the host configure your Ethernet to pianoplayer manual
(static): choose IP: 192.168.10.1-127 \, netmask 255.255.255.0;
#X text 14 198 Note: IP Pianoplayer should be 192.168.10.128+Rheanumber
;
#X connect 3 0 4 0;
#X restore 543 116 pd setup;
#X obj 542 168 r #;
#X obj 542 192 print comment:;
#X text 492 20 ---- Helper for init and setup ---;
#X obj 544 53 r setup-vis;
#X msg 544 77 \; pd-setup vis \$1;
#N canvas 619 418 450 300 config 0;
#X obj 172 132 text define -k config;
#A set # local setup \; /rhea/nr 3 \; # add your setup messages here
\; /piano/1/sim/on 0 \; /piano/1/midiin/on 1 \; /piano/1/osc/on 1 \;
/piano/1/osc/midi/on 1 \; /piano/1/on 1 \;;
#X obj 140 59 bng 15 250 50 0 empty empty empty 17 7 0 10 -262144 -1
-1;
#X obj 140 31 r reinit;
#X msg 140 173 line 0 \, bang;
#X obj 140 79 t b b;
#X msg 172 107 read -c config.txt;
#X msg 23 109 write -c config.txt;
#X obj 139 198 text sequence config -g;
#X msg 226 64 click;
#X obj 227 36 r /config/edit;
#X obj 22 84 r /config/write;
#X connect 1 0 4 0;
#X connect 2 0 1 0;
#X connect 3 0 7 0;
#X connect 4 0 3 0;
#X connect 4 1 5 0;
#X connect 5 0 0 0;
#X connect 6 0 0 0;
#X connect 8 0 0 0;
#X connect 9 0 8 0;
#X connect 10 0 6 0;
#X restore 543 142 pd config;
#X obj 519 295 r /rhea/nr;
#X obj 519 323 s /piano/1/rheanr;
#X obj 527 434 r /piano/1/rheanr;
#X obj 262 460 r /piano/1/rheanr;
#X obj 262 509 pack 1 0;
#X obj 262 485 t b f;
#X msg 56 356 read \$1;
#X obj 56 379 s /piano/\$1/notemap;
#X obj 56 332 makefilename notemaps/pde_piano_%d_notemap.txt;
#X text 616 292 from RheaPlayer patch;
#X text 648 325 for piano library ?;
#X text 317 398 --- Initialize Pianoplayer 1 with data rhea with index
rheanr ---, f 68;
#X msg 527 485 \; /piano/1/portnr \$2 \; /piano/1/ip symbol \$1 \;
;
#X msg 64 186 \; /piano/1/veltab/read symbol ../../../data/piano-1-veltab.txt
\; /piano/1/on 1 \; /osc/1/veltab/read symbol ../../../data/osc-1-veltab.txt
\; /midi/1/veltab/read symbol ../../../data/midi-1-veltab.txt \; /mifi/1/veltab/read
symbol ../../../data/mifi-1-veltab.txt \; /mifi/2/veltab/read symbol
../../../data/mifi-2-veltab.txt \; reinit bang \;, f 64;
#X msg 41 533 --- dsp start/stop --- \; pd dsp \$1;
#X obj 40 487 i 0;
#X obj 74 452 r /piano/1/dsp;
#X msg 262 537 \; /piano/\$1/notemap/rheanr \$2 \; /piano/\$1/hold/rheanr
\$2 \; /piano/\$1/notemins/read symbol ../../../data/minmaxs/notemins-\$2.txt
\; /piano/\$1/notemaxs/read symbol ../../../data/minmaxs/notemaxs-\$2.txt
\; /piano/\$1/main_min 0 \; /piano/\$1/main_max 0 \;, f 71;
#X msg 239 646 \; /piano/\$1/notemap/read symbol notemaps/rhea_\$2_notemap.txt
\;, f 71;
#X connect 0 0 34 0;
#X connect 0 1 32 0;
#X connect 0 2 2 0;
#X connect 2 0 8 0;
#X connect 9 0 0 0;
#X connect 10 0 31 0;
#X connect 13 0 14 0;
#X connect 16 0 17 0;
#X connect 19 0 20 0;
#X connect 21 0 10 0;
#X connect 22 0 24 0;
#X connect 23 0 36 0;
#X connect 24 0 23 0;
#X connect 24 1 23 1;
#X connect 25 0 26 0;
#X connect 27 0 25 0;
#X connect 33 0 6 0;
#X connect 34 0 33 0;
#X connect 35 0 34 0;
#X restore 44 62 pd init;
#X text 127 63 Initialize Patch;
#X text 40 153 --- commands ---;
#X text 42 379 --- ctl for calibration: copy and edit for your controller
---, f 65;
#X obj 44 242 r note;
#X obj 44 293 s /piano/1/note;
#X obj 44 333 r /piano/1/note;
#X text 42 313 --- piano simulator ---;
#X obj 440 156 pdpp/iface/osc 1;
#X obj 44 268 pdpp/noteeq/map 1;
#X obj 175 268 pdpp/noteeq/store 1;
#X obj 43 133 pdpp/rhea/rhea 1;
#X obj 44 400 pdpp/iface/controller;
#X obj 44 358 pdpp/iface/midiout 1;
#X text 126 39 Declares for patch;
#X text 445 55 --- Interfaces ---;
#X obj 440 212 pdpp/iface/mifi 1;
#X obj 437 78 pdpp/iface/midiin 1;
#X text 320 7 For operating a Rheaplayer via \, Pd \, OSC \, MIDI or
with midifiles;
#X obj 437 102 s note;
#X text 42 225 --- receive not eq and send to piano ---;
#X text 40 114 --- complete rhea processing with stack ---;
#X text 125 92 Graphical User Interface;
#X text 438 131 --- OSC-Interface: piano and raw ---;
#X obj 440 180 s note;
#X obj 440 264 s note;
#X obj 489 237 pdpp/iface/mifi 2;
#X text 45 8 Rheaplayer V-1.1 (GPLv3);
#X text 316 39 special for IEM Lehrstudio and CUBE \, but also for
others;
#N canvas 146 619 450 300 AllNotesOff 0;
#X text 174 200 direct note all off to player;
#X obj 42 199 pdpp/rhea/alloff;
#X obj 40 155 r allnotesoff;
#X obj 50 249 s /pde/1/send;
#X obj 158 252 s /pde/2/send;
#X obj 63 72 bng 45 250 50 0 allnotesoff allnotesoff AllNotesOff -5
-7 0 10 -258113 -1 -1;
#X connect 1 0 3 0;
#X connect 1 0 4 0;
#X connect 2 0 1 0;
#X restore 39 195 pd AllNotesOff;
#X connect 6 0 11 0;
#X connect 8 0 15 0;
#X connect 10 0 26 0;
#X connect 11 0 7 0;
#X connect 18 0 27 0;
#X connect 19 0 21 0;
#X connect 28 0 27 0;
