#N canvas 591 325 727 436 12;
#X declare -path . -path abs -path data -path libs/pdpp/data -path libs -path libs/cyclone -path libs/iemlib -path cyclone -path iemlib -lib iemlib -lib zexy;
#N canvas 1398 44 694 359 declares 0;
#X text 16 1 --- path for Pd abstractions \, data \, libs ... ---;
#X text 10 60 a) paths for the projects;
#X text 10 81 b) paths and libs for libraries in project;
#X text 25 218 Linux: .local/lib/Pd/extra \, /usr/[local/]lib/pd/extra;
#X text 27 240 OS-X: ~/Library/Pd \, /Library/Pd \, /Applications/Pd/...;
#X text 12 288 Note: for Pd V0.49+ the order of the declare "-lib" statements should be after the "-path libs";
#X text 11 100 c) (deprecated) paths and libs for project in system:;
#X obj 8 128 declare -path . -path abs -path data -path libs/pdpp/data -path libs -path libs/cyclone -path libs/iemlib -path cyclone -path iemlib -lib iemlib -lib zexy, f 70;
#X text 11 18 needed: sub libraries pde \, pdpp see libs folder;
#X text 20 32 external Libs: iemlib \, zexy;
#X text 6 181 Note the order \, locals first can overwrite external libs;
#X text 9 203 external lib paths:;
#X text 12 263 Hint: Copy all your libraries to the libs folder;
#X restore 44 38 pd declares;
#N canvas 44 0 727 605 GUI 1;
#X text 260 52 --- test arpeggio/note ---;
#X obj 235 76 pdpp/iface/osc_ctl 1;
#X obj 30 285 pdpp/noteeq/ctl 1;
#X obj 29 368 pdpp/test/arp 1;
#X obj 29 418 pdpp/test/note 1;
#X obj 29 518 pdpp/iface/midiout_ctl 1;
#X obj 53 56 nbx 2 14 0 1e+37 0 0 /rhea/nr /rhea/nr /rhea/nr 0 -8 0 10 #fcfcfc #000000 #000000 0 256;
#X obj 91 56 bng 15 250 50 0 reinit reinit reinit_from_config.txt 17 7 0 10 #fcfcfc #000000 #000000;
#X text 28 47 1);
#X obj 120 36 tgl 15 0 setup-vis setup-vis setup 17 7 0 10 #f8fc00 #000000 #000000 0 1;
#X obj 435 76 pdpp/iface/midiin_ctl 1;
#X text 72 342 --- TESTS ---;
#X text 355 342 --- MIDI-File Player ---;
#X obj 30 76 pdpp/rhea/ctl 1;
#X obj 239 368 pdpp/iface/mifi_ctl 1;
#X obj 439 368 pdpp/iface/mifi_ctl 2;
#X text 27 13 RheaPlayer Interface V1.0z;
#X obj 249 293 bng 45 250 50 0 allnotesoff allnotesoff AllNotesOff -5 -7 0 10 #fc0400 #000000 #000000;
#X text 304 290 Beware: If a MIDI note loops in the MIDI connection \, software or hardware \, this does not help. Please correct your system (happened sometimes and burns solenoids !!!);
#X text 246 575 MIDIfile player sometimes forget to play all note off !;
#X restore 43 88 pd GUI;
#N canvas 1837 0 912 1011 init 0;
#X msg 121 69 --- patch main loaded --- \;;
#X text 543 174 Start DSP engine;
#X obj 493 248 print init:;
#X text 39 31 Note: includes loadbang;
#X obj 123 92 print init:;
#X obj 41 52 loadbang;
#X obj 765 177 pdpp/rhea/ip 1;
#X text 763 134 Set IP and port from rheanumber;
#N canvas 1069 56 450 259 setup 0;
#X text 21 24 Setup for the pianoplayer to use.;
#X text 19 55 Before the first use define the number of the player;
#X text 16 72 (Hint: Noted on rhea's ethernet port);
#X floatatom 44 107 5 0 0 0 - - - 0;
#N canvas 736 384 534 351 generate 0;
#X obj 50 41 inlet;
#X obj 251 113 config_arg 1 #;
#X msg 251 88 list add your setup messages here;
#X obj 249 58 config_arg 1 /rhea/nr;
#X obj 53 76 t b b b f;
#X msg 187 184 1;
#X msg 219 158 0;
#X msg 148 206 1;
#X msg 110 233 1;
#X obj 53 324 s /config/1/write;
#X msg 73 258 1;
#X obj 219 182 config_arg_default 1 /piano/1/sim/on;
#X obj 187 207 config_arg_default 1 /piano/1/midiin/on;
#X obj 148 230 config_arg_default 1 /piano/1/osc/on;
#X obj 110 257 config_arg_default 1 /piano/1/osc/midi/on;
#X obj 73 283 config_arg_default 1 /piano/1/on;
#X text 187 324 write configfile;
#X text 255 28 set rhea number;
#X text 265 147 defaults if not already configured;
#X connect 0 0 4 0;
#X connect 2 0 1 0;
#X connect 4 0 9 0;
#X connect 4 1 6 0;
#X connect 4 1 5 0;
#X connect 4 1 7 0;
#X connect 4 1 8 0;
#X connect 4 1 10 0;
#X connect 4 2 2 0;
#X connect 4 3 3 0;
#X connect 5 0 12 0;
#X connect 6 0 11 0;
#X connect 7 0 13 0;
#X connect 8 0 14 0;
#X connect 10 0 15 0;
#X restore 44 131 pd generate config.txt;
#X obj 244 132 bng 15 250 50 0 /config/1/write /config/1/write save_config.txt 17 7 0 10 #fc0400 #000000 #000000;
#X obj 243 112 bng 15 250 50 0 /config/1/edit /config/1/edit edit_config.txt 17 7 0 10 #fcfcfc #000000 #000000;
#X text 14 105 1);
#X text 217 106 2);
#X text 9 206 On the host configure your Ethernet to pianoplayer manual (static): choose IP: 192.168.10.1-127 \, netmask 255.255.255.0;
#X text 14 168 Note: IP Pianoplayer should be 192.168.10.128+Rheanumber;
#X connect 3 0 4 0;
#X restore 327 222 pd setup;
#X obj 633 243 r #;
#X obj 633 266 print comment:;
#X text 325 16 ---- Helper for init and setup ---;
#X obj 328 43 r setup-vis;
#X msg 328 67 \; pd-setup vis \$1;
#X obj 491 76 r /rhea/nr;
#X obj 492 104 s /piano/1/rheanr;
#X obj 765 153 r /piano/1/rheanr;
#X obj 44 462 r /piano/1/rheanr;
#X obj 44 511 pack 1 0;
#X obj 44 487 t b f;
#X text 588 73 from RheaPlayer patch;
#X text 620 106 for piano library ?;
#X text 54 435 --- Initialize Pianoplayer 1 with data rhea with index rheanr ---, f 68;
#X msg 765 204 \; /piano/1/portnr \$2 \; /piano/1/ip symbol \$1 \;;
#X msg 493 194 --- dsp start/stop --- \; pd dsp \$1;
#X obj 493 166 i 0;
#X obj 493 139 r /piano/1/dsp;
#X obj 59 231 pdcontrol;
#X msg 58 203 dir;
#X obj 41 94 t b b b b;
#X obj 59 254 s rootdir;
#X obj 303 271 r rootdir;
#X text 380 268 load data;
#X text 489 51 if included in other patch;
#X text 93 130 overwrite initialized values;
#X msg 81 154 \; /piano/1/dsp 0;
#X msg 304 301 \; /piano/1/veltab/read symbol data/piano-1-veltab.txt \; /osc/1/veltab/read symbol data/osc-1-veltab.txt \; /midi/1/veltab/read symbol data/midi-1-veltab.txt \; /mifi/1/veltab/read symbol data/mifi-1-veltab.txt \; /mifi/2/veltab/read symbol data/mifi-2-veltab.txt \;, f 64;
#X msg 33 290 \; /piano/1/dsp 1 \; /piano/1/on 1 \; reinit bang \;;
#X obj 327 171 r reinit;
#X obj 327 196 config_txt 1;
#X obj 397 169 r rootdir;
#X obj 44 544 list append .;
#X obj 132 515 r rootdir;
#X text 86 710 for overwrite of default;
#X msg 45 738 \; /piano/\$1/notemap/read symbol \$3/data/notemaps/rhea_\$2_notemap.txt \;, f 71;
#X text 29 360 Note: reinit loads config;
#X text 322 143 --- config.txt ---;
#X msg 51 579 \; /piano/\$1/notemap/rheanr \$2 \; /piano/\$1/hold/rheanr \$2 \; /piano/\$1/notemins/read symbol \$3/data/minmaxs/notemins-\$2.txt \; /piano/\$1/notemaxs/read symbol \$3/data/minmaxs/notemaxs-\$2.txt \; /piano/\$1/hold/read symbol \$3/data/holds/hold-\$2.txt \; /piano/\$1/main_min 0 \; /piano/\$1/main_max 0 \;, f 71;
#X connect 0 0 4 0;
#X connect 5 0 29 0;
#X connect 6 0 23 0;
#X connect 9 0 10 0;
#X connect 12 0 13 0;
#X connect 14 0 15 0;
#X connect 16 0 6 0;
#X connect 17 0 19 0;
#X connect 18 0 41 0;
#X connect 19 0 18 0;
#X connect 19 1 18 1;
#X connect 24 0 2 0;
#X connect 25 0 24 0;
#X connect 26 0 25 0;
#X connect 27 0 30 0;
#X connect 28 0 27 0;
#X connect 29 0 37 0;
#X connect 29 1 28 0;
#X connect 29 2 35 0;
#X connect 29 3 0 0;
#X connect 31 0 36 0;
#X connect 38 0 39 0;
#X connect 40 0 39 1;
#X connect 41 0 47 0;
#X connect 41 0 44 0;
#X connect 42 0 41 1;
#X restore 44 62 pd init;
#X text 127 63 Initialize Patch;
#X text 40 153 --- commands ---;
#X text 42 379 --- ctl for calibration: copy and edit for your controller ---, f 65;
#X obj 44 242 r note;
#X obj 44 293 s /piano/1/note;
#X obj 44 333 r /piano/1/note;
#X text 42 313 --- piano simulator ---;
#X obj 440 156 pdpp/iface/osc 1;
#X obj 44 268 pdpp/noteeq/map 1;
#X obj 175 268 pdpp/noteeq/store 1;
#X obj 43 133 pdpp/rhea/rhea 1;
#X obj 44 400 pdpp/iface/controller;
#X obj 44 358 pdpp/iface/midiout 1;
#X text 126 39 Declares for patch;
#X text 445 55 --- Interfaces ---;
#X obj 440 212 pdpp/iface/mifi 1;
#X obj 437 78 pdpp/iface/midiin 1;
#X text 320 7 For operating a Rheaplayer via \, Pd \, OSC \, MIDI or with midifiles;
#X obj 437 102 s note;
#X text 42 225 --- receive not eq and send to piano ---;
#X text 40 114 --- complete rhea processing with stack ---;
#X text 125 92 Graphical User Interface;
#X text 438 131 --- OSC-Interface: piano and raw ---;
#X obj 440 180 s note;
#X obj 440 263 s note;
#X obj 489 237 pdpp/iface/mifi 2;
#X text 45 8 Rheaplayer V-1.1 (GPLv3);
#X text 316 39 special for IEM Lehrstudio and CUBE \, but also for others;
#N canvas 146 619 866 423 AllNotesOff 0;
#X text 204 217 direct note all off to player;
#X obj 72 216 pdpp/rhea/alloff;
#X obj 40 155 r allnotesoff;
#X obj 80 266 s /pde/1/send;
#X obj 188 269 s /pde/2/send;
#X obj 275 153 bng 45 250 50 0 allnotesoff allnotesoff AllNotesOff -5 -7 0 10 #fc0400 #000000 #000000;
#X text 142 157 hardware off;
#X obj 40 324 for++ 19 108 0;
#X obj 40 348 pack 19 0;
#X obj 40 372 s note;
#X obj 40 179 t b b;
#X text 176 326 generates note off for all keys;
#X text 45 44 All notes off;
#X text 47 82 Beware: If a MIDI note loops in the MIDI connection \, software or hardware \, this does not help. Please correct your system (happened sometimes and burns solenoids !!!);
#X connect 1 0 3 0;
#X connect 1 0 4 0;
#X connect 2 0 10 0;
#X connect 7 0 8 0;
#X connect 8 0 9 0;
#X connect 10 0 7 0;
#X connect 10 1 1 0;
#X connect 10 1 4 0;
#X connect 10 1 3 0;
#X restore 39 195 pd AllNotesOff;
#X obj 440 289 r /mifi/1/stop;
#X obj 565 290 r /mifi/1/end;
#X obj 441 314 r /mifi/1/stop;
#X obj 566 315 r /mifi/1/end;
#X obj 498 348 s allnotesoff;
#X connect 6 0 11 0;
#X connect 8 0 15 0;
#X connect 10 0 26 0;
#X connect 11 0 7 0;
#X connect 18 0 27 0;
#X connect 19 0 21 0;
#X connect 28 0 27 0;
#X connect 32 0 36 0;
#X connect 33 0 36 0;
#X connect 34 0 36 0;
#X connect 35 0 36 0;
