#N canvas 562 89 698 587 10;
#X obj 261 299 spigot;
#X obj 259 259 tgl 15 0 empty empty empty 0 -6 0 8 -262144 -1 -1 1
1;
#X msg 167 234 disconnect;
#X msg 32 412 connect \$1 \$2;
#X obj 32 384 pack s f;
#X obj 32 332 symbol \$2;
#X obj 32 229 t b b;
#X obj 231 397 tgl 15 0 empty empty empty 17 7 0 10 -262144 -1 -1 1
1;
#X obj 84 233 unpack s f;
#X obj 35 101 route connect disconnect;
#X obj 100 508 list prepend \$1;
#X obj 141 422 spigot;
#X obj 155 368 inlet;
#X text 42 28 PD Escher Lib: connect \, disconnect \, send a message
to RheaPlayer OS;
#X text 36 557 GPL: (c) algorythmics \, winfried ritsch;
#X obj 34 150 route bang;
#X obj 38 127 t a b;
#X text 117 154 connect <ip> <port> or bang for reconnect;
#X obj 32 197 del 20;
#X text 84 196 wait 20ms to flush the buffer if needed;
#X text 325 524 send to statistics or so;
#X obj 36 74 r /pde/\$1/send;
#X obj 260 326 print /pde/\$1/sent;
#X obj 260 234 r /pde/\$1/v;
#X obj 157 71 bng 15 250 50 0 empty empty empty 17 7 0 10 -262144 -1
-1;
#X obj 254 47 loadbang;
#X obj 262 114 del 1000;
#X text 38 4 pde_send <devicenr> [<ip address> [<port>]];
#X obj 338 91 symbol \$2;
#X obj 413 90 i \$3;
#X obj 406 54 bng 15 250 50 0 empty empty empty 17 7 0 10 -262144 -1
-1;
#X obj 413 112 sel 0;
#X obj 108 332 i 6000;
#X msg 410 144 \$1x;
#X obj 413 166 route x;
#X obj 411 238 makefilename 192.168.10.%d;
#X obj 413 191 i \$1;
#X obj 413 213 + 128;
#X text 406 258 default IP;
#X text 444 142 if empty;
#X obj 99 530 s /pde/send_status;
#X obj 221 503 s /pde/\$1/send_status;
#X msg 484 209 6000;
#X obj 342 49 t b b;
#X obj 412 278 pack s f;
#X obj 304 439 select 0;
#X obj 304 461 del 10000;
#X obj 100 478 netsend -u -b;
#X obj 173 134 pp send;
#X connect 0 0 22 0;
#X connect 1 0 0 1;
#X connect 2 0 0 0;
#X connect 2 0 47 0;
#X connect 3 0 0 0;
#X connect 3 0 47 0;
#X connect 4 0 3 0;
#X connect 5 0 4 0;
#X connect 6 0 5 0;
#X connect 6 1 32 0;
#X connect 7 0 11 1;
#X connect 8 0 5 1;
#X connect 8 1 32 1;
#X connect 9 0 16 0;
#X connect 9 1 2 0;
#X connect 9 2 48 0;
#X connect 10 0 40 0;
#X connect 11 0 0 0;
#X connect 11 0 47 0;
#X connect 12 0 11 0;
#X connect 12 0 0 0;
#X connect 15 1 8 0;
#X connect 16 0 15 0;
#X connect 16 1 2 0;
#X connect 16 1 18 0;
#X connect 18 0 6 0;
#X connect 21 0 9 0;
#X connect 23 0 1 0;
#X connect 24 0 16 0;
#X connect 25 0 26 0;
#X connect 25 0 29 0;
#X connect 25 0 28 0;
#X connect 25 0 43 0;
#X connect 26 0 24 0;
#X connect 28 0 33 0;
#X connect 29 0 31 0;
#X connect 30 0 43 0;
#X connect 31 1 42 0;
#X connect 32 0 4 1;
#X connect 33 0 34 0;
#X connect 34 0 36 0;
#X connect 35 0 44 0;
#X connect 36 0 37 0;
#X connect 37 0 35 0;
#X connect 42 0 44 1;
#X connect 43 0 28 0;
#X connect 43 1 29 0;
#X connect 44 0 8 0;
#X connect 45 0 46 0;
#X connect 46 0 24 0;
#X connect 47 0 10 0;
#X connect 47 0 7 0;
#X connect 47 0 41 0;
#X connect 47 0 45 0;
#X connect 48 0 11 0;
