#N canvas 0 0 298 272 10;
#X obj -57 116 t f f f f;
#X obj -14 148 >> 8;
#X obj -12 172 & 255;
#X obj -55 171 & 255;
#X obj 30 173 & 255;
#X obj 74 173 & 255;
#X obj 28 149 >> 16;
#X obj 72 149 >> 24;
#X obj -53 74 inlet;
#X obj -57 213 outlet;
#X obj -8 213 outlet;
#X obj 42 212 outlet;
#X obj 91 212 outlet;
#X text 32 89 word to bytes;
#X text -54 45 Bug: only 24 Bytes are in a float stored;
#X text -61 241 GPL: (c) algorythmics \, winfried ritsch;
#X text -52 30 PD Escher Lib: convert a word (float) to bytes;
#X text -52 3 pde_w2b;
#X connect 0 0 3 0;
#X connect 0 1 1 0;
#X connect 0 2 6 0;
#X connect 0 3 7 0;
#X connect 1 0 2 0;
#X connect 2 0 10 0;
#X connect 3 0 9 0;
#X connect 4 0 11 0;
#X connect 5 0 12 0;
#X connect 6 0 4 0;
#X connect 7 0 5 0;
#X connect 8 0 0 0;
