#N canvas 0 0 450 300 10;
#X obj 33 21 inlet ms;
#X obj 35 245 outlet h;
#X obj 99 245 outlet m;
#X obj 163 246 outlet s;
#X obj 229 245 outlet ms;
#X obj 228 213 % 1000;
#X obj 34 75 * 0.001;
#X obj 166 213 % 60;
#X obj 34 118 / 60;
#X obj 107 211 % 60;
#X obj 36 165 / 60;
#X text 101 30 ms;
#X text 138 182 mtcms;
#X text 139 69 converter;
#X obj 30 203 int;
#X connect 0 0 5 0;
#X connect 0 0 6 0;
#X connect 5 0 4 0;
#X connect 6 0 7 0;
#X connect 6 0 8 0;
#X connect 7 0 3 0;
#X connect 8 0 9 0;
#X connect 8 0 10 0;
#X connect 9 0 2 0;
#X connect 10 0 14 0;
#X connect 14 0 1 0;
