#N canvas 4 58 550 680 10;
#X text 106 1 MIDI Time Codes (at the moment only full message);
#X obj 116 58 route 240 247;
#X obj 122 123 spigot;
#X msg 116 89 1;
#X msg 150 90 0;
#X obj 201 187 + 1;
#X obj 117 182 int 0;
#X msg 194 153 0;
#X text 226 153 reset;
#X obj 57 285 == 127;
#X obj 108 284 == 127;
#X obj 56 308 &&;
#X obj 54 333 sel 0;
#X obj 114 249 route 0 1 2 3 4 5 6 7 8 9 10;
#X obj 115 222 pack 0 0;
#X obj 116 157 t b f;
#X obj 158 321 i;
#X obj 93 385 pack 0 0 1 2 3 4 5 6 7 8;
#X text 123 400 <cmd> <counted> <data 1...N>;
#X text 238 42 Command: 7F Realtime Message 7F for all channels <sub-id1>
1 MIDI Time Code <sub-id2> 1 Full Message <00yy hhhh> yy frame rate
(0=24 \, 1=25 \, 2=30 \, 3=30no drop) <mn> minutes <sec> seconds <fr>
frames;
#X obj 95 430 route 1;
#X text 163 432 MIDI Time Code;
#X obj 92 457 route 7;
#X text 149 458 must have 8 other bytes;
#X obj 91 490 route 1;
#X text 156 489 Full Message;
#X obj 91 514 unpack 0 0 0 0;
#X text 299 615 sec;
#X text 255 615 min;
#X obj 92 537 t f f;
#X obj 89 583 >> 4;
#X obj 133 563 & 15;
#X text 167 566 1111;
#X obj 90 561 & 48;
#X text 38 561 110000;
#X obj 89 603 route 0 1 2 3;
#X msg 89 625 24;
#X msg 120 626 25;
#X msg 202 628 30;
#X msg 154 627 29.97;
#X obj 99 27 inlet sysex;
#X text 127 414 Now Split to differnt commands;
#X connect 1 0 3 0;
#X connect 1 0 7 0;
#X connect 1 1 4 0;
#X connect 1 1 7 0;
#X connect 1 1 16 0;
#X connect 1 2 2 0;
#X connect 2 0 15 0;
#X connect 3 0 2 1;
#X connect 4 0 2 1;
#X connect 5 0 6 1;
#X connect 6 0 5 0;
#X connect 6 0 14 0;
#X connect 6 0 17 1;
#X connect 7 0 6 1;
#X connect 9 0 11 0;
#X connect 10 0 11 1;
#X connect 11 0 12 0;
#X connect 12 0 7 0;
#X connect 13 0 10 0;
#X connect 13 1 9 0;
#X connect 13 2 16 1;
#X connect 13 3 17 2;
#X connect 13 4 17 3;
#X connect 13 5 17 4;
#X connect 13 6 17 5;
#X connect 13 7 17 6;
#X connect 13 8 17 7;
#X connect 13 9 17 8;
#X connect 13 10 17 9;
#X connect 14 0 13 0;
#X connect 15 0 6 0;
#X connect 15 1 14 1;
#X connect 16 0 17 0;
#X connect 17 0 20 0;
#X connect 20 0 22 0;
#X connect 22 0 24 0;
#X connect 24 0 26 0;
#X connect 26 0 29 0;
#X connect 29 0 33 0;
#X connect 29 1 31 0;
#X connect 30 0 35 0;
#X connect 33 0 30 0;
#X connect 35 0 36 0;
#X connect 35 1 37 0;
#X connect 35 2 39 0;
#X connect 35 3 38 0;
#X connect 40 0 1 0;
