#N canvas 283 250 340 295 10;
#X obj 78 136 * 1000;
#X obj 78 164 +;
#X obj 60 110 * 60000;
#X obj 40 85 * 3.6e+06;
#X obj 64 187 +;
#X obj 46 211 +;
#X obj 26 32 inlet;
#X obj 75 33 inlet;
#X obj 120 33 inlet;
#X obj 172 31 inlet;
#X text 24 10 h;
#X text 76 12 min;
#X text 121 13 sec;
#X obj 48 251 outlet;
#X text 104 246 ms;
#X obj 250 32 inlet;
#X text 255 11 fps;
#X obj 244 129 /;
#X msg 244 106 1;
#X obj 243 82 t b f;
#X text 179 16 frames;
#X obj 137 109 * 0.04;
#X obj 136 132 * 1000;
#X connect 0 0 1 0;
#X connect 1 0 4 1;
#X connect 2 0 4 0;
#X connect 3 0 5 0;
#X connect 4 0 5 1;
#X connect 5 0 13 0;
#X connect 6 0 3 0;
#X connect 7 0 2 0;
#X connect 8 0 0 0;
#X connect 9 0 21 0;
#X connect 15 0 19 0;
#X connect 17 0 21 1;
#X connect 18 0 17 0;
#X connect 19 0 18 0;
#X connect 19 1 17 1;
#X connect 21 0 22 0;
#X connect 22 0 1 1;
