#N canvas 244 313 382 357 10;
#X text 170 39 get_ticks ?;
#X obj 18 277 outlet;
#X obj 144 18 inlet timestamp;
#X obj 21 11 inlet hold;
#X obj 18 255 pack 0 0 0 0 2 64 0 0;
#X text 8 297 <timestamp(4B)> <type(1B)> <hold0..10% (1B)> 0 0;
#X obj 20 94 max 1;
#X obj 18 114 min 255;
#X text 25 58 0...255 => 0...100%;
#X obj 25 230 pde/w2b;
#X text 16 319 LGPL: (c) algorythmics \, winfried ritsch;
#X obj 18 141 t b b f;
#X obj 22 33 route float;
#X obj 92 115 route l m h;
#X msg 37 165 2;
#X obj 92 141 max 1;
#X obj 90 161 min 255;
#X obj 89 180 t b b f;
#X msg 106 200 4;
#X obj 149 144 max 1;
#X obj 147 164 min 255;
#X obj 146 183 t b b f;
#X obj 201 145 max 1;
#X obj 199 165 min 255;
#X obj 198 184 t b b f;
#X msg 163 203 5;
#X msg 215 204 6;
#X text 203 94 hold type = 2;
#X text 201 104 holdl type = 4;
#X text 202 125 holdh type = 6;
#X text 200 115 holdm type = 5;
#X connect 2 0 9 0;
#X connect 3 0 12 0;
#X connect 4 0 1 0;
#X connect 6 0 7 0;
#X connect 7 0 11 0;
#X connect 9 0 4 0;
#X connect 9 1 4 1;
#X connect 9 2 4 2;
#X connect 9 3 4 3;
#X connect 11 0 4 0;
#X connect 11 1 14 0;
#X connect 11 2 4 5;
#X connect 12 0 6 0;
#X connect 12 1 13 0;
#X connect 13 0 15 0;
#X connect 13 1 19 0;
#X connect 13 2 22 0;
#X connect 14 0 4 4;
#X connect 15 0 16 0;
#X connect 16 0 17 0;
#X connect 17 0 4 0;
#X connect 17 1 18 0;
#X connect 17 2 4 5;
#X connect 18 0 4 4;
#X connect 19 0 20 0;
#X connect 20 0 21 0;
#X connect 21 0 4 0;
#X connect 21 1 25 0;
#X connect 21 2 4 5;
#X connect 22 0 23 0;
#X connect 23 0 24 0;
#X connect 24 0 4 0;
#X connect 24 1 26 0;
#X connect 24 2 4 5;
#X connect 25 0 4 4;
#X connect 26 0 4 4;
