#N canvas 534 192 757 536 10;
#X msg 268 186 write hold\$1.txt;
#X obj 268 161 i \$1;
#X obj 268 114 r /piano/\$1/hold/save;
#X obj 18 111 r /piano/\$1/hold/recall;
#X obj 20 356 s /piano/\$1/hold;
#X obj 359 209 r /piano/\$1/hold;
#X obj 268 135 route bang;
#X obj 191 112 route bang;
#X obj 111 180 i \$1;
#X obj 191 91 r /piano/\$1/hold/load;
#X obj 286 408 pack 32 32 32 32;
#X msg 286 433 clear \, add hold \$1 \, add holdl \$2 \, add holdm
\$3 \, add holdh \$4;
#X obj 329 309 r /piano/\$1/holdl;
#X obj 329 337 t b f;
#X obj 366 360 t b f;
#X obj 368 339 r /piano/\$1/holdm;
#X obj 403 379 t b f;
#X obj 405 358 r /piano/\$1/holdh;
#X text 22 12 hold_store <pianonr>;
#X text 22 30 store hold values for each piano with pianonr;
#X text 23 46 hold for all hold register (backward compatible);
#X text 23 60 holdl \, holdm \, holdh for low \, mid and high register
individual (is overridden by hold for storage);
#X text 160 11 LGPL: (c) algorythmics \, winfried ritsch;
#X obj 20 260 route hold holdl holdm holdh;
#X obj 60 286 list prepend l;
#X obj 102 308 list prepend m;
#X obj 124 333 list prepend h;
#X text 438 57 shortcuts in hold store for GUI;
#X text 441 70 to make them act i sent them out to hold;
#X obj 368 262 s /piano/\$1/holdl;
#X obj 400 281 s /piano/\$1/holdm;
#X obj 458 298 s /piano/\$1/holdh;
#X obj 216 138 t b b;
#X obj 413 123 r /piano/\$1/hold/rheanr;
#X text 472 211 float or l m h;
#X obj 514 391 r /piano/\$1/holdl;
#X text 521 268 to GUI and;
#X text 506 329 from GUI;
#X obj 138 234 print x;
#X obj 359 230 route float;
#X obj 71 167 bng 15 250 50 0 empty empty empty 17 7 0 10 -262144 -1
-1;
#X obj 18 232 textfile;
#X msg 71 201 read ../../../data/hold-\$1.txt;
#X msg 30 186 bang;
#X msg 9 151 rewind \, bang \, bang;
#X text 437 9 FOR alternative FIRMWARE !;
#X connect 0 0 41 0;
#X connect 1 0 0 0;
#X connect 2 0 6 0;
#X connect 3 0 44 0;
#X connect 5 0 39 0;
#X connect 6 0 1 0;
#X connect 7 0 32 0;
#X connect 8 0 42 0;
#X connect 9 0 7 0;
#X connect 10 0 11 0;
#X connect 11 0 41 0;
#X connect 12 0 13 0;
#X connect 13 0 10 0;
#X connect 13 1 10 1;
#X connect 14 0 10 0;
#X connect 14 1 10 2;
#X connect 15 0 14 0;
#X connect 16 0 10 0;
#X connect 16 1 10 3;
#X connect 17 0 16 0;
#X connect 23 0 4 0;
#X connect 23 1 24 0;
#X connect 23 2 25 0;
#X connect 23 3 26 0;
#X connect 24 0 4 0;
#X connect 25 0 4 0;
#X connect 26 0 4 0;
#X connect 32 0 44 0;
#X connect 32 1 8 0;
#X connect 33 0 1 1;
#X connect 33 0 8 0;
#X connect 39 0 10 0;
#X connect 39 0 29 0;
#X connect 39 0 30 0;
#X connect 39 0 31 0;
#X connect 40 0 8 0;
#X connect 41 0 23 0;
#X connect 41 0 38 0;
#X connect 42 0 41 0;
#X connect 43 0 41 0;
#X connect 44 0 41 0;
