#N canvas 1596 297 723 592 10;
#X obj 305 113 r /piano/\$1/hold/save;
#X obj 3 113 r /piano/\$1/hold/recall;
#X obj 167 112 r /piano/\$1/hold/load;
#X text 22 12 hold_store <pianonr>;
#X text 22 30 store hold values for each piano with pianonr;
#X text 23 46 hold for all hold register (backward compatible);
#X text 23 60 holdl \, holdm \, holdh for low \, mid and high register
individual (is overridden by hold for storage);
#X text 160 11 LGPL: (c) algorythmics \, winfried ritsch;
#X obj 36 363 route hold holdl holdm holdh;
#X obj 75 389 list prepend l;
#X obj 118 411 list prepend m;
#X obj 140 436 list prepend h;
#X obj 37 472 s /piano/\$1/hold/val;
#X obj 35 517 r /piano/\$1/hold/val;
#X obj 34 545 s /piano/\$1/hold;
#X obj 35 334 list trim;
#X obj 536 248 sel -1;
#X msg 536 272 1000;
#X msg 536 199 symbol hold;
#X msg 496 317 list hold \$1;
#X obj 497 135 r /piano/\$1/hold/val;
#X obj 2 239 sel -1;
#X msg 2 186 symbol hold;
#X msg 2 261 hold not found;
#X obj 2 282 print /piano/\$1/hold/store;
#X text 217 409 Implemented only on new firmware;
#X obj 252 498 r /piano/\$1/hold/rheanr;
#X obj 252 519 makefilename holds/hold-%d.txt;
#X text 250 471 read initial hold file for piano_nr in path;
#X msg 193 251 read \$1;
#X obj 191 225 symbol holds/hold.txt;
#X obj 333 224 symbol holds/hold.txt;
#X msg 335 250 write \$1;
#X obj 305 134 route bang symbol;
#X obj 166 199 t b s;
#X text 31 495 for backwards compatibility;
#X obj 494 163 t f b;
#X text 502 109 set hold in text storage;
#X obj 249 354 print /piano/\$1/hold/store;
#X obj 192 285 text define -k hold-\$1;
#A set hold 36 \;;
#X obj 537 223 text search hold-\$1;
#X obj 2 210 text search hold-\$1;
#X obj 36 313 text get hold-\$1;
#X obj 496 347 text set hold-\$1;
#X obj 187 157 r /piano/\$1/hold/read;
#X obj 166 133 route bang;
#X obj 251 542 s /piano/\$1/hold/read;
#X obj 228 317 list prepend hold.txt;
#X connect 0 0 33 0;
#X connect 1 0 22 0;
#X connect 2 0 45 0;
#X connect 8 0 12 0;
#X connect 8 1 9 0;
#X connect 8 2 10 0;
#X connect 8 3 11 0;
#X connect 9 0 12 0;
#X connect 10 0 12 0;
#X connect 11 0 12 0;
#X connect 13 0 14 0;
#X connect 15 0 8 0;
#X connect 16 0 17 0;
#X connect 16 1 43 1;
#X connect 17 0 43 1;
#X connect 18 0 40 0;
#X connect 19 0 43 0;
#X connect 20 0 36 0;
#X connect 21 0 23 0;
#X connect 21 1 42 0;
#X connect 22 0 41 0;
#X connect 23 0 24 0;
#X connect 26 0 27 0;
#X connect 27 0 46 0;
#X connect 29 0 39 0;
#X connect 29 0 47 1;
#X connect 30 0 29 0;
#X connect 31 0 32 0;
#X connect 31 0 30 0;
#X connect 32 0 39 0;
#X connect 32 0 38 0;
#X connect 33 0 31 0;
#X connect 33 1 31 0;
#X connect 34 0 22 0;
#X connect 34 1 30 0;
#X connect 36 0 19 0;
#X connect 36 1 18 0;
#X connect 40 0 16 0;
#X connect 41 0 21 0;
#X connect 42 0 15 0;
#X connect 42 0 47 0;
#X connect 44 0 34 0;
#X connect 45 0 34 0;
#X connect 47 0 38 0;
