#N canvas 345 70 770 678 10;
#X obj 305 200 i \$1;
#X obj 305 113 r /piano/\$1/hold/save;
#X obj 3 113 r /piano/\$1/hold/recall;
#X obj 305 134 route bang;
#X obj 166 133 route bang;
#X obj 193 227 i \$1;
#X obj 167 112 r /piano/\$1/hold/load;
#X text 22 12 hold_store <pianonr>;
#X text 22 30 store hold values for each piano with pianonr;
#X text 23 46 hold for all hold register (backward compatible);
#X text 23 60 holdl \, holdm \, holdh for low \, mid and high register
individual (is overridden by hold for storage);
#X text 160 11 LGPL: (c) algorythmics \, winfried ritsch;
#X obj 6 478 route hold holdl holdm holdh;
#X obj 46 504 list prepend l;
#X obj 88 526 list prepend m;
#X obj 110 551 list prepend h;
#X obj 326 162 r /piano/\$1/hold/rheanr;
#X text 220 278 float;
#X msg 193 252 read ../../../data/holds/hold-\$1.txt;
#X msg 271 320 write ../../../data/holds/hold-\$1.txt;
#X obj 7 587 s /piano/\$1/hold/val;
#X obj 305 395 r /piano/\$1/hold/val;
#X obj 274 464 s /piano/\$1/hold;
#X obj 97 152 bng 15 250 50 0 empty empty empty 17 7 0 10 -262144 -1
-1;
#X obj 98 424 text define -k hold;
#A set hold 37 \;;
#X obj 5 428 text get hold;
#X obj 5 449 list trim;
#X obj 166 199 t b f;
#X obj 568 178 sel -1;
#X msg 568 202 1000;
#X obj 507 91 t b f b;
#X obj 567 141 text search hold;
#X obj 527 346 text set hold;
#X msg 567 117 symbol hold;
#X msg 527 246 list hold \$1;
#X obj 510 63 r /piano/\$1/hold/val;
#X obj 3 330 sel -1;
#X obj 3 303 text search hold;
#X msg 3 279 symbol hold;
#X msg 3 354 hold not found;
#X obj 3 375 print /piano/\$1/hold/store;
#X obj 158 591 print /piano/\$1/hold/store_out:;
#X text 334 182 better hold numbering needed;
#X text 195 518 Implemented only on new firmware;
#X connect 0 0 19 0;
#X connect 1 0 3 0;
#X connect 2 0 38 0;
#X connect 3 0 0 0;
#X connect 4 0 27 0;
#X connect 5 0 18 0;
#X connect 6 0 4 0;
#X connect 12 0 20 0;
#X connect 12 1 13 0;
#X connect 12 2 14 0;
#X connect 12 3 15 0;
#X connect 16 0 0 1;
#X connect 16 0 27 0;
#X connect 18 0 24 0;
#X connect 19 0 24 0;
#X connect 21 0 22 0;
#X connect 23 0 5 0;
#X connect 24 0 41 0;
#X connect 25 0 26 0;
#X connect 26 0 12 0;
#X connect 26 0 41 0;
#X connect 27 0 38 0;
#X connect 27 1 5 0;
#X connect 28 0 29 0;
#X connect 28 1 32 1;
#X connect 29 0 32 1;
#X connect 30 1 34 0;
#X connect 30 2 33 0;
#X connect 31 0 28 0;
#X connect 33 0 31 0;
#X connect 34 0 32 0;
#X connect 35 0 30 0;
#X connect 36 0 39 0;
#X connect 36 1 25 0;
#X connect 37 0 36 0;
#X connect 38 0 37 0;
#X connect 39 0 40 0;
