#N canvas 403 370 590 581 10;
#X obj 319 150 bng 25 250 50 0 empty empty empty 0 -6 0 8 -262144 -1
-1;
#X obj 59 397 unpack 0 0 0;
#X floatatom 49 420 5 0 0 3 length - -;
#X floatatom 98 420 5 0 0 3 width - -;
#X floatatom 148 420 5 0 0 3 height - -;
#X obj 96 314 bng 15 250 50 0 empty empty end_reached 20 7 0 10 -262144
-1 -1;
#X obj 319 179 openpanel;
#X obj 26 273 pix_film;
#X msg 158 180 0;
#X msg 30 137 1;
#X obj 126 67 bng 15 250 50 0 empty empty empty 17 7 0 10 -262144 -1
-1;
#X msg 122 174 1;
#X obj 195 123 t b b;
#X obj 30 110 del 50;
#X obj 116 245 spigot;
#X obj 27 245 gemhead 50;
#X obj 216 93 bng 15 250 50 0 empty empty empty 17 7 0 10 -262144 -1
-1;
#X obj 26 493 outlet;
#X obj 30 45 r /vi/film/\$1/start;
#X text 62 6 vi/film <ID> <filename default>;
#X obj 209 59 r /vi/film/\$1/stop;
#X obj 326 55 r /vi/film/\$1/frame;
#X msg 318 239 open media/sprachapparat.mp4;
#X obj 387 119 r /vi/film/\$1/open;
#X obj 387 142 route bang symbol;
#X obj 74 359 s /vi/film/\$1/end;
#X msg 316 206 set open \$1 \, bang;
#X floatatom 200 216 5 0 0 0 - - -;
#X msg 83 157 1;
#X obj 118 480 /;
#X floatatom 144 530 5 0 0 0 - - -;
#X obj 118 503 * 3;
#X floatatom 181 466 5 0 0 0 - - -;
#X obj 173 493 t b f;
#X floatatom 70 538 5 0 0 0 - - -;
#X obj 462 40 r /vi/film/\$1/auto;
#X msg 460 65 auto \$1;
#X obj 30 79 t b b b b b;
#X connect 0 0 6 0;
#X connect 1 0 2 0;
#X connect 1 1 3 0;
#X connect 1 2 4 0;
#X connect 3 0 29 0;
#X connect 4 0 29 1;
#X connect 6 0 26 0;
#X connect 7 0 17 0;
#X connect 7 1 1 0;
#X connect 7 2 5 0;
#X connect 8 0 14 1;
#X connect 9 0 14 1;
#X connect 9 0 15 0;
#X connect 10 0 37 0;
#X connect 11 0 14 1;
#X connect 12 0 11 0;
#X connect 12 1 8 0;
#X connect 13 0 9 0;
#X connect 14 0 7 1;
#X connect 15 0 7 0;
#X connect 16 0 12 0;
#X connect 18 0 37 0;
#X connect 20 0 12 0;
#X connect 21 0 14 0;
#X connect 22 0 7 0;
#X connect 23 0 24 0;
#X connect 24 0 6 0;
#X connect 24 1 26 0;
#X connect 26 0 22 0;
#X connect 27 0 14 0;
#X connect 28 0 7 1;
#X connect 29 0 31 0;
#X connect 29 0 34 0;
#X connect 31 0 30 0;
#X connect 32 0 33 0;
#X connect 33 0 31 0;
#X connect 33 1 31 1;
#X connect 35 0 36 0;
#X connect 36 0 7 0;
#X connect 37 0 13 0;
#X connect 37 1 11 0;
#X connect 37 2 28 0;
#X connect 37 3 8 0;
#X connect 37 4 22 0;
