#N canvas 767 292 450 300 10;
#X text 143 22 missingobject not updated \, so redone here;
#X obj 27 97 inlet;
#X obj 258 103 inlet;
#X obj 39 175 metro 40;
#X floatatom 80 62 5 0 0 0 - - -;
#X obj 83 104 /;
#X floatatom 83 125 5 0 0 0 - - -;
#X msg 83 83 1000 \$1;
#X obj 81 19 loadbang;
#X msg 81 40 25;
#X obj 39 196 i 0;
#X obj 87 199 + 1;
#X obj 39 248 outlet;
#X text 116 44 25 frames/sec;
#X connect 1 0 3 0;
#X connect 2 0 10 0;
#X connect 3 0 10 0;
#X connect 4 0 7 0;
#X connect 5 0 6 0;
#X connect 6 0 3 1;
#X connect 7 0 5 0;
#X connect 8 0 9 0;
#X connect 9 0 4 0;
#X connect 10 0 11 0;
#X connect 10 0 12 0;
#X connect 11 0 10 1;
