#N canvas 359 181 548 413 10;
#X text 62 33 gem_mouse_escape;
#X msg 52 316 \; /vi/view/create 0;
#X obj 52 292 del 5000;
#X text 113 293 5 sec then quit;
#X msg 75 270 stop;
#X obj 52 246 sel 1 0;
#X obj 129 176 s /vi/mouse/buttons;
#X msg 80 145 1 \$1;
#X msg 129 145 2 \$1;
#X msg 173 142 3 \$1;
#X text 89 55 generates a create 0 on mouse after 5 sec middle button
;
#X obj 42 197 s /vi/mouse/x;
#X obj 67 218 s /vi/mouse/y;
#X obj 65 114 gemmouse 1 1;
#X connect 2 0 1 0;
#X connect 4 0 2 0;
#X connect 5 0 2 0;
#X connect 5 1 4 0;
#X connect 7 0 6 0;
#X connect 8 0 6 0;
#X connect 9 0 6 0;
#X connect 13 0 11 0;
#X connect 13 1 12 0;
#X connect 13 2 7 0;
#X connect 13 3 5 0;
#X connect 13 3 8 0;
#X connect 13 4 9 0;
#X connect 13 4 5 0;
