#N canvas 508 105 616 382 10;
#N canvas 496 226 450 300 countdown 0;
#X msg 83 204 text \$1;
#X floatatom 84 183 5 0 0 0 counter - -;
#X obj 305 166 loadbang;
#X obj 43 47 gemhead 8;
#X msg 275 226 justify center middle;
#X obj 83 270 text3d;
#X text 232 159 int;
#X obj 89 108 r /vi/mo/\$1/countdown;
#X obj 242 69 select 1 0;
#X obj 242 46 r /vi/mo/\$1/pulse;
#X text 46 21 countdown in the middle;
#X msg 162 224 font dinmi.ttf;
#X msg 305 197 24;
#X obj 44 91 translateXYZ 0 0.18 0;
#X msg 242 91 0 0 0;
#X msg 289 91 1 1 1;
#X obj 89 132 + 0.5;
#X obj 87 154 int;
#X obj 42 70 color 1 1 1;
#X connect 0 0 5 0;
#X connect 1 0 0 0;
#X connect 2 0 1 0;
#X connect 2 0 11 0;
#X connect 2 0 12 0;
#X connect 2 0 4 0;
#X connect 3 0 18 0;
#X connect 4 0 5 0;
#X connect 7 0 16 0;
#X connect 8 0 14 0;
#X connect 8 1 15 0;
#X connect 11 0 5 0;
#X connect 12 0 5 1;
#X connect 13 0 5 0;
#X connect 14 0 18 1;
#X connect 15 0 18 1;
#X connect 16 0 17 0;
#X connect 17 0 1 0;
#X connect 18 0 13 0;
#X restore 15 53 pd countdown;
#X obj 138 71 s /vi/mo/\$1/countdown;
#N canvas 587 213 588 469 start_countdown 0;
#X msg 178 76 1;
#X obj 180 129 f;
#X obj 178 49 r /loop/precount_start;
#X obj 178 209 s /loop/start;
#X msg 293 163 3;
#X msg 45 342 text \$1;
#X floatatom 46 321 5 0 0 0 counter - -;
#X obj 279 261 loadbang;
#X msg 199 352 justify center middle;
#X obj 45 408 text3d;
#X msg 181 321 font dinmi.ttf;
#X obj 5 87 spigot;
#X obj 4 119 color 1 1 0;
#X msg 313 75 0;
#X obj 214 129 - 1;
#X obj 178 99 metro 1000;
#X obj 178 159 < 1;
#X obj 178 184 sel 1;
#X obj 6 50 gemhead 16;
#X msg 238 383 100;
#X obj 3 233 translateXYZ 0 0.75 0;
#X obj 293 140 loadbang;
#X text 4 7 pre start countdown (3 - 2 - 1 - start);
#X connect 0 0 15 0;
#X connect 1 0 11 1;
#X connect 1 0 14 0;
#X connect 1 0 16 0;
#X connect 1 0 6 0;
#X connect 2 0 0 0;
#X connect 4 0 1 1;
#X connect 5 0 9 0;
#X connect 6 0 5 0;
#X connect 7 0 10 0;
#X connect 7 0 19 0;
#X connect 7 0 8 0;
#X connect 8 0 9 0;
#X connect 10 0 9 0;
#X connect 11 0 12 0;
#X connect 12 0 20 0;
#X connect 13 0 15 0;
#X connect 14 0 1 1;
#X connect 15 0 1 0;
#X connect 16 0 17 0;
#X connect 17 0 4 0;
#X connect 17 0 13 0;
#X connect 17 0 3 0;
#X connect 18 0 11 0;
#X connect 19 0 9 1;
#X connect 20 0 9 0;
#X connect 21 0 4 0;
#X restore 15 74 pd start_countdown;
#X obj 177 44 bng 15 250 50 0 empty empty empty 17 7 0 10 -262144 -1
-1;
#X text 277 38 Monitor is Text in 3 Lines and countdown;
#X text 205 139 uses screen parameter;
#X text 16 25 vi/monitor <num> <screen id>;
#X obj 427 96 loadbang;
#X msg 427 119 36;
#X obj 427 142 s /vi/mo/\$1/line/width;
#X obj 261 184 text_line 1 7 \$2 line-1;
#X obj 257 159 text_line 0 7 \$2 123456789_123456789_123456789_123456
;
#X obj 258 209 text_line 2 7 \$2 line-2;
#X obj 260 235 text_line 3 7 \$2 line-3;
#X obj 258 262 text_line 4 7 \$2 line-4;
#X obj 255 292 text_line 5 7 \$2 line-5;
#X obj 252 322 text_line 6 7 \$2 line-6;
#X obj 249 353 text_line 7 7 \$2 line-7;
#X connect 3 0 1 0;
#X connect 7 0 8 0;
#X connect 8 0 9 0;
