#N canvas 81 468 450 300 10;
#X obj 21 124 pix_texture;
#X obj 21 95 pix_video;
#X obj 30 262 rectangle 0.4 0.3;
#X obj 21 70 gemhead;
#X obj 162 234 * 3;
#X obj 130 231 * 4;
#X obj 131 201 r /vi/video/size;
#X floatatom 279 146 5 0 0 0 - - -;
#X obj 28 177 translate 1 16 9 0;
#X obj 87 149 r /vi/video/translate;
#X obj 192 7 loadbang;
#X msg 191 32 \; /vi/video/size 0.2 \; /vi/video/translate -0.27 \;
/vi/video/on 0;
#X obj 21 48 r /vi/video/on;
#X obj 198 224 r /vi/video/format;
#X obj 198 246 unpack 4 3;
#X connect 0 0 8 0;
#X connect 1 0 0 0;
#X connect 3 0 1 0;
#X connect 4 0 2 2;
#X connect 5 0 2 1;
#X connect 6 0 5 0;
#X connect 6 0 4 0;
#X connect 7 0 8 1;
#X connect 8 0 2 0;
#X connect 9 0 8 1;
#X connect 10 0 11 0;
#X connect 12 0 3 0;
#X connect 13 0 14 0;
#X connect 14 0 5 1;
#X connect 14 1 4 1;
