#N canvas 1289 156 450 300 10;
#X text 342 114 get_ticks ?;
#X obj 8 244 outlet;
#X text 41 128 playnote type = 0;
#X obj 332 36 inlet timestamp;
#X obj 319 160 pde/w2b;
#X obj 7 18 inlet bang;
#X msg 15 127 3;
#X obj 7 99 t b b;
#X obj 7 212 pack 0 0 0 0 3 0 0 0;
#X text -2 264 <timestamp(4B)> <type(1B)> <dummy(3B)>;
#X text 11 38 command to request a statistical info;
#X connect 3 0 4 0;
#X connect 4 0 8 0;
#X connect 4 1 8 1;
#X connect 4 2 8 2;
#X connect 4 3 8 3;
#X connect 5 0 7 0;
#X connect 6 0 8 4;
#X connect 7 0 8 0;
#X connect 7 1 6 0;
#X connect 8 0 1 0;
