#N canvas 167 399 450 300 10;
#X obj -94 147 f \$1;
#X obj -71 113 bng 15 250 50 0 empty empty empty 17 7 0 10 -262144
-1 -1;
#X obj -94 86 loadbang;
#X obj 12 75 r pde_reconnect;
#X text -108 5 pde_connect_init <board nr>;
#X text -108 23 PD Escher example: connect to default ips (example)
RheaPlayer OS;
#X text -90 279 GPL: (c) algorythmics \, winfried ritsch;
#X obj 74 181 symbol \$2;
#X obj 12 99 route bang;
#X obj 13 122 route \$1;
#X text 142 169 port;
#X obj 140 186 i \$3;
#X text 83 162 ip;
#X obj 12 143 t b;
#X text 81 147 not used anymore in pd/send.pd now;
#X text -76 52 needs a corresponding pde/send;
#X msg -95 233 \; /pde/\$1/send connect;
#X connect 0 0 16 0;
#X connect 1 0 0 0;
#X connect 2 0 0 0;
#X connect 3 0 8 0;
#X connect 8 0 0 0;
#X connect 8 1 9 0;
#X connect 9 0 13 0;
#X connect 13 0 0 0;
