#N canvas 254 15 450 300 10;
#X obj 101 101 cnv 15 198 48 empty empty empty 20 12 0 14 -260097 -66577
0;
#X floatatom 233 121 0 0 0 0 - - -;
#X floatatom 207 121 0 0 0 0 - - -;
#X text 233 136 min;
#X obj 114 46 metro 1000;
#X obj 102 101 tgl 15 0 empty empty empty 17 7 0 10 -262144 -1 -1 0
1;
#X text 207 137 h;
#X floatatom 108 121 0 0 0 0 - - -;
#X floatatom 134 121 0 0 0 0 - - -;
#X floatatom 160 121 0 0 0 0 - - -;
#X text 120 138 DATUM;
#X obj 71 320 sel 0 10 20 30 40 50;
#X msg 87 370 \; pl_race 30;
#X obj 211 173 change;
#X floatatom 259 121 0 0 0 0 - - -;
#X text 261 137 sec;
#X obj 188 80 time ____;
#X obj 108 79 date _____;
#X obj 208 25 loadbang;
#X msg 207 45 1;
#X text 156 101 Zeitsteuerung;
#X msg 39 416 \; clplay 1 32 \; clplay 33 22 \; clplay 145 32 \; clplay
209 32;
#X msg 185 417 \; clplay 97 24 \; clplay 121 24;
#X msg 338 374 \; pl_race 30;
#X msg 169 370 \; pl_race 50;
#X msg 256 372 \; pl_race 70;
#X obj 316 220 t b;
#X obj 307 130 bng 15 250 50 0 empty empty empty 17 7 0 10 -262144
-1 -1;
#X msg 371 199 \; pl_walk 90 20;
#X obj 316 246 del 240;
#X msg 378 252 \; pl_walk 0;
#X connect 1 0 13 0;
#X connect 4 0 16 0;
#X connect 4 0 17 0;
#X connect 5 0 4 0;
#X connect 11 0 21 0;
#X connect 11 1 12 0;
#X connect 11 2 24 0;
#X connect 11 3 22 0;
#X connect 11 4 25 0;
#X connect 11 5 23 0;
#X connect 11 6 26 0;
#X connect 13 0 11 0;
#X connect 16 0 2 0;
#X connect 16 1 1 0;
#X connect 16 2 14 0;
#X connect 17 0 9 0;
#X connect 17 1 8 0;
#X connect 17 2 7 0;
#X connect 18 0 19 0;
#X connect 19 0 5 0;
#X connect 26 0 28 0;
#X connect 26 0 29 0;
#X connect 27 0 26 0;
#X connect 29 0 30 0;
#X coords 0 -1 1 1 200 50 1 100 100;
