#N canvas 713 138 490 633 10;
#X obj 7 106 route \$1;
#X obj 7 129 unpack 1 2 3 4;
#X obj 7 403 t b;
#X obj 27 319 spigot;
#X obj 11 76 list split 12;
#X obj 11 54 route 0;
#X obj 27 340 list prepend \$1;
#X obj 8 485 t b b;
#X text 117 281 store ip;
#X text 102 77 throw away header;
#X obj 242 197 change;
#X obj 242 166 t f f;
#X obj 27 295 pack 0 1 2 3 4;
#X obj 242 220 sel 1 0;
#X msg 260 247 0 0 0 0 0;
#X obj 8 463 del 12000;
#X obj 8 439 spigot;
#X obj 27 360 s /pde/ips;
#X obj 36 418 r /pde/auto;
#X text -13 383 global autoconnect;
#X obj 11 30 r /pde/ctlport;
#X text 67 56 take alive message;
#X text 68 106 for selected board;
#X text 102 127 IP is sent;
#X text 14 -29 pde/dedect <board nr>;
#X obj 114 143 r /pde/get_ips;
#X obj 244 142 r /pde/board/\$1/online;
#X obj 240 117 s /pde/board/\$1/online;
#X text 101 87 (in every message from any board the IP is sent);
#X text 131 344 for gui and general statistic;
#X text 130 299 <board nr><online status><addr0><addr1><addr2><addr3>
;
#X obj 26 266 i 0;
#X obj 82 470 s /pde/board/\$1/online;
#X msg 82 449 1;
#X msg 35 506 0;
#X text 8 541 send connect/reconnect;
#X obj 524 205 r /pde/board/\$1/online;
#X text 13 -9 parse alive message to detect boards on the net;
#X text 15 9 autoconnect them if a /pde/<nr>/send object exists;
#X connect 0 0 1 0;
#X connect 1 0 2 0;
#X connect 1 0 12 1;
#X connect 1 1 12 2;
#X connect 1 2 12 3;
#X connect 1 3 12 4;
#X connect 2 0 16 0;
#X connect 2 0 33 0;
#X connect 3 0 6 0;
#X connect 4 1 0 0;
#X connect 5 0 4 0;
#X connect 6 0 17 0;
#X connect 7 1 34 0;
#X connect 10 0 13 0;
#X connect 11 0 10 0;
#X connect 11 1 3 1;
#X connect 11 1 31 1;
#X connect 12 0 3 0;
#X connect 13 0 31 0;
#X connect 13 1 14 0;
#X connect 14 0 6 0;
#X connect 15 0 7 0;
#X connect 16 0 15 0;
#X connect 18 0 16 1;
#X connect 20 0 5 0;
#X connect 25 0 31 0;
#X connect 26 0 11 0;
#X connect 31 0 12 0;
#X connect 33 0 32 0;
#X connect 34 0 32 0;
#X coords 0 0 1 1 200 50 0;
