#N canvas 30 435 467 388 10;
#X obj 11 36 cnv 15 398 33 empty empty empty 20 12 0 14 -233017 -66577
0;
#X obj 287 -54 spigot;
#X obj 289 23 tgl 15 0 empty empty monitor_udp 17 7 0 10 -262144 -1
-1 1 1;
#X floatatom 288 45 3 0 0 0 - - -;
#X floatatom 308 45 3 0 0 0 - - -;
#X floatatom 328 45 3 0 0 0 - - -;
#X floatatom 348 45 3 0 0 0 - - -;
#X obj 287 -11 unpack 1 2 3 4;
#X text 312 55 IPs;
#X obj 394 -14 t f f;
#X obj 255 40 tgl 15 0 /pde/ctlport/v /pde/ctlport/v v_pde 0 -7 0 8
-241291 -1 -1 1 1;
#X obj 35 141 bng 15 250 50 0 /pde/reconnect /pde/reconnect reconnect
17 7 0 10 -241291 -1 -1;
#X obj 188 43 tgl 15 0 /pde/auto /pde/auto auto 18 7 0 8 -24198 -1
-1 1 1;
#X text 22 180 GPL: (c) algorythmics \, winfried ritsch;
#X obj 287 -79 r /pde/ctlport/udpinfo;
#X text 44 -108 auto functionality needs object connect_auto somewhere
;
#X text 35 -168 pde/portctl_gui;
#X text 34 -140 GUI for pde/portctl \, see there;
#X obj 25 -83 r /pde/ctlport;
#X text 18 121 not implemented;
#X obj 25 -61 t b;
#X obj 29 44 bng 15 250 50 0 empty empty activity 0 -7 0 10 -262144
-1 -1;
#X obj 25 -35 spigot 1;
#X msg 38 -9 0;
#X msg 69 -9 1;
#X text 106 -13 speedlimit;
#X obj 287 -33 route from received;
#X floatatom 372 45 5 0 0 0 - - -;
#X text 374 56 bytes;
#X obj 81 -34 del 500;
#X obj 175 -9 timer;
#X obj 175 -32 t b b;
#X obj 49 46 nbx 5 14 -1e+37 1e+37 0 0 empty empty empty 0 -8 0 10
-262144 -1 -1 10002 256;
#X text 91 34 ms;
#X connect 1 0 26 0;
#X connect 2 0 9 0;
#X connect 7 0 3 0;
#X connect 7 1 4 0;
#X connect 7 2 5 0;
#X connect 7 3 6 0;
#X connect 9 0 3 0;
#X connect 9 0 4 0;
#X connect 9 0 5 0;
#X connect 9 0 6 0;
#X connect 9 1 1 1;
#X connect 14 0 1 0;
#X connect 18 0 20 0;
#X connect 20 0 22 0;
#X connect 22 0 21 0;
#X connect 22 0 23 0;
#X connect 22 0 29 0;
#X connect 22 0 31 0;
#X connect 23 0 22 1;
#X connect 24 0 22 1;
#X connect 26 0 7 0;
#X connect 26 1 27 0;
#X connect 29 0 24 0;
#X connect 30 0 32 0;
#X connect 31 0 30 0;
#X connect 31 1 30 1;
#X coords 0 -1 1 1 400 50 1 10 20;
