#N canvas 272 84 643 607 10;
#X obj 213 450 spigot;
#X msg 122 412 disconnect;
#X msg 32 412 connect \$1 \$2;
#X obj 32 384 pack s f;
#X obj 32 299 symbol \$2;
#X obj 32 229 t b b;
#X obj 84 233 unpack s f;
#X obj 35 101 route connect disconnect;
#X obj 32 519 list prepend \$1;
#X obj 213 413 spigot;
#X obj 213 80 inlet;
#X text 37 20 PD Escher Lib: connect \, disconnect \, send a message
to RheaPlayer OS;
#X text 25 584 GPL: (c) algorythmics \, winfried ritsch;
#X obj 34 150 route bang;
#X obj 38 127 t a b;
#X text 117 154 connect <ip> <port> or bang for reconnect;
#X obj 32 197 del 20;
#X text 84 196 wait 20ms to flush the buffer if needed;
#X text 184 496 send to statistics or so;
#X obj 36 74 r /pde/\$1/send;
#X obj 213 476 print /pde/\$1/sent;
#X obj 265 424 r /pde/\$1/v;
#X text 38 4 pde_send <devicenr> [<ip address> [<port>]];
#X obj 386 132 symbol \$2;
#X obj 447 110 i \$3;
#X obj 447 132 sel 0;
#X obj 108 297 i 6000;
#X msg 402 184 \$1x;
#X text 452 291 default IP;
#X text 485 152 if empty;
#X obj 32 541 s /pde/send_status;
#X obj 51 496 s /pde/\$1/send_status;
#X msg 474 185 6000;
#X obj 386 88 t b b;
#X obj 387 298 pack s f;
#X obj 380 507 del 10000;
#X obj 32 474 netsend -u -b;
#X obj 213 388 pp send;
#X obj 380 461 select 0 1;
#X msg 408 484 stop;
#X obj 265 391 r /pde/\$1/send_status;
#X obj 380 554 s /pde/\$1/send;
#X msg 380 531 connect bang;
#X obj 386 67 loadbang;
#X obj 387 344 s /pde/\$1/send;
#X msg 387 321 connect \$1 \$2;
#X obj 386 153 t s s;
#X obj 400 206 route x;
#X obj 425 234 t b;
#X msg 425 255 1;
#X obj 385 276 spigot 0;
#X text 378 419 if not connected try again in 10 seconds;
#X text 166 540 for old compatibility;
#X obj 380 439 r /pde/\$1/send_status;
#X connect 0 0 20 0;
#X connect 1 0 36 0;
#X connect 1 0 20 0;
#X connect 2 0 0 0;
#X connect 2 0 36 0;
#X connect 2 0 20 0;
#X connect 3 0 2 0;
#X connect 4 0 3 0;
#X connect 5 0 4 0;
#X connect 5 1 26 0;
#X connect 6 0 4 0;
#X connect 6 1 26 0;
#X connect 7 0 14 0;
#X connect 7 1 1 0;
#X connect 7 2 37 0;
#X connect 8 0 30 0;
#X connect 9 0 0 0;
#X connect 9 0 36 0;
#X connect 10 0 37 0;
#X connect 13 0 16 0;
#X connect 13 1 6 0;
#X connect 14 0 13 0;
#X connect 14 1 1 0;
#X connect 16 0 5 0;
#X connect 19 0 7 0;
#X connect 21 0 0 1;
#X connect 23 0 46 0;
#X connect 24 0 25 0;
#X connect 25 0 32 0;
#X connect 26 0 3 1;
#X connect 27 0 47 0;
#X connect 32 0 34 1;
#X connect 33 0 23 0;
#X connect 33 1 24 0;
#X connect 34 0 45 0;
#X connect 35 0 42 0;
#X connect 36 0 8 0;
#X connect 36 0 31 0;
#X connect 37 0 9 0;
#X connect 38 0 35 0;
#X connect 38 1 39 0;
#X connect 39 0 35 0;
#X connect 40 0 9 1;
#X connect 42 0 41 0;
#X connect 43 0 33 0;
#X connect 45 0 44 0;
#X connect 46 0 50 0;
#X connect 46 1 27 0;
#X connect 47 1 48 0;
#X connect 48 0 49 0;
#X connect 49 0 50 1;
#X connect 50 0 34 0;
#X connect 53 0 38 0;
