#N canvas 1088 610 755 327 10;
#X obj 101 116 cnv 15 198 33 empty empty empty 20 12 0 14 -233017 -66577
0;
#X obj 131 -95 list split 4;
#X obj 169 -73 list split 4;
#X obj 209 -47 list split 4;
#X obj 442 13 unpack 1 2 3 4;
#X obj 249 -21 list split 4;
#X text 228 -94 max;
#X text 265 -75 min;
#X text 305 -50 count;
#X text 331 -32 time;
#X text 337 -14 TPS;
#X obj 328 22 unpack 1 2 3 4;
#X obj 213 23 unpack 1 2 3 4;
#X floatatom 147 121 7 0 0 0 - - -;
#X obj 102 22 unpack 1 2 3 4;
#X floatatom 103 121 7 0 0 0 - - -;
#X text 331 64 count;
#X text 447 59 timeused;
#X obj 404 117 /;
#X obj 400 72 t b f;
#X obj 399 92 i 0;
#X floatatom 191 121 7 0 0 0 - - -;
#X obj 16 -25 list split 2;
#X obj 9 33 list split 4;
#X obj 559 14 unpack 1 2 3 4;
#X obj 396 -29 list split 4;
#X text 484 -22 TPS;
#X obj 560 116 /;
#X floatatom 243 119 7 0 0 0 - - -;
#X msg 561 92 1e+06 \$1;
#X text 147 133 min;
#X text 190 134 mean;
#X obj 102 71 * 6.4;
#X obj 213 71 * 6.4;
#X obj 260 83 * 6.4;
#X obj 16 -49 route 2;
#X obj 15 5 route \$1;
#X text 310 -89 parse and show statistics collected by escher board
(escher_lib V0.1);
#X obj 102 44 pde/b2w;
#X obj 213 45 pde/b2w;
#X obj 328 44 pde/b2w;
#X obj 442 35 pde/b2w;
#X obj 559 36 pde/b2w;
#X obj 16 -70 r /pde/ctlport;
#X text 78 -47 statistic;
#X text 75 6 select board;
#X text 8 53 throw header;
#X text 556 135 tickspersecond;
#X text 242 131 ticks/sec;
#X text 100 107 usec;
#X text 103 132 max;
#X text 13 -110 pde/statistic_gui <board nr>;
#X text 15 171 LGPL (c) 2010 algorythmics;
#X connect 1 0 14 0;
#X connect 1 1 2 0;
#X connect 2 0 12 0;
#X connect 2 1 3 0;
#X connect 3 0 11 0;
#X connect 3 1 5 0;
#X connect 4 0 41 0;
#X connect 4 1 41 1;
#X connect 4 2 41 2;
#X connect 4 3 41 3;
#X connect 5 0 4 0;
#X connect 5 1 25 0;
#X connect 11 0 40 0;
#X connect 11 1 40 1;
#X connect 11 2 40 2;
#X connect 11 3 40 3;
#X connect 12 0 39 0;
#X connect 12 1 39 1;
#X connect 12 2 39 2;
#X connect 12 3 39 3;
#X connect 14 0 38 0;
#X connect 14 1 38 1;
#X connect 14 2 38 2;
#X connect 14 3 38 3;
#X connect 18 0 34 0;
#X connect 19 0 20 0;
#X connect 19 1 18 1;
#X connect 20 0 18 0;
#X connect 22 1 36 0;
#X connect 23 1 1 0;
#X connect 24 0 42 0;
#X connect 24 1 42 1;
#X connect 24 2 42 2;
#X connect 24 3 42 3;
#X connect 25 0 24 0;
#X connect 27 0 32 1;
#X connect 27 0 33 1;
#X connect 27 0 34 1;
#X connect 27 0 28 0;
#X connect 29 0 27 0;
#X connect 32 0 15 0;
#X connect 33 0 13 0;
#X connect 34 0 21 0;
#X connect 35 0 22 0;
#X connect 36 0 23 0;
#X connect 38 0 32 0;
#X connect 39 0 33 0;
#X connect 40 0 19 0;
#X connect 41 0 20 1;
#X connect 42 0 29 0;
#X connect 43 0 35 0;
#X coords 0 -1 1 1 200 50 1 100 100;
