#N canvas 616 251 450 300 10;
#X obj 26 38 inlet;
#X obj 26 145 outlet;
#X obj 26 58 s2l /;
#X obj 26 80 l2s _;
#X obj 26 122 l2s _;
#X obj 26 101 s2l :;
#X text 77 61 slashes not in filename;
#X text 75 42 simple try to get better naming;
#X text 41 178 acre lib \, (c) atelier algorythmics;
#X text 39 7 acre/filename_clean;
#X text 77 105 : some scripts cant handle;
#X connect 0 0 2 0;
#X connect 2 0 3 0;
#X connect 3 0 5 0;
#X connect 4 0 1 0;
#X connect 5 0 4 0;
