#N canvas 237 58 584 548 10;
#X obj 71 171 cnv 15 198 198 empty empty midifileplayer-\$1 2 8 0 10
-204786 -66577 0;
#X symbolatom 74 302 32 0 0 2 file /mifi/#1/filename -, f 32;
#N canvas 373 58 460 391 dt_edit 0;
#X obj 101 101 cnv 15 198 48 empty empty velocity 2 8 0 12 -204786
-66577 0;
#X obj 109 55 unpack 0 128 0 128;
#X floatatom 103 121 5 0 0 0 - - -, f 5;
#X floatatom 136 121 5 0 0 0 - - -, f 5;
#X floatatom 170 121 5 0 0 0 - - -, f 5;
#X floatatom 206 121 5 0 0 0 - - -, f 5;
#X text 105 133 von;
#X text 139 134 bis;
#X text 177 134 min;
#X text 213 135 max;
#X obj 106 225 pack 0 128 0 128;
#X obj 106 246 s \$1_dt;
#X obj 109 35 r \$1_dt;
#X msg 112 79 set \$1;
#X msg 168 78 set \$1;
#X msg 219 79 set \$1;
#X msg 276 78 set \$1;
#X obj 161 171 t b f;
#X obj 200 172 t b f;
#X obj 119 164 t b f;
#X obj 106 204 f 0;
#X obj 264 186 savepanel;
#X obj 264 126 bng 15 250 50 0 empty empty save 16 8 0 8 -262144 -1
-1;
#X obj 233 295 for++ 0 127 1;
#X obj 233 321 t f f;
#X obj 243 129 bng 15 250 50 0 empty empty lin 0 -6 0 8 -262144 -1
-1;
#X msg 264 205 write \$1;
#X text 218 104 veltab;
#X obj 264 224 s veltab-mifi-\$1;
#X obj 233 345 tabwrite veltab-mifi-\$1;
#X msg 264 162 symbol ./;
#X obj 348 69 tgl 15 0 /mifi/\$1/veltab/v /mifi/\$1/veltab/v veltab
17 7 0 10 -257985 -1 -1 0 1;
#X connect 1 0 13 0;
#X connect 1 0 20 1;
#X connect 1 1 14 0;
#X connect 1 1 10 1;
#X connect 1 2 15 0;
#X connect 1 2 10 2;
#X connect 1 3 16 0;
#X connect 1 3 10 3;
#X connect 2 0 20 0;
#X connect 3 0 19 0;
#X connect 4 0 17 0;
#X connect 5 0 18 0;
#X connect 10 0 11 0;
#X connect 12 0 1 0;
#X connect 13 0 2 0;
#X connect 14 0 3 0;
#X connect 15 0 4 0;
#X connect 16 0 5 0;
#X connect 17 0 20 0;
#X connect 17 1 10 2;
#X connect 18 0 20 0;
#X connect 18 1 10 3;
#X connect 19 0 20 0;
#X connect 19 1 10 1;
#X connect 20 0 10 0;
#X connect 21 0 26 0;
#X connect 22 0 30 0;
#X connect 23 0 24 0;
#X connect 24 0 29 0;
#X connect 24 1 29 1;
#X connect 25 0 23 0;
#X connect 26 0 28 0;
#X connect 30 0 21 0;
#X coords 0 -1 1 1 200 50 1 100 100;
#X restore 67 423 pd dt_edit \$1;
#X obj 111 284 bng 15 250 50 0 /mifi/\$1/open /mifi/\$1/open open 17
7 0 10 -262144 -1 -1;
#X obj 247 176 tgl 15 0 /mifi/\$1/loop /mifi/\$1/loop loop -25 7 0
10 -262144 -1 -1 0 1;
#X obj 73 190 bng 30 250 50 0 /mifi/\$1/start /mifi/\$1/start start
2 15 0 10 -4034 -1 -1;
#X obj 103 190 bng 30 250 50 0 /mifi/\$1/stop /mifi/\$1/stop stop 3
15 0 10 -191407 -1 -1;
#X obj 134 190 bng 30 250 50 0 /mifi/\$1/continue /mifi/\$1/continue
cont. 3 15 0 10 -228856 -1 -1;
#X obj 144 494 filename_shorten;
#X obj 74 236 nbx 9 14 0 1e+37 0 0 /mifi/\$1/locate /mifi/\$1/locate
locate 0 -8 0 10 -262144 -1 -1 0 256;
#X obj 168 237 nbx 4 14 -1e+37 1e+37 0 0 /mifi/\$1/tempo /mifi/\$1/tempo
tempo 0 -8 0 10 -262144 -1 -1 0 256;
#X obj 215 238 nbx 4 14 -1e+37 1e+37 0 0 /mifi/\$1/transpose /mifi/\$1/transpose
transpose 0 -8 0 10 -262144 -1 -1 0 256;
#X obj 70 256 ../time/time_ctl mifi-\$1;
#X obj 378 437 ../time/ms2time mifi-\$1;
#X obj 377 387 metro 100;
#X obj 375 364 tgl 15 0 empty empty empty 0 -6 0 8 -262144 -1 -1 0
1;
#X obj 473 338 loadbang;
#X obj 377 408 i 0;
#X obj 419 407 + 100;
#X obj 373 299 t b b;
#X msg 373 320 1;
#X msg 405 318 0;
#X msg 439 316 0;
#X obj 469 298 r \$1_mfend;
#X obj 183 185 tgl 15 0 /mifi/\$1/ctl/v /mifi/\$1/ctl/v v_mfctl 0 -6
0 8 -241291 -1 -1 0 1;
#X obj 245 207 tgl 15 0 v_mf v_mf v_mf 0 -6 0 8 -241291 -1 -1 0 1;
#X obj 70 320 ../veltab/ctl /mifi/\$1/veltab;
#X obj 370 258 r /mifi/\$1/start;
#X obj 434 277 r /mifi/\$1/stop;
#X obj 315 236 r /mifi/\$1/continue;
#X msg 395 364 0;
#X obj 164 283 bng 15 250 50 0 /mifi/\$1/load /mifi/\$1/load load 17
7 0 10 -4034 -1 -1;
#X obj 73 481 bng 15 250 50 0 /mifi/\$1/save /mifi/\$1/save save 17
7 0 10 -258113 -1 -1;
#X text 73 399 --- to be implemented ---;
#X text 360 201 Timer for GUI;
#X connect 14 0 17 0;
#X connect 15 0 14 0;
#X connect 16 0 30 0;
#X connect 17 0 18 0;
#X connect 17 0 13 0;
#X connect 18 0 17 1;
#X connect 19 0 20 0;
#X connect 19 1 21 0;
#X connect 20 0 15 0;
#X connect 21 0 17 1;
#X connect 22 0 15 0;
#X connect 23 0 22 0;
#X connect 27 0 19 0;
#X connect 28 0 22 0;
#X connect 29 0 20 0;
#X connect 30 0 15 0;
#X coords 0 -1 1 1 200 200 1 70 170;
