#N canvas 667 58 695 443 10;
#X text 29 -2 Notemin and notemax table is for adjusting individuals
notes on the piano which they can play minimal volume and maximal volume.
;
#X text 31 35 This is the storage for the tables with load and save
ctls;
#N canvas 473 90 601 375 init 0;
#X obj 33 27 loadbang;
#X obj 34 51 i \$1;
#X msg 124 33 \; /piano/\$1/notemins resize 128 \; /piano/\$1/notemins
bounds 0 600 127 0 \; /piano/\$1/notemins xticks 128 2 4 \; /piano/\$1/notemins
yticks 600 10 5 \; /piano/\$1/notemins xlabel -4 0 8 16 24 32 40 48
56 64 72 80 88 96 104 112 120 128 \; /piano/\$1/notemins ylabel -4
0 50 100 150 200 250 300 350 400 450 500 550 600 \;;
#X msg 89 152 \; /piano/\$1/notemaxs resize 128 \; /piano/\$1/notemaxs
bounds 0 600 127 0 \; /piano/\$1/notemaxs xticks 128 2 4 \; /piano/\$1/notemaxs
yticks 600 10 5 \; /piano/\$1/notemaxs xlabel -4 0 8 16 24 32 40 48
56 64 72 80 88 96 104 112 120 128 \; /piano/\$1/notemaxs ylabel -4
0 50 100 150 200 250 300 350 400 450 500 550 600 \;;
#X msg 31 282 \; /piano/\$1/notemins/linear bang \; /piano/\$1/notemaxs/linear
bang \; /piano/\$1/main_min 0 \; /piano/\$1/main_max 0 \;;
#X connect 0 0 1 0;
#X connect 1 0 2 0;
#X connect 1 0 3 0;
#X connect 1 0 4 0;
#X restore 34 88 pd init;
#X text 37 59 --- TABLES ---;
#X obj 34 107 table /piano/\$1/notemins;
#X obj 34 126 table /piano/\$1/notemaxs;
#N canvas 423 156 829 422 ctls 0;
#X msg 28 144 symbol data/;
#X obj 11 68 r /piano/\$1/notemins/read;
#X obj 31 284 s /piano/\$1/notemins;
#X text 53 -3 read from path or filename;
#X obj 28 178 openpanel;
#X msg 30 241 read \$1;
#X obj 11 89 route bang path symbol list;
#X msg 127 117 symbol \$1/\$2;
#X obj 174 282 print /piano/\$1/notemins;
#X msg 231 142 symbol data/;
#X obj 219 84 route bang path symbol list;
#X msg 311 175 symbol \$1/\$2;
#X msg 204 247 write \$1;
#X msg 477 157 symbol data/;
#X obj 476 189 openpanel;
#X msg 411 249 read \$1;
#X obj 420 79 route bang path symbol list;
#X msg 528 113 symbol \$1/\$2;
#X msg 679 158 symbol data/;
#X obj 608 79 route bang path symbol list;
#X msg 716 113 symbol \$1/\$2;
#X msg 647 248 write \$1;
#X obj 608 58 r /piano/\$1/notemaxs/write;
#X obj 411 278 s /piano/\$1/notemaxs;
#X obj 627 285 print /piano/\$1/notemaxs;
#X obj 219 63 r /piano/\$1/notemins/write;
#X obj 420 58 r /piano/\$1/notemaxs/read;
#X obj 230 170 savepanel;
#X obj 679 187 savepanel;
#X obj 399 332 r /piano/\$1/minmaxs/save;
#X obj 208 224 symbol xxx;
#X obj 647 222 symbol xxx;
#X obj 10 33 r /piano/\$1/notemins/open;
#X obj 405 35 r /piano/\$1/notemaxs/open;
#X obj 597 36 r /piano/\$1/notemaxs/save;
#X obj 202 39 r /piano/\$1/notemins/save;
#X text 225 117 list <path> <filename>;
#X obj 411 228 symbol;
#X obj 205 334 r /piano/\$1/minmaxs/load;
#X obj 30 216 symbol;
#X obj 205 381 s /piano/\$1/notemins/read;
#X obj 220 356 s /piano/\$1/notemaxs/read;
#X obj 419 359 s /piano/\$1/notemaxs/write;
#X obj 399 380 s /piano/\$1/notemins/write;
#X connect 0 0 4 0;
#X connect 1 0 6 0;
#X connect 4 0 39 0;
#X connect 5 0 2 0;
#X connect 5 0 8 0;
#X connect 6 0 39 0;
#X connect 6 1 4 0;
#X connect 6 2 30 1;
#X connect 6 2 39 0;
#X connect 6 3 7 0;
#X connect 7 0 39 0;
#X connect 9 0 27 0;
#X connect 10 0 30 0;
#X connect 10 1 27 0;
#X connect 10 2 30 0;
#X connect 10 3 11 0;
#X connect 11 0 30 0;
#X connect 12 0 2 0;
#X connect 12 0 8 0;
#X connect 13 0 14 0;
#X connect 14 0 37 0;
#X connect 15 0 23 0;
#X connect 15 0 24 0;
#X connect 16 0 37 0;
#X connect 16 1 14 0;
#X connect 16 2 31 1;
#X connect 16 2 37 0;
#X connect 16 3 17 0;
#X connect 17 0 37 0;
#X connect 18 0 28 0;
#X connect 19 0 31 0;
#X connect 19 1 28 0;
#X connect 19 2 31 0;
#X connect 19 3 20 0;
#X connect 20 0 31 0;
#X connect 21 0 23 0;
#X connect 21 0 24 0;
#X connect 22 0 19 0;
#X connect 25 0 10 0;
#X connect 26 0 16 0;
#X connect 27 0 30 0;
#X connect 28 0 31 0;
#X connect 29 0 43 0;
#X connect 29 0 42 0;
#X connect 30 0 12 0;
#X connect 31 0 21 0;
#X connect 32 0 0 0;
#X connect 33 0 13 0;
#X connect 34 0 18 0;
#X connect 35 0 9 0;
#X connect 37 0 15 0;
#X connect 38 0 40 0;
#X connect 38 0 41 0;
#X connect 39 0 5 0;
#X restore 35 186 pd ctls;
#X text 58 155 -------- control the tables --------;
#X obj 430 125 r /piano/\$1/vis_notemaxs;
#X obj 430 211 r /piano/\$1/vis_notemins;
#X obj 430 147 pack 0 \$1;
#X msg 430 175 \; pd-/piano/\$2/notemaxs vis \$1;
#X obj 430 232 pack 0 \$1;
#X msg 430 251 \; pd-/piano/\$2/notemins vis \$1;
#X text 430 99 -- popup tables --;
#N canvas 4 58 542 314 helper 1;
#X obj 8 78 s /piano/\$1/notemins;
#X obj 8 37 r /piano/\$1/notemins/linear;
#X msg 8 57 const 1;
#X obj 207 39 r /piano/\$1/notemaxs/linear;
#X obj 207 80 s /piano/\$1/notemaxs;
#X msg 207 59 const 400;
#X obj 38 156 for++ 0 18 1;
#X obj 38 205 t b f;
#X obj 4 146 bng 15 250 50 0 empty empty empty 17 7 0 10 -262144 -1
-1;
#X msg 38 226 1;
#X obj 107 177 for++ 109 127 1;
#X obj 257 163 for++ 0 18 1;
#X obj 257 212 t b f;
#X obj 223 153 bng 15 250 50 0 empty empty empty 17 7 0 10 -262144
-1 -1;
#X obj 326 184 for++ 109 127 1;
#X msg 257 233 400;
#X text 116 106 --- flatten borders --;
#X obj 257 144 r /piano/\$1/notemaxs/cut;
#X obj 38 137 r /piano/\$1/notemins/cut;
#X obj 38 247 tabwrite /piano/\$1/notemins;
#X obj 257 254 tabwrite /piano/\$1/notemaxs;
#X connect 1 0 2 0;
#X connect 2 0 0 0;
#X connect 3 0 5 0;
#X connect 5 0 4 0;
#X connect 6 0 7 0;
#X connect 6 1 10 0;
#X connect 7 0 9 0;
#X connect 7 1 19 1;
#X connect 8 0 6 0;
#X connect 9 0 19 0;
#X connect 10 0 7 0;
#X connect 11 0 12 0;
#X connect 11 1 14 0;
#X connect 12 0 15 0;
#X connect 12 1 20 1;
#X connect 13 0 11 0;
#X connect 14 0 12 0;
#X connect 15 0 20 0;
#X connect 17 0 11 0;
#X connect 18 0 6 0;
#X restore 102 183 pd helper;
#X connect 8 0 10 0;
#X connect 9 0 12 0;
#X connect 10 0 11 0;
#X connect 12 0 13 0;
