#N canvas 563 389 450 376 10;
#X obj 36 49 inlet;
#X obj 40 350 outlet;
#X obj 36 80 unpack 60 100;
#X obj 40 331 pack 60 100;
#X text 36 14 piano/veltab <id>;
#X text 78 46 as general veltab for a pianoplayer or individual;
#X text 137 78 NEED: veltab_store <id>;
#X text 35 32 use veltab used with veltabstore <id>;
#X obj 90 172 i 21;
#X obj 37 115 t f f;
#X obj 90 192 tabread noteeq-\$1;
#X msg 270 199 0;
#X obj 271 155 moses 1;
#X obj 271 178 t b;
#X obj 271 135 i 21;
#X obj 322 202 dbtorms;
#X obj 270 229 * 64;
#X obj 322 179 tabread noteeq-\$1;
#X obj 90 215 - 100;
#X obj 91 240 + 64;
#X msg 91 306 0;
#X obj 91 263 moses 1;
#X obj 91 286 t b;
#X text 169 113 100=keine aenderung;
#X msg 91 122 0;
#X obj 111 101 moses 1;
#X obj 85 101 t b;
#X obj 150 129 t f b;
#X obj 90 150 spigot;
#X msg 177 160 1;
#X connect 0 0 2 0;
#X connect 2 0 9 0;
#X connect 2 1 25 0;
#X connect 3 0 1 0;
#X connect 8 0 10 0;
#X connect 9 0 3 0;
#X connect 9 1 28 0;
#X connect 10 0 18 0;
#X connect 11 0 16 0;
#X connect 12 0 13 0;
#X connect 12 1 17 0;
#X connect 13 0 11 0;
#X connect 14 0 12 0;
#X connect 15 0 16 0;
#X connect 17 0 15 0;
#X connect 18 0 19 0;
#X connect 19 0 21 0;
#X connect 20 0 3 1;
#X connect 21 0 22 0;
#X connect 21 1 3 1;
#X connect 22 0 20 0;
#X connect 24 0 3 1;
#X connect 24 0 28 1;
#X connect 25 0 26 0;
#X connect 25 1 27 0;
#X connect 26 0 24 0;
#X connect 27 0 19 1;
#X connect 27 1 29 0;
#X connect 28 0 8 0;
#X connect 29 0 28 1;
