#N canvas -20 92 1220 298 10;
#X text 45 69 max;
#X obj 29 111 / 127;
#X obj 116 116 / 127;
#X text 117 66 min;
#X obj 200 115 sel 127;
#X obj 268 126 sel 127;
#X text 217 62 Vnull;
#X text 266 62 V10;
#X obj 336 125 sel 127;
#X text 335 61 V127;
#X obj 115 142 * 200;
#X text 466 59 Speed;
#X obj 30 130 * 300;
#X obj 31 149 + 400;
#X obj 115 163 + 0;
#X obj 469 106 / 127;
#X obj 469 152 + 3;
#X obj 469 130 * 997;
#X obj 727 113 sel 127;
#X obj 819 122 sel 127;
#X text 551 59 -1;
#X text 648 62 +1;
#X text 735 62 -12;
#X text 818 60 +12;
#X obj 551 109 sel 127;
#X obj 647 111 sel 127;
#X text 1023 57 arp;
#X obj 83 5 ctlin;
#X floatatom 83 29 5 0 0 0 - - -, f 5;
#X floatatom 125 32 5 0 0 0 - - -, f 5;
#X floatatom 164 35 5 0 0 0 - - -, f 5;
#X obj 1025 116 sel 127;
#X obj 951 115 sel 127;
#X text 948 58 on/off;
#X obj 29 88 ctlin 52 1;
#X obj 115 86 ctlin 53 1;
#X obj 200 84 ctlin 11 1;
#X obj 268 84 ctlin 12 1;
#X obj 336 84 ctlin 13 1;
#X obj 469 79 ctlin 59 1;
#X obj 551 81 ctlin 16 1;
#X obj 647 84 ctlin 17 1;
#X obj 727 84 ctlin 18 1;
#X obj 819 80 ctlin 19 1;
#X obj 951 80 ctlin 15 1;
#X obj 1025 79 ctlin 79 1;
#X msg 200 185 0;
#X msg 268 187 10;
#X msg 336 191 127;
#X obj 31 262 s /piano/\$1/minmax/edit/max;
#X obj 115 241 s /piano/\$1/minmax/edit/min;
#X obj 200 215 s /piano/\$1/minmax/edit/v;
#X obj 469 258 s /piano/\$1/minmax/edit/speed;
#X obj 551 229 s /piano/\$1/minmax/edit/dec;
#X obj 647 204 s /piano/\$1/minmax/edit/inc;
#X obj 727 233 s /piano/\$1/minmax/edit/dec12;
#X obj 819 203 s /piano/\$1/minmax/edit/inc12;
#X obj 951 247 s /piano/\$1/minmax/edit/on;
#X obj 1025 183 s /piano/\$1/minmax/edit/arp;
#X text 195 13 (for nanocontrol);
#X text 332 27 Template: copy and load manually;
#X connect 1 0 12 0;
#X connect 2 0 10 0;
#X connect 4 0 46 0;
#X connect 5 0 47 0;
#X connect 8 0 48 0;
#X connect 10 0 14 0;
#X connect 12 0 13 0;
#X connect 13 0 49 0;
#X connect 14 0 50 0;
#X connect 15 0 17 0;
#X connect 16 0 52 0;
#X connect 17 0 16 0;
#X connect 18 0 55 0;
#X connect 19 0 56 0;
#X connect 24 0 53 0;
#X connect 25 0 54 0;
#X connect 27 0 28 0;
#X connect 27 1 29 0;
#X connect 27 2 30 0;
#X connect 31 0 58 0;
#X connect 32 0 57 0;
#X connect 34 0 1 0;
#X connect 35 0 2 0;
#X connect 36 0 4 0;
#X connect 37 0 5 0;
#X connect 38 0 8 0;
#X connect 39 0 15 0;
#X connect 40 0 24 0;
#X connect 41 0 25 0;
#X connect 42 0 18 0;
#X connect 43 0 19 0;
#X connect 44 0 32 0;
#X connect 45 0 31 0;
#X connect 46 0 51 0;
#X connect 47 0 51 0;
#X connect 48 0 51 0;
