#N canvas 746 243 365 418 10;
#X obj 34 70 spigot;
#X obj 34 251 pack 100 64;
#X obj 35 366 outlet;
#X obj 97 344 spigot;
#X obj 97 365 print midiin;
#X text 38 13 receive MIDI;
#X obj 99 34 r /piano/\$1/midiin/on;
#X obj 130 320 r /piano/\$1/midiin/v;
#X obj 34 104 + 0;
#X obj 97 76 r /piano/\$1/midiin/transpose;
#X obj 33 36 notein;
#X obj 97 175 + 0;
#X obj 70 140 sel 0;
#X msg 61 177 0;
#X obj 96 194 max 1;
#X obj 96 215 min 127;
#X obj 112 136 r /piano/\$1/midiin/vel;
#X obj 189 213 s /piano/\$1/midiin/vu;
#X obj 189 181 speedlim 50;
#X obj 35 272 pdpp/veltab/map /midi/\$1/veltab;
#X obj 141 291 pdpp/veltab/store /midi/\$1/veltab;
#X connect 0 0 8 0;
#X connect 1 0 19 0;
#X connect 1 0 3 0;
#X connect 3 0 4 0;
#X connect 6 0 0 1;
#X connect 7 0 3 1;
#X connect 8 0 1 0;
#X connect 9 0 8 1;
#X connect 10 0 0 0;
#X connect 10 1 12 0;
#X connect 11 0 14 0;
#X connect 12 0 13 0;
#X connect 12 1 11 0;
#X connect 13 0 1 1;
#X connect 13 0 17 0;
#X connect 14 0 15 0;
#X connect 15 0 1 1;
#X connect 15 0 18 0;
#X connect 16 0 11 1;
#X connect 18 0 17 0;
#X connect 19 0 2 0;
