#N canvas 4 58 450 300 10;
#X obj 51 33 inlet note;
#X obj 51 94 spigot 0;
#X obj 51 131 unpack 64 0;
#X msg 267 49 60 100 700;
#X obj 267 74 makenote;
#X obj 267 95 pack 60 100;
#X obj 266 26 r /piano/\$1/sim/testnote;
#X text 50 9 iface/midi_out <piano nr> [midi channel];
#X obj 96 72 r /piano/\$1/sim/on;
#X obj 50 167 noteout \$2;
#X obj 139 137 r /piano/\$1/sim/channel;
#X connect 0 0 1 0;
#X connect 1 0 2 0;
#X connect 2 0 9 0;
#X connect 2 1 9 1;
#X connect 3 0 4 0;
#X connect 4 0 5 0;
#X connect 4 1 5 1;
#X connect 5 0 2 0;
#X connect 6 0 3 0;
#X connect 8 0 1 1;
#X connect 10 0 9 2;
