#N canvas 484 364 450 300 10;
#X obj 101 101 cnv 15 198 48 empty empty midi_out_\$1 2 7 0 14 -228856
-66577 0;
#X obj 106 117 tgl 30 0 /piano/\$1/sim/on /piano/\$1/sim/on SIM 3 15
0 14 -4034 -1 -1 0 1;
#X obj 140 131 nbx 2 14 -1e+37 1e+37 0 0 /piano/\$1/sim/channel /piano/\$1/sim/channel
midichan 0 -8 0 10 -4034 -1 -1 0 256;
#X obj 204 102 bng 15 250 50 0 /piano/\$1/sim/testnote /piano/\$1/sim/testnote
C 17 7 0 10 -260097 -1 -1;
#X obj 170 131 tgl 15 0 /piano/\$1/veltab/\$2/vis /piano/\$1/veltab/\$2/vis
vt_\$2 17 7 0 10 -257985 -1 -1 0 1;
#X obj 234 101 bng 15 250 50 0 empty empty read_vt 17 7 0 10 -4034
-1 -1;
#X msg 225 254 read;
#X obj 234 134 bng 15 250 50 0 empty empty lin 17 7 0 10 -262144 -1
-1;
#X msg 342 244 linear;
#X msg 271 239 write;
#X obj 234 117 bng 15 250 50 0 empty empty write_vt 17 7 0 10 -258113
-1 -1;
#X text 93 29 piano_midi_ctl <piano_id> <veltab_id>;
#X obj 225 275 s /piano/sim/\$1/veltab/\$2;
#X connect 5 0 6 0;
#X connect 6 0 12 0;
#X connect 7 0 8 0;
#X connect 8 0 12 0;
#X connect 9 0 12 0;
#X connect 10 0 9 0;
#X coords 0 -1 1 1 200 50 1 100 100;
