#N canvas 660 82 813 644 10;
#X msg 443 576 tempo \$1;
#X obj 8 182 openpanel;
#X msg 8 160 bang;
#X text 55 167 readfile;
#X text 301 213 stop;
#X obj 297 29 tgl 15 0 /mifi/\$1/v /mifi/\$1/v v 5 6 0 8 -241291 -1
-1 0 1;
#X obj 300 418 spigot;
#X text 63 591 for each piece a individual velocity curve;
#X obj 72 500 min 127;
#X obj 72 521 max 0;
#X obj 9 542 pack 60 0;
#X obj 9 443 unpack 60 0;
#X obj 335 46 s \$1_dt;
#X obj 8 205 symbol;
#X obj 335 90 s \$1_dt_bctl;
#X obj 9 514 + 0;
#X obj 9 344 seq;
#X msg 25 231 read \$1;
#X msg 338 203 stop;
#X msg 194 220 bang;
#X obj 9 375 midiflush;
#X obj 631 449 * 0.001;
#X obj 636 471 i 0;
#X obj 686 449 % 1000;
#X obj 634 493 pack 0 0;
#X msg 634 518 goto \$1 \$2;
#X text 638 537 goto <sec> [ms];
#X msg 636 337 continue;
#X obj 635 413 t f f;
#X obj 294 252 del 100;
#X msg 502 335 pause;
#X obj 9 586 outlet;
#X obj 8 45 r /mifi/\$1/open;
#X obj 54 86 r /mifi/\$1/filename;
#X obj 176 156 r /mifi/\$1/start;
#X obj 299 154 r /mifi/\$1/stop;
#X obj 443 554 r /mifi/\$1/tempo;
#X obj 635 391 r /mifi/\$1/locate;
#X obj 635 315 r /mifi/\$1/continue;
#X obj 335 28 r /mifi/\$1/dt;
#X obj 335 67 r /mifi/\$1/bctl;
#X obj 502 312 r /mifi/\$1/pause;
#N canvas 4 58 471 230 ctl 0;
#X obj 185 13 spigot;
#X obj 8 54 route open filename start stop tempo locate continue dt
dt_bctl pause;
#X obj 8 19 r /mifi/\$1/ctl;
#X obj 185 35 print /mifi/\$1;
#X obj 8 94 s /mifi/\$1/open;
#X obj 39 116 s /mifi/\$1/filename;
#X obj 73 136 s /mifi/\$1/start;
#X obj 107 156 s /mifi/\$1/stop;
#X obj 138 94 s /mifi/\$1/tempo;
#X obj 171 115 s /mifi/\$1/locate;
#X obj 205 136 s /mifi/\$1/continue;
#X obj 237 157 s /mifi/\$1/dt;
#X obj 269 94 s /mifi/\$1/bctl;
#X obj 301 115 s /mifi/\$1/pause;
#X text 28 191 for backward compatibility;
#X obj 227 13 r /mifi/\$1/ctl/v;
#X connect 0 0 3 0;
#X connect 1 0 4 0;
#X connect 1 1 5 0;
#X connect 1 2 6 0;
#X connect 1 3 7 0;
#X connect 1 4 8 0;
#X connect 1 5 9 0;
#X connect 1 6 10 0;
#X connect 1 7 11 0;
#X connect 1 8 12 0;
#X connect 1 9 13 0;
#X connect 2 0 0 0;
#X connect 2 0 1 0;
#X connect 15 0 0 1;
#X restore 9 24 pd ctl;
#X obj 300 391 r /mifi/\$1/v;
#X obj 9 564 ../veltab/map /mifi/\$1/veltab;
#X obj 24 475 r /mifi/\$1/transpose;
#X obj 8 277 s /mifi/\$1/filename;
#X obj 77 375 s /mifi/\$1/end;
#X text 50 4 pdpp/iface/mifi <id nr>;
#X obj 301 331 spigot;
#X obj 301 353 print /mifi/\$1;
#X obj 356 303 r /mifi/\$1/ctl/v;
#X obj 499 478 spigot;
#X obj 531 454 r /mifi/\$1/loop;
#X obj 498 433 r /mifi/\$1/end;
#X obj 501 504 s /mifi/\$1/start;
#X obj 206 504 r /mifi/\$1/veltab/v;
#X msg 206 525 vis \$1;
#X obj 206 546 s /mifi/\$1/veltab;
#X obj 206 567 ../veltab/store /mifi/\$1/veltab;
#X obj 23 64 r /mifi/\$1/load;
#N canvas 190 442 450 300 init 0;
#X obj 57 53 loadbang;
#X obj 57 95 s /mifi/\$1/filename;
#X msg 57 72 symbol ../data/perpetuu.mid;
#X text 132 49 default;
#X obj 65 141 loadbang;
#X obj 65 162 list append \$1;
#X msg 65 183 \; /mifi/\$1/tempo 100 \; /mifi/\$1/transpose 0;
#X connect 0 0 2 0;
#X connect 2 0 1 0;
#X connect 4 0 5 0;
#X connect 5 0 6 0;
#X restore 243 27 pd init;
#X obj 9 397 midiparse ______;
#X obj 477 204 midiformat 0 ____;
#X obj 475 153 inlet;
#X obj 494 35 r /mifi/\$1/record;
#X msg 614 116 bang;
#X obj 614 161 symbol;
#X obj 612 59 r /mifi/\$1/save;
#X obj 614 138 savepanel;
#X msg 614 202 write \$1;
#X obj 657 88 r /mifi/\$1/filename;
#X obj 647 182 s /mifi/\$1/filename;
#X obj 613 225 s \$0-seq;
#X obj 9 319 r \$0-seq;
#X obj 23 253 s \$0-seq;
#X obj 299 302 r \$0-seq;
#X obj 502 358 s \$0-seq;
#X obj 338 228 s \$0-seq;
#X obj 496 11 s \$0-seq;
#X msg 494 90 record;
#X obj 495 114 s \$0-seq;
#X obj 633 559 s \$0-seq;
#X obj 637 365 s \$0-seq;
#X obj 130 220 s \$0-seq;
#X text 568 7 --- RECORDING ---;
#X text 557 275 --- Controls ---;
#X text 319 274 --- verbose ---;
#X obj 301 446 print /mifi/\$1/out;
#X text 204 479 --- veltab ---;
#X text 416 531 No method for tempo until now :-((;
#X text 342 10 --- compatibility ---;
#X obj 475 176 spigot 0;
#X msg 235 218 0;
#X obj 174 184 t b b b;
#X msg 382 201 0;
#X obj 299 177 t b b b;
#X obj 494 58 t b b;
#X msg 555 63 1;
#X obj 477 227 midiflush;
#X obj 475 249 s \$0-seq;
#X obj 550 158 inlet;
#X text 471 135 notes;
#X text 539 135 recchannel;
#X obj 166 280 r /mifi/#1/ctl/list;
#X obj 166 303 sel 1;
#X connect 1 0 13 0;
#X connect 2 0 1 0;
#X connect 6 0 88 0;
#X connect 8 0 9 0;
#X connect 9 0 10 1;
#X connect 10 0 44 0;
#X connect 11 0 15 0;
#X connect 11 1 8 0;
#X connect 13 0 17 0;
#X connect 13 0 46 0;
#X connect 15 0 10 0;
#X connect 16 0 20 0;
#X connect 16 1 47 0;
#X connect 17 0 75 0;
#X connect 18 0 78 0;
#X connect 19 0 20 0;
#X connect 20 0 62 0;
#X connect 21 0 22 0;
#X connect 22 0 24 0;
#X connect 23 0 24 1;
#X connect 24 0 25 0;
#X connect 25 0 82 0;
#X connect 27 0 83 0;
#X connect 28 0 21 0;
#X connect 28 1 23 0;
#X connect 29 0 19 0;
#X connect 29 0 99 0;
#X connect 30 0 77 0;
#X connect 32 0 2 0;
#X connect 33 0 13 1;
#X connect 34 0 94 0;
#X connect 35 0 96 0;
#X connect 36 0 0 0;
#X connect 37 0 28 0;
#X connect 38 0 27 0;
#X connect 39 0 12 0;
#X connect 40 0 14 0;
#X connect 41 0 30 0;
#X connect 43 0 6 1;
#X connect 44 0 31 0;
#X connect 45 0 15 1;
#X connect 49 0 50 0;
#X connect 51 0 49 1;
#X connect 52 0 55 0;
#X connect 53 0 52 1;
#X connect 54 0 52 0;
#X connect 56 0 57 0;
#X connect 57 0 58 0;
#X connect 60 0 13 0;
#X connect 62 0 6 0;
#X connect 62 0 11 0;
#X connect 63 0 99 0;
#X connect 64 0 92 0;
#X connect 65 0 97 0;
#X connect 66 0 69 0;
#X connect 67 0 70 0;
#X connect 67 0 72 0;
#X connect 68 0 66 0;
#X connect 69 0 67 0;
#X connect 70 0 73 0;
#X connect 71 0 67 1;
#X connect 74 0 16 0;
#X connect 76 0 49 0;
#X connect 80 0 81 0;
#X connect 92 0 63 0;
#X connect 93 0 92 1;
#X connect 94 0 84 0;
#X connect 94 1 19 0;
#X connect 94 2 93 0;
#X connect 95 0 92 1;
#X connect 96 0 29 0;
#X connect 96 1 18 0;
#X connect 96 2 95 0;
#X connect 97 0 80 0;
#X connect 97 1 98 0;
#X connect 98 0 92 1;
#X connect 99 0 100 0;
#X connect 101 0 63 6;
#X connect 104 0 105 0;
