#N canvas 1160 343 698 461 10;
#X obj 123 141 print OSC;
#X obj 123 119 spigot;
#X obj 76 289 t b;
#X obj 76 309 s allnotesoff;
#X text 210 258 Synthax:;
#X text 196 0 on off;
#X obj 12 69 spigot;
#X obj 460 300 spigot;
#X obj 460 323 print OSCmidi;
#X obj 460 224 spigot;
#X obj 493 203 tgl 15 0 empty empty empty 0 -6 0 8 -262144 -1 -1 1
1;
#X obj 283 6 loadbang;
#X obj 283 28 del 1000;
#X msg 284 56 1;
#X obj 493 181 r /piano/\$1/osc/midi/on;
#X obj 458 249 oscparse midi note;
#X obj 12 92 oscparse;
#X text 184 277 /piano/<nr>/note <midinote><velocity>;
#X obj 12 263 route note allNotesOff;
#X obj 12 138 route piano;
#X obj 12 116 list trim;
#X obj 228 238 oscformat piano \$1 note;
#X msg 313 186 64 100;
#X msg 314 212 64 0;
#X obj 12 48 netreceive -u -b 7777;
#X text 182 294 /piano/<nr>/allNotesOff;
#X obj 156 95 r /piano/\$1/osc/v;
#X obj 284 80 s /piano/\$1/osc/midi/on;
#X obj 70 70 r /piano/\$1/osc/on;
#X msg 12 27 listen \$1;
#X obj 12 7 r /piano/\$1/osc/portnr;
#X obj 460 115 r /piano/\$1/osc/raw/portnr;
#X obj 461 11 loadbang;
#X obj 505 57 s /piano/\$1/osc/raw/portnr;
#X obj 461 80 s /piano/\$1/osc/portnr;
#X msg 461 32 7777;
#X msg 460 136 listen \$1;
#X obj 493 276 r /piano/\$1/osc/v;
#X text 259 126 --- test ---;
#X text 438 348 Synthax:;
#X obj 12 233 route symbol;
#X obj 81 169 loadbang;
#X obj 81 190 f \$1;
#X obj 81 211 makefilename %d;
#X obj 227 164 oscformat piano \$1 allNotesOff;
#X msg 228 145 bang;
#X obj 12 407 outlet;
#N canvas 4 61 450 300 vu 0;
#X obj 50 58 unpack 68 100;
#X obj 146 61 unpack 68 100;
#X obj 45 197 s /piano/\$1/osc/vu;
#X obj 43 80 - 100;
#X obj 135 97 - 100;
#X obj 34 20 inlet;
#X obj 144 22 inlet;
#X obj 42 116 speedlim 200;
#X obj 43 145 pack 0 0;
#X connect 0 1 3 0;
#X connect 1 1 4 0;
#X connect 3 0 7 0;
#X connect 4 0 8 1;
#X connect 5 0 0 0;
#X connect 6 0 1 0;
#X connect 7 0 8 0;
#X connect 8 0 2 0;
#X restore 189 326 pd vu;
#X obj 12 360 ../veltab/map /osc/\$1/veltab;
#X obj 96 388 ../veltab/store /osc/\$1/veltab;
#X obj 12 334 list split 2;
#X obj 12 384 list append;
#X obj 460 159 netreceive -u -b 77778;
#X msg 505 34 77778;
#X text 416 370 /midi/note <midinote><velocity>[channel];
#X obj 274 331 list split 2;
#X text 17 429 <note><vel>[duration];
#X obj 308 392 outlet;
#X text 308 420 channel;
#X connect 1 0 0 0;
#X connect 2 0 3 0;
#X connect 6 0 16 0;
#X connect 7 0 8 0;
#X connect 9 0 15 0;
#X connect 10 0 9 1;
#X connect 11 0 12 0;
#X connect 12 0 13 0;
#X connect 13 0 27 0;
#X connect 14 0 10 0;
#X connect 15 0 7 0;
#X connect 15 0 47 1;
#X connect 15 0 55 0;
#X connect 16 0 1 0;
#X connect 16 0 20 0;
#X connect 18 0 47 1;
#X connect 18 0 50 0;
#X connect 18 1 2 0;
#X connect 19 0 40 0;
#X connect 20 0 19 0;
#X connect 21 0 16 0;
#X connect 22 0 21 0;
#X connect 23 0 21 0;
#X connect 24 0 6 0;
#X connect 26 0 1 1;
#X connect 28 0 6 1;
#X connect 29 0 24 0;
#X connect 30 0 29 0;
#X connect 31 0 36 0;
#X connect 32 0 35 0;
#X connect 32 0 53 0;
#X connect 35 0 34 0;
#X connect 36 0 52 0;
#X connect 37 0 7 1;
#X connect 40 0 18 0;
#X connect 41 0 42 0;
#X connect 42 0 43 0;
#X connect 43 0 40 1;
#X connect 44 0 16 0;
#X connect 45 0 44 0;
#X connect 48 0 47 0;
#X connect 48 0 51 0;
#X connect 50 0 48 0;
#X connect 50 1 51 1;
#X connect 51 0 46 0;
#X connect 52 0 9 0;
#X connect 53 0 33 0;
#X connect 55 0 48 0;
#X connect 55 1 57 0;
