#N canvas 403 231 503 446 10;
#X obj 101 101 cnv 15 198 48 empty empty arp\$1 2 7 0 14 -204786 -66577
0;
#X obj 104 116 tgl 30 0 empty empty On 7 15 0 14 -4034 -1 -1 0 1;
#X obj 16 102 metro 500;
#X obj 99 277 pack 1 64;
#X obj 169 279 pipe 1 250;
#X obj 169 302 pack 1 0;
#X obj 239 246 max 10;
#X obj 99 327 s /piano/\$1/note;
#X obj 136 244 + 1;
#X obj 99 244 i 1;
#X obj 124 196 i 0;
#X obj 156 198 i 16;
#X obj 55 263 sel 1;
#X obj 339 14 loadbang;
#X msg 257 81 500;
#X obj 55 242 >= 16;
#X text 14 8 play an arpeggio from <note> to <note> with <vel>;
#X text 14 26 time of repetition and Length of note;
#X obj 23 74 max 0.1;
#X text 17 -15 arp_gui <piano_r>;
#X msg 213 75 100;
#X msg 193 56 108;
#X msg 143 51 19;
#X msg 315 104 80;
#X obj 20 202 spigot;
#X msg 20 224 0;
#X obj 262 120 tgl 10 0 empty empty once 12 6 0 8 -262144 -1 -1 0 1
;
#X obj 139 133 bng 15 250 50 0 empty empty R 5 8 0 10 -262144 -1 -1
;
#X obj 168 102 nbx 3 14 1 128 0 0 empty empty from -25 8 0 10 -262144
-1 -1 19 256;
#X obj 218 102 nbx 3 14 1 128 0 0 empty empty to -12 8 0 10 -262144
-1 -1 108 256;
#X obj 268 103 nbx 3 14 0 128 0 0 empty empty vel -15 8 0 8 -262144
-1 -1 80 256;
#X obj 395 263 nbx 3 14 -1e+37 1e+37 0 0 empty empty from 0 -8 0 10
-262144 -1 -1 0 256;
#X obj 340 274 nbx 3 14 -1e+37 1e+37 0 0 empty empty vel -15 8 0 8
-262144 -1 -1 0 256;
#X obj 159 132 nbx 4 14 0.01 9999 1 0 empty empty time 0 -6 0 10 -262144
-1 -1 9473.69 256;
#X obj 262 131 nbx 3 14 -1e+37 1e+37 0 0 empty empty N -8 8 0 10 -228856
-1 -1 0 256;
#X obj 206 132 nbx 4 14 1 99999 0 0 empty empty len 0 -6 0 10 -262144
-1 -1 500 256;
#X connect 1 0 2 0;
#X connect 2 0 9 0;
#X connect 3 0 7 0;
#X connect 4 0 5 0;
#X connect 5 0 7 0;
#X connect 6 0 4 1;
#X connect 8 0 9 1;
#X connect 9 0 4 0;
#X connect 9 0 3 0;
#X connect 9 0 8 0;
#X connect 9 0 15 0;
#X connect 9 0 34 0;
#X connect 10 0 9 1;
#X connect 11 0 15 1;
#X connect 12 0 10 0;
#X connect 12 0 24 0;
#X connect 13 0 14 0;
#X connect 13 0 20 0;
#X connect 13 0 23 0;
#X connect 13 0 21 0;
#X connect 13 0 22 0;
#X connect 14 0 35 0;
#X connect 15 0 12 0;
#X connect 18 0 2 1;
#X connect 20 0 33 0;
#X connect 21 0 29 0;
#X connect 22 0 28 0;
#X connect 23 0 30 0;
#X connect 24 0 25 0;
#X connect 25 0 1 0;
#X connect 26 0 24 1;
#X connect 27 0 10 0;
#X connect 28 0 10 1;
#X connect 29 0 11 0;
#X connect 30 0 3 1;
#X connect 33 0 18 0;
#X connect 35 0 6 0;
#X coords 0 -1 1 1 200 50 1 100 100;
