#N canvas 452 195 847 533 12;
#X declare -stdpath iemlib;
#X declare -lib iemlib1 -lib iemlib2;
#X declare -lib zexy;
#X declare -path ../../;
#N canvas 433 272 694 359 declares 0;
#X obj 28 282 declare -stdpath iemlib;
#X obj 28 252 declare -lib iemlib1 -lib iemlib2;
#X text 25 12 --- path for Pd abstractions \, data \, libs ... ---
;
#X text 19 35 a) paths for the projects;
#X text 14 96 b) paths and libs for libraries in project;
#X text 27 196 Linux: .local/lib/Pd/extra \, /usr/[local/]lib/pd/extra
;
#X text 25 218 OS-X: ~/Library/Pd \, /Library/Pd \, /Applications/Pd/...
;
#X obj 28 307 declare -lib zexy;
#X text 11 174 c) paths and libs for project in system: Need iemlib
\, zexy;
#X obj 24 57 declare -path ../../;
#X text 208 55 should point to the libs;
#X restore 44 38 pd declares;
#N canvas 659 166 703 455 GUI 1;
#X text 63 27 use for single piano;
#X obj 52 58 pdpp/rhea/ctl 1;
#X obj 57 285 pdpp/iface/midiout_ctl 1;
#X obj 252 58 pdpp/rhea/double_ctl 2;
#X obj 463 62 pdpp/test/arp 1;
#X obj 463 116 pdpp/test/note 1;
#X obj 463 171 pdpp/noteeq/ctl 1;
#X restore 41 99 pd GUI;
#N canvas 761 239 601 495 init 0;
#X obj 41 94 t b b b;
#X text 160 56 Initial values set after loading;
#X msg 101 122 --- patch main loaded --- \;;
#X text 125 97 prepare patches;
#X text 196 171 Initialze main values;
#X text 87 345 Start DSP engine;
#X obj 40 444 print init:;
#X msg 40 369 --- dsp started --- \; pd dsp 1;
#X text 39 31 Note: includes loadbang;
#X obj 100 152 print init:;
#X obj 42 56 loadbang;
#X connect 0 0 7 0;
#X connect 0 2 2 0;
#X connect 2 0 9 0;
#X connect 7 0 6 0;
#X connect 10 0 0 0;
#X restore 44 67 pd init;
#X text 166 69 Initialize Patch;
#X text 166 33 Settings for project;
#X text 167 100 For settings use ds library;
#X text 45 8 Pianoplayer example Patch;
#X text 202 276 direct note all off to player;
#X text 43 244 --- commands ---;
#X text 38 319 --- ctl for calibration: copy and edit for your controller
---, f 65;
#X obj 497 43 r note;
#X obj 497 94 s /piano/1/note;
#X obj 496 187 r /piano/1/note;
#X text 494 161 --- piano simulator ---;
#X text 504 16 --- receive not eq and send to piano;
#X text 176 175 for a second piano player ...;
#X obj 42 138 pdpp/rhea/rhea 1;
#X obj 41 349 pdpp/iface/midi_ctl;
#X obj 43 272 pdpp/rhea/alloff;
#X obj 43 177 pdpp/rhea/rhea 2;
#X text 169 139 with complete stack for rhea;
#X obj 497 69 pdpp/noteeq/map 1;
#X obj 625 69 pdpp/noteeq/store 1;
#X obj 496 214 pdpp/iface/midiout 1;
#X obj 536 316 pdpp/np/spread 0 128;
#X connect 10 0 21 0;
#X connect 12 0 23 0;
#X connect 21 0 11 0;
