#N canvas 4 58 438 177 10;
#N canvas 4 58 1118 555 logic 1;
#X obj 231 339 tabwrite /piano/\$1/notemins;
#X obj 228 389 tabwrite /piano/\$1/notemaxs;
#X obj 29 365 tabread /piano/\$1/notemaxs;
#X msg 749 114 \; /piano/\$1/notemins const 1;
#X msg 757 80 \; /piano/\$1/notemaxs const 127;
#X msg 119 166 1;
#X msg 88 164 -1;
#X obj 124 234 i 68;
#X obj 88 191 + 68;
#X obj 153 195 + 68;
#X msg 153 168 -12;
#X msg 185 170 12;
#X text 196 243 notenr;
#X obj 460 176 metro 1500;
#X obj 456 344 i 68;
#X text 512 355 vel;
#X obj 531 147 * 0.8;
#X obj 519 120 t f f f;
#X obj 534 189 max 20;
#X obj 456 369 makenote 68 64 100;
#X obj 518 100 max 1;
#X obj 457 450 outlet;
#X obj 28 314 tabread /piano/\$1/notemins;
#X obj 121 257 t f f f;
#X text 747 39 presetcurves;
#X obj 747 57 r /piano/\$1/minmax/edit/reset;
#X obj 33 453 r /piano/\$1/minmax/edit/arp;
#X obj 458 62 r /piano/\$1/minmax/edit/on;
#X obj 517 80 r /piano/\$1/minmax/edit/time;
#X obj 187 150 r /piano/\$1/minmax/edit/inc12;
#X obj 120 109 r /piano/\$1/minmax/edit/inc;
#X obj 85 87 r /piano/\$1/minmax/edit/dec;
#X obj 151 129 r /piano/\$1/minmax/edit/dec12;
#X obj 26 341 s /piano/\$1/minmax/edit/min;
#X obj 28 392 s /piano/\$1/minmax/edit/max;
#X obj 229 360 r /piano/\$1/minmax/edit/max;
#X obj 231 315 r /piano/\$1/minmax/edit/min;
#X text 53 14 Logic for minmax editor;
#X msg 806 238 10;
#X msg 874 236 127;
#X msg 842 236 100;
#X obj 752 212 select 0 1 2 3;
#X msg 749 384 80;
#X msg 787 385 90;
#X msg 888 387 700;
#X msg 825 386 120;
#X msg 857 387 200;
#X msg 919 387 1000;
#X obj 753 335 sel 0 1 2 3 4 5;
#X text 741 170 ---- presets -------;
#X obj 967 348 vradio 15 1 0 6 /piano/\$1/minmax/edit/timepresets /piano/\$1/minmax/edit/timepresets
metro 0 -8 0 10 -262144 -1 -1 4;
#X text 984 344 80;
#X text 984 361 90;
#X text 984 390 200;
#X text 985 407 700;
#X text 985 421 1000;
#X text 985 376 120;
#X obj 960 216 vradio 15 1 0 4 /piano/\$1/minmax/edit/v_presets /piano/\$1/minmax/edit/v_presets
metro 0 -8 0 10 -262144 -1 -1 0;
#X obj 752 191 r /piano/\$1/minmax/edit/v_presets;
#X text 979 214 0;
#X text 977 232 10;
#X text 977 247 100;
#X text 977 260 120;
#X obj 752 310 r /piano/\$1/minmax/edit/timepresets;
#X obj 757 419 s /piano/\$1/minmax/edit/time;
#X obj 460 230 s /piano/\$1/minmax/edit/play;
#X obj 457 282 r /piano/\$1/minmax/edit/play;
#X obj 541 207 s /piano/\$1/minmax/edit/len;
#X obj 561 346 r /piano/\$1/minmax/edit/len;
#X obj 235 262 s /piano/\$1/minmax/edit/note;
#X obj 476 303 r /piano/\$1/minmax/edit/note;
#X text 456 259 --- output ----;
#X text 455 42 --- repeat note ---;
#X text 73 63 --- set notenumber and min max values ---;
#X text 32 433 --- not implemented yet ---;
#X obj 508 326 r /piano/\$1/minmax/edit/vel;
#X obj 753 267 s /piano/\$1/minmax/edit/vel;
#X obj 463 412 pack 60 64;
#X msg 753 236 1;
#X obj 597 101 t f f;
#X obj 607 128 - 60;
#X obj 534 168 min 1000;
#X obj 236 199 r /piano/\$1/minmax/edit/note;
#X connect 2 0 34 0;
#X connect 5 0 8 0;
#X connect 6 0 8 0;
#X connect 7 0 8 1;
#X connect 7 0 9 1;
#X connect 7 0 23 0;
#X connect 8 0 7 0;
#X connect 9 0 7 0;
#X connect 10 0 9 0;
#X connect 11 0 9 0;
#X connect 13 0 65 0;
#X connect 14 0 19 0;
#X connect 16 0 81 0;
#X connect 17 0 13 1;
#X connect 17 1 16 0;
#X connect 17 2 80 0;
#X connect 18 0 67 0;
#X connect 19 0 77 0;
#X connect 19 1 77 1;
#X connect 20 0 17 0;
#X connect 22 0 33 0;
#X connect 23 0 22 0;
#X connect 23 0 2 0;
#X connect 23 1 0 1;
#X connect 23 1 1 1;
#X connect 23 2 69 0;
#X connect 25 0 4 0;
#X connect 25 0 3 0;
#X connect 27 0 13 0;
#X connect 28 0 20 0;
#X connect 29 0 11 0;
#X connect 30 0 5 0;
#X connect 31 0 6 0;
#X connect 32 0 10 0;
#X connect 35 0 1 0;
#X connect 36 0 0 0;
#X connect 38 0 76 0;
#X connect 39 0 76 0;
#X connect 40 0 76 0;
#X connect 41 0 78 0;
#X connect 41 1 38 0;
#X connect 41 2 40 0;
#X connect 41 3 39 0;
#X connect 42 0 64 0;
#X connect 43 0 64 0;
#X connect 44 0 64 0;
#X connect 45 0 64 0;
#X connect 46 0 64 0;
#X connect 47 0 64 0;
#X connect 48 0 42 0;
#X connect 48 1 43 0;
#X connect 48 2 45 0;
#X connect 48 3 46 0;
#X connect 48 4 44 0;
#X connect 48 5 47 0;
#X connect 58 0 41 0;
#X connect 63 0 48 0;
#X connect 66 0 14 0;
#X connect 68 0 19 2;
#X connect 70 0 14 1;
#X connect 75 0 19 1;
#X connect 77 0 21 0;
#X connect 78 0 76 0;
#X connect 80 0 81 1;
#X connect 81 0 18 0;
#X connect 82 0 7 1;
#X restore 29 40 pd logic;
#X obj 29 61 outlet;
#X text 28 24 Edit minmax of pianoplayer;
#X text 211 24 --- helper ---;
#X text 30 89 load your controller interface with menu "File->open"
;
#X text 38 114 use piano/minmaxs_edit_gui <nr> for GUI;
#X obj 212 65 tgl 15 0 /piano/1/minmaxs/edit/gui /piano/1/minmaxs/edit/gui
v_editminmaxs 17 7 0 10 -257985 -1 -1 1 1;
#X obj 213 40 offset \$1;
#X connect 0 0 1 0;
