#N canvas 387 0 546 580 10;
#X obj 32 46 inlet;
#X obj 32 547 outlet;
#X text 201 412 velocity 0...127 (wobei 0 ist immer noteoff);
#X obj 34 75 unpack 0 64;
#X obj 46 324 moses 1;
#X msg 47 352 0;
#X obj 76 209 max 0;
#X obj 77 232 t f f;
#X obj 32 151 t f b f;
#X text 29 -2 Notemin and notemax table is for adjusting individuals
notes on the piano which they can play minimal volume and maximal volume.
;
#X obj 123 377 - 1;
#X obj 108 442 * 126;
#X obj 109 466 + 1;
#X obj 33 509 pack 60 100;
#X obj 105 412 * 0.00787402;
#X text 249 427 1/127;
#X obj 154 520 spigot;
#X obj 334 495 tgl 15 0 /pd/piano/\$1/minmaxs/v /pd/piano/\$1/minmaxs/v
v_minmax\$1 0 -6 0 8 -241291 -1 -1 0 1;
#X obj 76 185 min 127;
#X obj 51 299 f 0;
#X obj 118 354 + 0;
#X obj 166 356 + 0;
#X floatatom 133 325 5 0 0 0 - - -;
#X floatatom 233 347 5 0 0 0 - - -;
#X obj 77 269 tabread /piano/\$1/notemaxs;
#X obj 169 246 tabread /piano/\$1/notemins;
#X obj 133 301 r /piano/\$1/main_min;
#X obj 234 327 r /piano/\$1/main_max;
#X obj 155 488 r /piano/\$1/v_minmax;
#X obj 153 546 print minmax\$1_note_out;
#X connect 0 0 3 0;
#X connect 3 0 8 0;
#X connect 3 1 19 1;
#X connect 4 0 5 0;
#X connect 4 1 14 0;
#X connect 5 0 13 1;
#X connect 6 0 7 0;
#X connect 7 0 24 0;
#X connect 7 1 25 0;
#X connect 8 0 13 0;
#X connect 8 1 19 0;
#X connect 8 2 18 0;
#X connect 10 0 11 1;
#X connect 11 0 12 0;
#X connect 12 0 13 1;
#X connect 13 0 1 0;
#X connect 13 0 16 0;
#X connect 14 0 11 0;
#X connect 16 0 29 0;
#X connect 18 0 6 0;
#X connect 19 0 4 0;
#X connect 20 0 10 0;
#X connect 21 0 10 1;
#X connect 21 0 12 1;
#X connect 22 0 20 1;
#X connect 23 0 21 1;
#X connect 24 0 20 0;
#X connect 25 0 21 0;
#X connect 26 0 22 0;
#X connect 27 0 23 0;
#X connect 28 0 16 1;
