#N canvas 467 58 668 275 10;
#X obj 411 244 tabwrite /piano/\$1/notemaxs;
#X obj 411 192 tabread /piano/\$1/notemaxs;
#X obj 411 219 + 10;
#X obj 410 162 t f f;
#X obj 539 88 nbx 5 14 -500 500 0 0 empty empty add_offset_max 0 -8
0 10 -262144 -1 -1 0 256;
#X obj 410 110 + 1;
#X obj 410 138 nbx 5 14 -1e+37 1e+37 0 0 empty empty empty 0 -8 0 10
-262144 -1 -1 0 256;
#X msg 410 85 1;
#X obj 453 90 moses 128;
#X obj 410 25 bng 15 250 50 0 empty empty empty 17 7 0 10 -262144 -1
-1;
#X msg 437 66 0;
#X obj 410 44 t b b;
#X obj 35 222 + 10;
#X obj 34 165 t f f;
#X obj 163 91 nbx 5 14 -500 500 0 0 empty empty add_offset_min 0 -8
0 10 -262144 -1 -1 0 256;
#X obj 34 113 + 1;
#X obj 34 141 nbx 5 14 -1e+37 1e+37 0 0 empty empty empty 0 -8 0 10
-262144 -1 -1 0 256;
#X msg 34 88 1;
#X obj 77 93 moses 128;
#X obj 34 28 bng 15 250 50 0 empty empty empty 17 7 0 10 -262144 -1
-1;
#X msg 61 69 0;
#X obj 34 47 t b b;
#X obj 35 195 tabread /piano/\$1/notemins;
#X obj 35 247 tabwrite /piano/\$1/notemins;
#X text 130 20 Make ranges for the map or copy;
#X connect 1 0 2 0;
#X connect 2 0 0 0;
#X connect 3 0 0 1;
#X connect 3 1 1 0;
#X connect 4 0 2 1;
#X connect 5 0 6 0;
#X connect 5 0 8 0;
#X connect 6 0 3 0;
#X connect 6 0 5 1;
#X connect 7 0 5 0;
#X connect 8 0 7 0;
#X connect 9 0 11 0;
#X connect 10 0 5 1;
#X connect 11 0 7 0;
#X connect 11 1 10 0;
#X connect 12 0 23 0;
#X connect 13 0 23 1;
#X connect 13 1 22 0;
#X connect 14 0 12 1;
#X connect 15 0 16 0;
#X connect 15 0 18 0;
#X connect 16 0 13 0;
#X connect 16 0 15 1;
#X connect 17 0 15 0;
#X connect 18 0 17 0;
#X connect 19 0 21 0;
#X connect 20 0 15 1;
#X connect 21 0 17 0;
#X connect 21 1 20 0;
#X connect 22 0 12 0;
