#N canvas 4 58 450 300 10;
#X obj 36 49 inlet;
#X obj 36 232 outlet;
#X obj 36 80 unpack 60 100;
#X msg 110 168 0;
#X obj 36 203 pack 60 100;
#X obj 111 124 moses 1;
#X obj 111 147 t b;
#X text 78 46 as general veltab for a pianoplayer or individual;
#X text 131 83 NEED: veltab_store <id>;
#X text 35 32 use veltab used with veltabstore <id>;
#X text 36 14 pdpp/veltab/map <id>;
#X obj 162 148 tabread \$1;
#X obj 266 191 print vt-\$1;
#X obj 295 116 r \$1/v;
#X obj 266 149 pack 0 0;
#X obj 266 170 spigot;
#X connect 0 0 2 0;
#X connect 2 0 4 0;
#X connect 2 1 5 0;
#X connect 3 0 4 1;
#X connect 4 0 1 0;
#X connect 5 0 6 0;
#X connect 5 1 11 0;
#X connect 5 1 14 1;
#X connect 6 0 3 0;
#X connect 11 0 4 1;
#X connect 11 0 14 0;
#X connect 13 0 15 1;
#X connect 14 0 15 0;
#X connect 15 0 12 0;
