#N canvas 299 194 644 516 10;
#X obj 307 101 spigot;
#X obj 310 73 tgl 15 0 empty empty empty 0 -6 0 8 -262144 -1 -1 0 1
;
#X obj 33 97 unpack 0 64;
#X obj 35 364 pack 128 100;
#X text 76 148 lowest Note A is MIDI 24 if on an 88-key piano;
#X obj 35 442 outlet;
#X obj 33 43 inlet;
#X obj 254 353 spigot;
#X obj 35 196 t f f;
#X obj 306 123 print notetoreal_in;
#X text 35 475 channel numbers for notes;
#X text 56 7 map notes to I/Os on board;
#X obj 35 219 tabread /piano/\$1/notemap;
#X obj 100 263 max 0;
#X obj 256 384 pack 32 67 100;
#X obj 142 262 r /piano/\$1/vel_scale;
#X text 197 278 scale for better resolution and limit for security
;
#X obj 164 299 r /piano/\$1/vel_limit;
#X text 346 363 debug;
#X text 319 224 Maptable;
#X obj 101 284 * 1;
#X text 234 431 LGPL (c) 2010 algorythmics;
#X obj 72 119 r /piano/\$1/noteoffset;
#X obj 32 121 - 0;
#X obj 443 129 loadbang;
#X text 58 19 loads default file in table: pde_piano_\$1_notemap.txt
;
#X obj 255 408 print notetoral_in_out_vel;
#X obj 101 306 min 8192;
#X msg 396 179 \; /piano/\$1/vel_scale 1 \; /piano/\$1/vel_limit
8192 \; /piano/\$1/noteoffset 0;
#X obj 364 83 tgl 15 0 /piano/\$1/notemap/v /piano/\$1/notemap/v
v_nm 0 -6 0 8 -241291 -1 -1 0 1;
#X obj 307 47 r /piano/\$1/notemap/v;
#X obj 408 156 i \$1;
#X obj 127 45 inlet;
#X obj 32 146 moses 0;
#X text 72 170 <= -1 drop;
#X text 172 45 optional velocity;
#X floatatom 157 196 5 0 0 0 - - -, f 5;
#X connect 0 0 9 0;
#X connect 1 0 0 1;
#X connect 1 0 7 1;
#X connect 2 0 23 0;
#X connect 2 0 36 0;
#X connect 2 1 13 0;
#X connect 3 0 5 0;
#X connect 6 0 0 0;
#X connect 6 0 2 0;
#X connect 7 0 14 0;
#X connect 8 0 12 0;
#X connect 8 1 14 1;
#X connect 12 0 7 0;
#X connect 12 0 3 0;
#X connect 13 0 20 0;
#X connect 14 0 26 0;
#X connect 15 0 20 1;
#X connect 17 0 27 1;
#X connect 20 0 27 0;
#X connect 22 0 23 1;
#X connect 23 0 33 0;
#X connect 23 0 36 0;
#X connect 24 0 31 0;
#X connect 27 0 3 1;
#X connect 27 0 14 2;
#X connect 30 0 1 0;
#X connect 31 0 28 0;
#X connect 33 1 8 0;
