#N canvas 584 58 759 674 10;
#X obj 87 247 t f f;
#X obj 86 192 until 128;
#X obj 86 221 f;
#X obj 117 223 + 1;
#X msg 85 170 128;
#X msg 130 169 0;
#X obj 83 149 t b b;
#X obj 56 102 loadbang;
#X text 95 344 read initial notemap anywhere in your path;
#X obj 87 272 tabwrite /piano/\$1/notemap;
#X text 16 35 loads default file in table: pde_piano_\$1_notemap.txt
;
#X text 17 8 piano/notemap_table <piano_nr>;
#X text 19 22 map notes to I/Os on a board for piano with <piano nr>
;
#N canvas 62 63 474 456 notemap-\$1-table 0;
#N canvas 0 50 450 300 (subpatch) 0;
#X array /piano/\$1/notemap 128 float 2;
#X coords 0 200 128 0 256 400 1 0 0;
#X restore 29 32 graph;
#X text 294 357 A4 ... 69 ... a';
#X text 294 292 A0 ... 21 ... A'';
#X text 294 306 C1 ... 24 ... C';
#X text 293 320 C2 ... 36 ... C;
#X text 294 333 C3 ... 48 ... c;
#X text 294 346 C4 ... 60 ... c';
#X text 293 370 C5 ... 72 ... c'';
#X text 294 383 C6 ... 84 ... c''';
#X text 294 399 C7 ... 96 ... c'''';
#X text 292 415 C8 ... 108 ... c''''';
#X text 294 55 reflects wiring;
#X text 295 127 > 100 is doubled piano;
#X text 295 36 Map of note to finger;
#X restore 43 72 pd notemap-\$1-table;
#X obj 56 122 t b b b;
#X obj 196 110 i \$1;
#X obj 236 79 bng 15 250 50 0 empty empty empty 0 -6 0 8 -262144 -1
-1;
#X msg 413 310 vis \$1;
#X obj 413 332 s pd-notemap-\$1-table;
#X obj 413 288 r /piano/\$1/notmap_vis;
#X obj 413 270 tgl 15 0 /piano/\$1/notmap_vis /piano/\$1/notmap_vis
nm_vis 17 7 0 10 -257985 -1 -1 0 1;
#X obj 304 86 r /piano/\$1/notemap/linear;
#X msg 193 134 \; /piano/\$1/notemap resize 128 \; /piano/\$1/notemap
bounds 0 200 128 0 \; /piano/\$1/notemap xticks 128 2 4 \; /piano/\$1/notemap
yticks 128 2 4 \; /piano/\$1/notemap xlabel -4 0 16 32 48 64 80 96
112 128 \; /piano/\$1/notemap ylabel -4 0 16 32 48 64 80 96 100 116
132 148 164 180 196;
#X obj 40 299 r /piano/\$1/notemap/rheanr;
#X obj 40 320 makefilename notemaps/rhea_%d_notemap.txt;
#X msg 32 505 symbol data/;
#X text 63 389 read from path or filename;
#X obj 31 524 openpanel;
#X msg 33 589 read \$1;
#X obj 34 430 route bang path symbol list;
#X msg 127 511 symbol \$1/\$2;
#X msg 349 510 symbol data/;
#X obj 360 432 route bang path symbol list;
#X msg 459 513 symbol \$1/\$2;
#X msg 345 594 write \$1;
#X obj 31 614 s /piano/\$1/notemap;
#X obj 321 620 print /piano/\$1/notemap;
#X obj 34 409 r /piano/\$1/notemap/read;
#X obj 360 411 r /piano/\$1/notemap/write;
#X obj 348 529 savepanel;
#X obj 348 566 symbol dummy.txt;
#X obj 31 563 symbol dummy.txt;
#X obj 530 416 r /piano/\$1/notemap/save;
#X obj 530 441 route bang symbol;
#X obj 205 409 r /piano/\$1/notemap/load;
#X obj 205 430 route bang symbol;
#X obj 178 643 s /piano/\$1/notemap/filename;
#X obj 40 367 s /piano/\$1/notemap/read;
#X connect 0 0 9 0;
#X connect 0 1 9 1;
#X connect 1 0 2 0;
#X connect 2 0 3 0;
#X connect 2 0 0 0;
#X connect 3 0 2 1;
#X connect 4 0 1 0;
#X connect 5 0 2 1;
#X connect 6 0 4 0;
#X connect 6 1 5 0;
#X connect 7 0 14 0;
#X connect 14 1 6 0;
#X connect 14 2 15 0;
#X connect 15 0 22 0;
#X connect 16 0 15 0;
#X connect 17 0 18 0;
#X connect 19 0 17 0;
#X connect 21 0 6 0;
#X connect 23 0 24 0;
#X connect 24 0 47 0;
#X connect 25 0 27 0;
#X connect 27 0 41 0;
#X connect 28 0 35 0;
#X connect 28 0 36 0;
#X connect 29 0 25 0;
#X connect 29 1 27 0;
#X connect 29 2 41 0;
#X connect 29 3 30 0;
#X connect 30 0 41 0;
#X connect 31 0 39 0;
#X connect 32 0 31 0;
#X connect 32 1 39 0;
#X connect 32 2 40 0;
#X connect 32 3 33 0;
#X connect 33 0 40 0;
#X connect 34 0 35 0;
#X connect 34 0 36 0;
#X connect 37 0 29 0;
#X connect 38 0 32 0;
#X connect 39 0 40 0;
#X connect 40 0 34 0;
#X connect 40 0 46 0;
#X connect 40 0 41 1;
#X connect 41 0 28 0;
#X connect 41 0 40 1;
#X connect 41 0 46 0;
#X connect 42 0 43 0;
#X connect 43 0 40 0;
#X connect 43 1 40 0;
#X connect 44 0 45 0;
#X connect 45 0 41 0;
#X connect 45 1 41 0;
