#N canvas 952 576 450 300 10;
#X text 43 18 midivol_ctl <varname> <ctl nr> <midi channel> <mode>
;
#X obj 41 95 ctlin \$2 \$3;
#X obj 41 121 tabread \$0-mapping;
#X obj 232 122 table \$0-mapping;
#N canvas 364 311 598 461 mapping-tab 1;
#X obj 13 24 loadbang;
#X obj 14 46 t b b b;
#X obj 141 15 bng 15 250 50 0 empty empty empty 17 7 0 10 -262144 -1
-1;
#X msg 91 50 resize 128 \, bounds 0 127 127 0;
#X obj 373 234 t f f;
#X obj 380 173 bng 15 250 50 0 empty empty empty 17 7 0 10 -262144
-1 -1;
#X obj 170 140 s \$0-mapping;
#X msg 41 80 xticks 60 1 12 \, xlabel -5 0 16 32 48 64 80 96 112 128
\, yticks 60 1 12 \, ylabel -3 0 16 32 48 64 80 96 112 128;
#X obj 370 406 tabwrite \$0-mapping;
#X obj 373 293 * 0.25;
#X obj 373 341 sin;
#X obj 374 317 * 6.28319;
#X obj 378 205 for++ 0 100 1;
#X obj 373 270 / 101;
#X obj 373 363 * 100;
#X obj 15 318 i \$0;
#X obj 21 297 bng 15 250 50 0 empty empty empty 17 7 0 10 -262144 -1
-1;
#X obj 14 152 i \$0;
#X msg 13 243 \; \$1-mapping read data/midifader_mapping1.txt;
#X msg 15 344 \; \$1-mapping write ../data/midifader_mapping1.txt;
#X connect 0 0 1 0;
#X connect 1 0 17 0;
#X connect 1 1 7 0;
#X connect 1 2 3 0;
#X connect 2 0 1 0;
#X connect 3 0 6 0;
#X connect 4 0 13 0;
#X connect 4 1 8 1;
#X connect 5 0 12 0;
#X connect 7 0 6 0;
#X connect 9 0 11 0;
#X connect 10 0 14 0;
#X connect 11 0 10 0;
#X connect 12 0 4 0;
#X connect 13 0 9 0;
#X connect 14 0 8 0;
#X connect 15 0 19 0;
#X connect 16 0 15 0;
#X connect 17 0 18 0;
#X restore 237 94 pd mapping-tab;
#X obj 41 143 s \$1;
#X obj 41 167 r \$1/set;
#X obj 41 190 ctlout \$2 \$3;
#X text 48 41 mode 0 is exponential;
#X connect 1 0 2 0;
#X connect 2 0 5 0;
#X connect 6 0 7 0;
