#N canvas 245 291 450 300 10;
#X msg 30 129 0;
#X obj 242 126 >> 8;
#X obj 242 150 & 255;
#X obj 201 150 & 255;
#X obj 202 103 t f f;
#X obj 7 212 pack 0 0 0 0 0 1 255 255;
#X obj 7 99 t b b f;
#X text 311 134 get_ticks ?;
#X obj 7 238 outlet;
#X obj 254 8 inlet velocity;
#X text 270 37 16 bit acuracity;
#X text 268 26 velocity 0...32768;
#X text 270 65 eg 100=5ms;
#X obj 7 18 inlet finger;
#X text 6 255 <timestamp(4B)> <type(1B)> <relaisnr(1B)> <velocity(2B)>
;
#X text 68 106 playnote type = 0;
#X obj 289 118 inlet timestamp;
#X text 12 38 finger number 1..88 each board;
#X text 269 50 in 50us steps;
#X obj 289 160 pde/w2b;
#X obj 6 80 & 255;
#X obj 8 58 unpack 21 64;
#X connect 0 0 5 4;
#X connect 1 0 2 0;
#X connect 2 0 5 7;
#X connect 3 0 5 6;
#X connect 4 0 3 0;
#X connect 4 1 1 0;
#X connect 5 0 8 0;
#X connect 6 0 5 0;
#X connect 6 1 0 0;
#X connect 6 2 5 5;
#X connect 9 0 4 0;
#X connect 13 0 21 0;
#X connect 16 0 19 0;
#X connect 19 0 5 0;
#X connect 19 1 5 1;
#X connect 19 2 5 2;
#X connect 19 3 5 3;
#X connect 20 0 6 0;
#X connect 21 0 20 0;
#X connect 21 1 4 0;
