#N canvas 304 100 450 300 10;
#X obj 38 115 ms_to_mtcms;
#X obj 110 177 change;
#X obj 64 175 change;
#X obj 10 177 change;
#X obj 50 73 inlet;
#X obj 14 221 s \$1_h;
#X obj 71 218 s \$1_m;
#X obj 127 218 s \$1_s;
#X obj 186 215 s \$1_ms;
#X text 26 22 convert ms to MidiTimeCode with ms;
#X obj 182 188 change;
#X connect 0 0 3 0;
#X connect 0 1 2 0;
#X connect 0 2 1 0;
#X connect 0 3 10 0;
#X connect 1 0 7 0;
#X connect 2 0 6 0;
#X connect 3 0 5 0;
#X connect 4 0 0 0;
#X connect 10 0 8 0;
