#N canvas 0 0 450 300 10;
#X obj 271 22 inlet fps;
#X obj 235 188 outlet fr;
#X obj 33 190 outlet h;
#X obj 98 194 outlet m;
#X obj 159 191 outlet s;
#X obj 170 116 % 60;
#X obj 107 84 / 60;
#X obj 107 120 % 60;
#X obj 43 118 / 60;
#X obj 42 152 int;
#X text 28 208 h;
#X text 123 218 m;
#X text 161 222 s;
#X text 246 216 fr;
#X obj 28 20 inlet ms;
#X obj 164 66 / 1000;
#X obj 216 100 % 1000;
#X obj 276 106 / 25;
#X obj 273 50 t b f;
#X msg 273 82 1000;
#X floatatom 363 68 5 0 0 0 - - -;
#X obj 240 134 / 40;
#X obj 244 165 int;
#X text 107 5 ms to mtc;
#X connect 0 0 18 0;
#X connect 5 0 4 0;
#X connect 6 0 7 0;
#X connect 6 0 8 0;
#X connect 7 0 3 0;
#X connect 8 0 9 0;
#X connect 9 0 2 0;
#X connect 14 0 15 0;
#X connect 14 0 16 0;
#X connect 15 0 5 0;
#X connect 15 0 6 0;
#X connect 16 0 21 0;
#X connect 17 0 21 1;
#X connect 18 0 19 0;
#X connect 18 1 17 1;
#X connect 19 0 17 0;
#X connect 20 0 18 0;
#X connect 21 0 22 0;
#X connect 22 0 1 0;
