#N canvas 75 66 254 385 10;
#X obj 55 179 * 1000;
#X obj 55 207 +;
#X obj 40 105 * 60000;
#X obj 20 61 * 3.6e+06;
#X obj 41 230 +;
#X obj 23 254 +;
#X text 61 260 time ms;
#X obj 24 11 inlet;
#X obj 73 13 inlet;
#X obj 122 19 inlet;
#X obj 169 10 inlet;
#X obj 22 284 outlet;
#X text 121 47 mtcms;
#X obj 18 83 t f b;
#X obj 40 140 t f b;
#X connect 0 0 1 0;
#X connect 1 0 4 1;
#X connect 2 0 14 0;
#X connect 3 0 13 0;
#X connect 4 0 5 1;
#X connect 5 0 11 0;
#X connect 7 0 3 0;
#X connect 8 0 2 0;
#X connect 9 0 0 0;
#X connect 10 0 1 1;
#X connect 13 0 5 0;
#X connect 13 1 2 0;
#X connect 14 0 4 0;
#X connect 14 1 0 0;
