#N canvas 216 269 788 495 10;
#X obj 29 252 r gemwin;
#X obj 60 73 t b b b b;
#X obj 30 47 route 0 1;
#X msg 30 196 0 \, destroy;
#X obj 280 109 spigot;
#X text 656 163 initial props;
#X text 339 365 fullscreen overwrite;
#X obj 30 24 r /vi/view/create;
#X obj 321 63 r /vi/view/fullscreen;
#X msg 139 151 create :0.1 \, 1;
#X obj 30 226 s gemwin;
#X obj 106 105 r /vi/view/separateX;
#X msg 79 174 create \, 1;
#X obj 280 139 f 1600;
#X obj 79 130 demux 0 1;
#X obj 29 274 gemwin \$1;
#X obj 551 146 f 400;
#X text 303 3 simple init GemWindow with either fullscreen or quarter
of size in window for programming. Parameters for fullscreen width
and height \, seperateX can be send before create 1;
#X text 101 50 1 view \, 0 unview;
#X text 35 -2 gem_init <framerate> <offset x y>;
#X obj 278 268 pack 1600 900 \$2 \$3;
#X obj 551 166 pack 400 225;
#X obj 323 166 r /vi/view/height;
#X obj 343 131 r /vi/view/width;
#X obj 366 187 r /vi/view/offset_x;
#X obj 391 210 r /vi/view/offset_y;
#X obj 547 81 r /vi/view/width;
#X obj 605 101 r /vi/view/height;
#X obj 547 106 * 0.33;
#X obj 603 121 * 0.33;
#X msg 550 191 \; gemwin reset \; gemwin offset 0 0 \; gemwin dimen
\$1 \$2 \; gemwin lighting 0 \; gemwin title maschinenhalle \; gemwin
fullscreen 0 \; gemwin menubar 0 \; gemwin topmost 1 \; gemwin buffer
2 \; gemwin FSAA 5;
#X obj 592 56 r /vi/view/devscreen;
#X msg 298 289 \; gemwin offset \$3 \$4 \; gemwin border 0 \; gemwin
cursor 0 \; gemwin dimen \$1 \$2 \; # gemwin fullscreen 1 \;;
#X obj 307 384 r /vi/view/fullscreen_no_intel;
#X obj 264 404 spigot 0;
#X msg 264 423 \; gemwin fullscreen 1 \;;
#X text 353 404 on intel dual screen it does not work;
#X connect 0 0 15 0;
#X connect 1 1 14 0;
#X connect 1 2 4 0;
#X connect 1 3 16 0;
#X connect 2 0 3 0;
#X connect 2 1 1 0;
#X connect 3 0 10 0;
#X connect 4 0 13 0;
#X connect 7 0 2 0;
#X connect 8 0 4 1;
#X connect 9 0 10 0;
#X connect 11 0 14 1;
#X connect 12 0 10 0;
#X connect 13 0 20 0;
#X connect 14 0 12 0;
#X connect 14 1 9 0;
#X connect 16 0 21 0;
#X connect 20 0 32 0;
#X connect 20 0 34 0;
#X connect 21 0 30 0;
#X connect 22 0 20 1;
#X connect 23 0 13 1;
#X connect 24 0 20 2;
#X connect 25 0 20 3;
#X connect 26 0 28 0;
#X connect 27 0 29 0;
#X connect 28 0 16 1;
#X connect 29 0 21 1;
#X connect 31 0 28 1;
#X connect 31 0 29 1;
#X connect 33 0 34 1;
#X connect 34 0 35 0;
