#N canvas 403 239 1009 581 10;
#X obj 28 462 pix_texture;
#X obj 298 142 bng 25 250 50 0 empty empty empty 0 -6 0 8 -262144 -1
-1;
#X obj 71 284 unpack 0 0 0;
#X floatatom 61 307 5 0 0 3 length - -;
#X floatatom 110 307 5 0 0 3 width - -;
#X floatatom 160 307 5 0 0 3 height - -;
#X obj 48 342 bng 15 250 50 0 empty empty end_reached 20 7 0 10 -262144
-1 -1;
#X obj 298 171 openpanel;
#X obj 28 266 pix_film;
#X obj 66 200 tgl 15 0 empty empty empty 0 -6 0 8 -262144 -1 -1 0 1
;
#X obj 28 484 rectangle 16 9;
#X obj 195 425 * 16;
#X obj 239 425 * 9;
#X floatatom 201 390 5 0 0 0 - - -;
#X msg 203 371 0.45;
#X obj 201 350 loadbang;
#X msg 298 191 set open \$1;
#X msg 172 166 0;
#X msg 65 159 1;
#X obj 137 78 bng 15 250 50 0 empty empty empty 17 7 0 10 -262144 -1
-1;
#X obj 138 97 t b b b b;
#X obj 153 196 t b b;
#X msg 126 160 1;
#X obj 245 140 t b b;
#X obj 72 126 del 50;
#X obj 210 173 del 1000;
#X msg 210 192 2;
#X obj 344 465 pix_image;
#X obj 338 394 tgl 15 0 empty empty empty 17 7 0 10 -262144 -1 -1 1
1;
#X obj 341 414 gemhead 40;
#X obj 323 323 sel 0 1;
#X msg 347 358 0;
#X msg 388 378 1;
#X obj 453 353 del 3000;
#X obj 404 316 t b b;
#X obj 48 359 s film_end;
#X obj 366 284 r film_end;
#X obj 91 222 spigot;
#X msg 135 363 1024 \$1;
#X obj 135 384 /;
#X obj 135 405 * 0.45;
#X obj 346 104 tgl 15 0 empty empty empty 17 7 0 10 -262144 -1 -1 0
1;
#X obj 351 137 s gem_fullscreen;
#X obj 201 48 route start stop frame fullscreen init;
#X obj 27 245 gemhead 50;
#X obj 21 214 tgl 15 0 empty empty empty 17 7 0 10 -262144 -1 -1 0
1;
#X floatatom 293 464 5 0 0 0 - - -;
#X obj 343 487 pix_texture;
#X obj 343 509 rectangle 16 9;
#X obj 605 262 bng 25 250 50 0 empty empty empty 0 -6 0 8 -262144 -1
-1;
#X obj 605 291 openpanel;
#X msg 605 311 set open \$1;
#X obj 385 353 del 10000;
#X obj 262 116 bng 15 250 50 0 empty empty empty 17 7 0 10 -262144
-1 -1;
#X msg 355 439 open data/titel.jpg;
#X msg 225 221 open data/text_wxga_1366x768.mov;
#X connect 0 0 10 0;
#X connect 1 0 7 0;
#X connect 2 0 3 0;
#X connect 2 1 4 0;
#X connect 2 2 5 0;
#X connect 4 0 38 0;
#X connect 6 0 35 0;
#X connect 7 0 16 0;
#X connect 8 0 0 0;
#X connect 8 1 2 0;
#X connect 8 2 6 0;
#X connect 8 2 21 0;
#X connect 9 0 30 0;
#X connect 9 0 37 1;
#X connect 9 0 45 0;
#X connect 11 0 10 1;
#X connect 11 0 48 1;
#X connect 12 0 10 2;
#X connect 12 0 48 2;
#X connect 13 0 11 0;
#X connect 13 0 12 0;
#X connect 14 0 13 0;
#X connect 15 0 14 0;
#X connect 16 0 55 0;
#X connect 17 0 9 0;
#X connect 18 0 9 0;
#X connect 19 0 20 0;
#X connect 20 0 24 0;
#X connect 20 1 22 0;
#X connect 20 3 17 0;
#X connect 21 0 22 0;
#X connect 21 1 17 0;
#X connect 22 0 8 1;
#X connect 23 0 22 0;
#X connect 23 1 17 0;
#X connect 24 0 18 0;
#X connect 25 0 26 0;
#X connect 26 0 8 1;
#X connect 27 0 47 0;
#X connect 28 0 29 0;
#X connect 29 0 27 0;
#X connect 30 1 31 0;
#X connect 31 0 28 0;
#X connect 32 0 28 0;
#X connect 33 0 32 0;
#X connect 34 0 32 0;
#X connect 34 1 54 0;
#X connect 36 0 52 0;
#X connect 37 0 8 1;
#X connect 38 0 39 0;
#X connect 39 0 40 0;
#X connect 39 0 46 0;
#X connect 40 0 13 0;
#X connect 41 0 42 0;
#X connect 43 0 19 0;
#X connect 43 1 23 0;
#X connect 43 1 33 0;
#X connect 43 2 37 0;
#X connect 43 3 41 0;
#X connect 44 0 8 0;
#X connect 45 0 44 0;
#X connect 47 0 48 0;
#X connect 49 0 50 0;
#X connect 50 0 51 0;
#X connect 51 0 54 0;
#X connect 52 0 32 0;
#X connect 53 0 23 0;
#X connect 54 0 27 0;
#X connect 55 0 8 0;
