#N canvas 948 482 419 389 10;
#X obj 37 329 rectangle 4 3;
#X obj 37 169 pix_texture;
#X obj 37 80 inlet;
#X obj 80 220 r /vi/screen/\$1/scale;
#X obj 153 103 r /vi/screen/\$1/x;
#X obj 161 123 r /vi/screen/\$1/y;
#X obj 161 143 t b f;
#X obj 80 241 f \$2;
#X text 33 21 eg screen A 0.5 0.5 0.4 (top right);
#X text 34 33 eg screen A 0.5 -0.5 0.4 (top left);
#X text 35 48 eg screen A 1 0 0 (full);
#X obj 37 129 spigot 1;
#X obj 89 83 r /vi/screen/\$1/on;
#X obj 172 266 r /vi/screen/\$1/h;
#X obj 129 241 r /vi/screen/\$1/w;
#X obj 37 193 translate 1 0 0 0;
#X obj 128 267 t b f;
#X obj 172 287 t b f;
#X obj 81 303 * \$3;
#X obj 172 308 * \$4;
#X obj 153 168 pack \$5 \$6 0;
#X text 34 8 screen <id> <scale> <w> <h> [x] [y];
#N canvas 1470 445 551 251 init 0;
#X obj 31 53 loadbang;
#X obj 32 101 s /vi/screen/\$1/on;
#X msg 32 77 1;
#X obj 32 152 f \$2;
#X obj 33 174 s /vi/screen/\$1/scale;
#X obj 31 128 loadbang;
#X obj 220 48 loadbang;
#X obj 218 116 loadbang;
#X obj 360 44 loadbang;
#X obj 361 115 loadbang;
#X obj 222 94 s /vi/screen/\$1/w;
#X obj 220 162 s /vi/screen/\$1/h;
#X obj 362 90 s /vi/screen/\$1/x;
#X obj 363 161 s /vi/screen/\$1/y;
#X obj 221 72 f \$3;
#X obj 219 140 f \$4;
#X obj 361 68 f \$5;
#X obj 362 139 f \$6;
#X connect 0 0 2 0;
#X connect 2 0 1 0;
#X connect 3 0 4 0;
#X connect 5 0 3 0;
#X connect 6 0 14 0;
#X connect 7 0 15 0;
#X connect 8 0 16 0;
#X connect 9 0 17 0;
#X connect 14 0 10 0;
#X connect 15 0 11 0;
#X connect 16 0 12 0;
#X connect 17 0 13 0;
#X restore 264 184 pd init;
#X connect 1 0 15 0;
#X connect 2 0 11 0;
#X connect 3 0 7 0;
#X connect 4 0 20 0;
#X connect 5 0 6 0;
#X connect 6 0 20 0;
#X connect 6 1 20 1;
#X connect 7 0 18 0;
#X connect 7 0 19 0;
#X connect 11 0 1 0;
#X connect 12 0 11 1;
#X connect 13 0 17 0;
#X connect 14 0 16 0;
#X connect 15 0 0 0;
#X connect 16 0 18 0;
#X connect 16 1 18 1;
#X connect 17 0 19 0;
#X connect 17 1 19 1;
#X connect 18 0 0 1;
#X connect 19 0 0 2;
#X connect 20 0 15 2;
