#N canvas 108 354 594 374 10;
#X text 150 50 uses screen parameter;
#X obj 307 34 loadbang;
#X obj 306 80 s /vi/text/\$1/line/width;
#X obj 67 61 loadbang;
#X obj 67 84 list append \$1;
#X obj 205 148 text_line 2 7 \$1 line-2;
#X obj 207 169 text_line 3 7 \$1 line-3;
#X obj 207 190 text_line 4 7 \$1 line-4;
#X obj 208 211 text_line 5 7 \$1 line-5;
#X obj 208 232 text_line 6 7 \$1 line-6;
#X obj 208 254 text_line 7 7 \$1 line-7;
#X obj 205 127 text_line 1 7 \$1 A_line-1;
#X obj 62 216 r /vi/text/\$1/h;
#X obj 61 193 r /vi/text/\$1/w;
#X text 62 171 dummies;
#X obj 69 250 tgl 15 0 /vi/text/\$1/2D /vi/text/\$1/2D /vi/text/\$1/2D
17 7 0 10 -262144 -1 -1 1 1;
#X obj 205 106 text_line 0 7 \$1 123456789_123456789_123456789_12;
#X obj 87 291 bng 15 250 50 0 /vi/text/\$1/clear /vi/text/\$1/clear
/vi/text/\$1/clear 17 7 0 10 -262144 -1 -1;
#X msg 64 114 \; /vi/text/\$1/w 4 \; /vi/text/\$1/h 3 \; /vi/text/\$1/2D
1, f 18;
#X obj 192 84 bng 15 250 50 0 empty empty empty 17 7 0 10 -262144 -1
-1;
#X text 27 8 vi/text_linex <id> <num of lines> <screen id> <size>;
#X msg 307 57 42;
#X text 338 54 default;
#X connect 1 0 21 0;
#X connect 3 0 4 0;
#X connect 4 0 18 0;
#X connect 19 0 4 0;
#X connect 21 0 2 0;
