#N canvas 645 212 598 500 10;
#X obj 219 321 list prepend;
#X msg 270 301 list;
#X obj 218 452 text3d;
#X obj 48 327 color 1 1 1;
#X obj 48 275 gemhead 100;
#X obj 364 294 loadbang;
#X msg 428 348 justify center middle;
#X msg 315 346 font dinmi.ttf;
#X msg 227 390 text;
#X msg 307 387 12;
#X obj 48 301 translateXYZ 0 -1.8 0;
#X obj 54 44 loadbang;
#X obj 54 92 i \$1;
#X obj 54 114 / 5;
#X obj 54 67 t b b;
#X obj 98 90 i \$2;
#X obj 54 137 - 0.5;
#X obj 278 21 loadbang;
#X obj 278 44 list append \$4;
#X obj 56 219 * -6;
#X obj 100 118 r /vi/text/\$3/h;
#X text 83 22 textline <num> <lines> <text id>;
#X obj 101 168 t b f;
#X floatatom 152 76 5 0 0 0 - - -;
#X obj 101 145 * -2;
#X floatatom 449 459 5 0 0 0 - - -;
#X obj 336 445 text2d;
#X obj 437 391 loadbang;
#X msg 437 414 alias 1;
#X obj 88 400 demux;
#X obj 115 377 tgl 15 0 empty empty empty 17 7 0 10 -262144 -1 -1 1
1;
#X floatatom 398 224 5 0 0 0 - - -;
#X obj 216 184 route \$1;
#X text 216 141 <lin nr> <text list>;
#X obj 114 352 r /vi/text/\$3/2D;
#X obj 217 161 r /vi/text/\$3/text;
#X obj 216 205 s /vi/text/\$3/line/\$1/text;
#X obj 217 234 r /vi/text/\$3/line/\$1/text;
#X obj 278 67 s /vi/text/\$3/line/\$1/text;
#X obj 343 407 * 2;
#X obj 308 261 r /vi/text/\$3/clear;
#X obj 111 232 r /vi/text/\$3/on;
#X obj 218 268 t a b;
#X msg 208 481 text "123456789012345678901234567890123456789012";
#X obj 398 98 r /vi/view/width;
#X obj 398 179 / 42;
#X obj 398 200 * 2;
#X text 424 201 height=2*width each char;
#X obj 416 120 r /vi/text/\$3/line/width;
#X obj 416 141 t b f;
#X connect 0 0 2 0;
#X connect 0 0 26 0;
#X connect 1 0 0 1;
#X connect 3 0 29 0;
#X connect 4 0 10 0;
#X connect 5 0 7 0;
#X connect 5 0 9 0;
#X connect 5 0 6 0;
#X connect 5 0 8 0;
#X connect 6 0 2 0;
#X connect 6 0 26 0;
#X connect 7 0 2 0;
#X connect 7 0 26 0;
#X connect 8 0 2 0;
#X connect 8 0 26 0;
#X connect 9 0 2 1;
#X connect 9 0 39 0;
#X connect 10 0 3 0;
#X connect 11 0 14 0;
#X connect 12 0 13 0;
#X connect 13 0 16 0;
#X connect 14 0 12 0;
#X connect 14 1 15 0;
#X connect 15 0 13 1;
#X connect 16 0 19 0;
#X connect 17 0 18 0;
#X connect 18 0 38 0;
#X connect 19 0 10 2;
#X connect 20 0 24 0;
#X connect 22 0 19 0;
#X connect 22 1 19 1;
#X connect 23 0 24 0;
#X connect 24 0 22 0;
#X connect 25 0 2 1;
#X connect 27 0 28 0;
#X connect 28 0 26 0;
#X connect 29 0 2 0;
#X connect 29 1 26 0;
#X connect 30 0 29 1;
#X connect 31 0 26 1;
#X connect 32 0 36 0;
#X connect 34 0 30 0;
#X connect 35 0 32 0;
#X connect 37 0 42 0;
#X connect 39 0 26 1;
#X connect 40 0 8 0;
#X connect 41 0 4 0;
#X connect 42 0 0 0;
#X connect 42 1 1 0;
#X connect 43 0 2 0;
#X connect 43 0 26 0;
#X connect 44 0 45 0;
#X connect 45 0 46 0;
#X connect 46 0 31 0;
#X connect 48 0 49 0;
#X connect 49 0 45 0;
#X connect 49 1 45 1;
