#N canvas 593 185 770 466 10;
#X obj 32 308 pix_video;
#X msg 175 132 device \$1;
#X obj 39 89 gemhead;
#X obj 176 50 loadbang;
#X obj 177 107 i \$2;
#X obj 31 344 outlet;
#X text 33 28 eg video A 0;
#X text 34 15 video_screen <id> <videodev>;
#X msg 65 196 colorspace \$1;
#X obj 367 246 print video-\$1;
#X obj 93 345 s /vi/video/\$1/info;
#X obj 364 190 r /vi/video/\$1/info;
#X obj 365 223 spigot 1;
#X obj 66 166 r /vi/video/\$1/colorspace;
#X obj 183 80 r /vi/video/\$1/device;
#X obj 184 283 pack \$3 \$4;
#X obj 185 261 loadbang;
#X msg 148 308 dimen \$1 \$2;
#X obj 148 244 r /vi/video/\$1/dimen;
#X msg 351 155 set Contrast \$1;
#X floatatom 381 68 5 0 0 0 - - -, f 5;
#X obj 353 114 r /vi/video/\$1/contrast;
#X msg 218 388 enumProps;
#X floatatom 397 316 5 0 0 0 - - -, f 5;
#X msg 357 418 clearProps;
#X msg 223 411 applyProps;
#X msg 333 349 set sharpness \$1;
#X msg 347 280 get Sharpness;
#X obj 15 128 r /vi/video/\$1/video;
#X obj 436 224 r /vi/video/\$1/verbose;
#X obj 39 48 r /vi/video/\$1/on;
#X connect 0 0 5 0;
#X connect 0 1 10 0;
#X connect 1 0 0 0;
#X connect 2 0 0 0;
#X connect 3 0 4 0;
#X connect 4 0 1 0;
#X connect 8 0 0 0;
#X connect 11 0 12 0;
#X connect 12 0 9 0;
#X connect 13 0 8 0;
#X connect 14 0 4 0;
#X connect 15 0 17 0;
#X connect 16 0 15 0;
#X connect 17 0 0 0;
#X connect 18 0 17 0;
#X connect 19 0 0 0;
#X connect 20 0 19 0;
#X connect 21 0 19 0;
#X connect 22 0 0 0;
#X connect 23 0 26 0;
#X connect 24 0 0 0;
#X connect 25 0 0 0;
#X connect 26 0 0 0;
#X connect 27 0 0 0;
#X connect 28 0 0 0;
#X connect 29 0 12 1;
#X connect 30 0 2 0;
