#N canvas 1031 591 450 240 10;
#X msg 40 29 allNotesOff;
#X msg 125 33 64 100;
#X msg 177 30 64 0;
#X text 71 10 --- test ---;
#X obj 40 172 netsend -u -b;
#X obj 41 199 tgl 15 0 empty empty empty 17 7 0 10 -262144 -1 -1 1
1;
#X msg 115 149 connect 127.0.0.1 7777;
#X obj 289 38 tgl 15 0 empty empty empty 17 7 0 10 -262144 -1 -1 0
1;
#X obj 289 58 metro 1000;
#X obj 290 108 makenote 100 300;
#X obj 290 84 f 68;
#X floatatom 328 86 5 0 0 0 - - -, f 5;
#X obj 96 77 r /osc/note;
#X obj 290 153 s /osc/note;
#X obj 40 125 list prepend send;
#X obj 40 150 list trim;
#X obj 40 103 oscformat piano 1 note;
#X obj 290 129 pack 69 100;
#X connect 0 0 16 0;
#X connect 1 0 16 0;
#X connect 2 0 16 0;
#X connect 4 0 5 0;
#X connect 6 0 4 0;
#X connect 7 0 8 0;
#X connect 8 0 10 0;
#X connect 9 0 17 0;
#X connect 9 1 17 1;
#X connect 10 0 9 0;
#X connect 11 0 10 1;
#X connect 12 0 16 0;
#X connect 14 0 15 0;
#X connect 15 0 4 0;
#X connect 16 0 14 0;
#X connect 17 0 13 0;
