#N canvas 268 611 480 174 10;
#X obj 11 11 cnv 15 198 48 empty empty NOTEEQ_\$1_CTL 3 10 0 14 -233017
-66577 0;
#X obj 125 13 tgl 15 0 /piano/noteeq/\$1/vis /piano/noteeq/\$1/vis
v_noteeq_\$1 17 7 0 10 -257985 -1 -1 0 1;
#X obj 15 34 bng 15 250 50 0 empty empty read 17 7 0 10 -4034 -1 -1
;
#X msg 16 75 read;
#X obj 126 34 bng 15 250 50 0 empty empty lin 17 7 0 10 -262144 -1
-1;
#X msg 118 74 linear;
#X msg 61 76 write;
#X obj 61 35 bng 15 250 50 0 empty empty write 17 7 0 10 -258113 -1
-1;
#X obj 16 106 s /piano/noteeq/\$1;
#X connect 2 0 3 0;
#X connect 3 0 8 0;
#X connect 4 0 5 0;
#X connect 5 0 8 0;
#X connect 6 0 8 0;
#X connect 7 0 6 0;
#X coords 0 -1 1 1 200 50 1 10 10;
