#N canvas 471 353 521 161 10;
#X text 20 46 a storage for veltabs \, (to be refined with load and
store methods);
#X text 25 29 piano/veltab_store <id>;
#X msg 168 109 vis \$1;
#X obj 27 81 table noteeq-\$1;
#N canvas 680 166 635 312 noteeq 0;
#X obj 13 24 loadbang;
#X msg 83 20 resize 128 \, bounds 0 127 127 0;
#X obj 436 143 for++ 0 127 1;
#X obj 443 173 t f f;
#X obj 444 122 bng 15 250 50 0 empty empty empty 17 7 0 10 -262144
-1 -1;
#X obj 14 46 t b b b;
#X text 471 119 linear;
#X obj 36 194 any \$1;
#X obj 86 194 any \$1;
#X obj 35 146 route read write linear const1;
#X text 84 4 INIT tab and and label;
#X obj 35 171 route bang;
#X obj 128 170 route bang;
#X text 176 98 methods are read default \, write default \, linear
and const1;
#X obj 183 194 bng 15 250 50 0 empty empty empty 17 7 0 10 -262144
-1 -1;
#X obj 36 125 r /piano/noteeq/\$1;
#X obj 74 102 s noteeq-\$1;
#X msg 36 216 read noteeq-\$1.txt;
#X msg 60 248 write noteeq-\$1.txt;
#X obj 443 210 tabwrite noteeq-\$1;
#X obj 237 256 s noteeq-\$1;
#X obj 36 275 s noteeq-\$1;
#X msg 238 233 const 100;
#X msg 82 45 xticks 60 1 10 \, xticks 60 1 12 \, xlabel -5 21 24 36
48 60 69 72 84 96 108 \, yticks 60 1 10 \, ylabel -3 10 20 30 40 50
60 70 80 90 100 110 120 127;
#X connect 0 0 5 0;
#X connect 1 0 16 0;
#X connect 2 0 3 0;
#X connect 3 0 19 0;
#X connect 3 1 19 1;
#X connect 4 0 2 0;
#X connect 5 0 22 0;
#X connect 5 1 23 0;
#X connect 5 2 1 0;
#X connect 7 0 17 0;
#X connect 8 0 18 0;
#X connect 9 0 11 0;
#X connect 9 1 12 0;
#X connect 9 2 22 0;
#X connect 9 3 22 0;
#X connect 11 0 7 0;
#X connect 12 0 8 0;
#X connect 14 0 12 0;
#X connect 15 0 9 0;
#X connect 17 0 21 0;
#X connect 18 0 21 0;
#X connect 22 0 20 0;
#X connect 23 0 16 0;
#X restore 26 101 pd noteeq;
#X obj 167 87 r /piano/noteeq/\$1/vis;
#X obj 166 132 s pd-noteeq-\$1;
#X connect 2 0 6 0;
#X connect 5 0 2 0;
