#N canvas 152 157 697 402 10;
#X obj 11 11 cnv 15 198 198 empty empty PIANO_\$1_CTL 3 10 0 14 -233017
-66577 0;
#X symbolatom 50 47 15 0 0 2 piano_ip - /piano/ip, f 15;
#X obj 13 47 nbx 3 14 -1e+37 1e+37 0 0 /piano/rheanr /piano/rheanr
rheanr 0 -8 0 10 -262144 -1 -1 0 256;
#X obj 153 47 nbx 5 14 -1e+37 1e+37 0 0 /piano/portnr /piano/portnr
portnr 0 -8 0 10 -262144 -1 -1 0 256;
#X obj 169 14 tgl 15 0 /piano/\$1/on /piano/\$1/on ON 17 7 0 10 -204786
-1 -1 1 1;
#X msg -106 33 set \$1;
#X obj 23 109 tgl 15 0 /piano/\$1/veltab/\$1/vis /piano/\$1/veltab/\$1/vis
vt_\$1 17 7 0 10 -257985 -1 -1 1 1;
#X obj 26 190 tgl 15 0 /piano/1/minmaxs/edit/gui /piano/1/minmaxs/edit/gui
v_editminmaxs 17 7 0 10 -257985 -1 -1 1 1;
#X obj 26 158 tgl 15 0 /piano/\$1/notemap/edit/gui /piano/\$1/notemap/edit/gui
nm_edit_\$1 17 7 0 10 -257985 -1 -1 1 1;
#X obj 129 105 bng 15 250 50 0 empty empty read_vt 17 7 0 10 -4034
-1 -1;
#X msg 112 261 read;
#X obj 23 131 bng 15 250 50 0 empty empty lin 17 7 0 10 -262144 -1
-1;
#X msg 229 251 linear;
#X msg 158 246 write;
#X obj 130 125 bng 15 250 50 0 empty empty write_vt 17 7 0 10 -258113
-1 -1;
#X text 46 93 ------ VELTAB -------;
#X text 37 145 ------ Notemap ---------;
#X text 38 175 ------ minmaxs ---------;
#X obj -105 10 r /piano/ip;
#X obj 112 282 s /piano/\$1/veltab/\$1;
#X obj 75 122 nbx 3 14 0 200 0 0 empty empty empty 0 -8 0 10 -262144
-1 -1 100 256;
#X obj 242 161 / 100;
#X msg 242 182 linear \$1;
#X obj 238 24 loadbang;
#X msg 238 45 set 100;
#X text -89 229 piano_ctl <piano_id> <veltab_id>;
#N canvas 598 483 365 146 piano-\$1-doubleip 0;
#X msg 54 58 set \$1;
#X obj 54 37 r /piano/double/ip;
#X obj 11 11 cnv 15 198 98 empty empty PIANO_\$1_Double 3 10 0 14 -233017
-66577 0;
#X obj 13 77 nbx 3 14 -1e+37 1e+37 0 0 /piano/double/rheanr /piano/double/rheanr
double 0 -8 0 10 -262144 -1 -1 0 256;
#X symbolatom 50 77 15 0 0 2 piano_ip - /piano/ip, f 15;
#X obj 153 77 nbx 5 14 -1e+37 1e+37 0 0 /piano/double/portnr /piano/double/portnr
portnr 0 -8 0 10 -262144 -1 -1 0 256;
#X connect 0 0 4 0;
#X connect 1 0 0 0;
#X restore 235 73 pd piano-\$1-doubleip;
#X obj 228 103 pack 1 \$1;
#X msg 228 125 \; pd-piano-\$2-doubleip vis \$1;
#X obj 157 69 tgl 15 0 empty empty double 17 7 0 10 -228856 -1 -1 0
1;
#X connect 5 0 1 0;
#X connect 9 0 10 0;
#X connect 10 0 19 0;
#X connect 11 0 12 0;
#X connect 12 0 19 0;
#X connect 13 0 19 0;
#X connect 14 0 13 0;
#X connect 18 0 5 0;
#X connect 20 0 21 0;
#X connect 21 0 22 0;
#X connect 22 0 19 0;
#X connect 23 0 24 0;
#X connect 24 0 20 0;
#X connect 27 0 28 0;
#X connect 29 0 27 0;
#X coords 0 -1 1 1 200 200 1 10 10;
