#N canvas 215 61 609 361 10;
#X obj 22 103 inlet;
#X text 27 40 Needed objects to play one piano with nr <piano_nr>;
#X text 235 273 finger command;
#X text 216 131 Map vel 0..127 to real: vels 0...16000;
#X text 164 221 map notes to finger;
#X text 443 205 piano hold command;
#X text 28 71 Piano commands have to compatible to rhea firmware !!!!
(now V1.1);
#X obj 22 128 spigot 1;
#X obj 67 103 r /piano/\$1/on;
#N canvas 393 163 450 300 split 0;
#X obj 24 50 inlet;
#X obj 24 72 unpack 68 100;
#X obj 24 94 moses 100;
#X obj 83 122 - 100;
#X obj 24 162 pack 68 100;
#X obj 114 161 pack 68 100;
#X obj 24 184 outlet;
#X obj 115 190 outlet;
#X text 148 46 More than 100 is second piano;
#X connect 0 0 1 0;
#X connect 1 0 2 0;
#X connect 1 1 4 1;
#X connect 1 1 5 1;
#X connect 2 0 4 0;
#X connect 2 1 3 0;
#X connect 3 0 5 0;
#X connect 4 0 6 0;
#X connect 5 0 7 0;
#X restore 22 239 pd split for doubled;
#X obj 47 215 r /piano/\$1/finger;
#X text 192 245 for direct control;
#X text 24 8 pdpp/piano/stack <piano_nr=send1 nr> [send2 nr];
#X obj 350 238 spigot \$2;
#X text 445 240 if second piano;
#X obj 97 131 ../minmax/edit \$1;
#X obj 22 158 ../minmax/map \$1;
#X obj 22 188 ../notemap/map \$1;
#X obj 22 264 ../rhea/finger;
#X obj 139 266 ../rhea/finger;
#X obj 149 189 ../notemap/store \$1;
#X obj 482 180 ../hold/store \$1;
#X obj 150 157 ../minmax/store \$1;
#X obj 139 304 outlet 2nd_rhea;
#X obj 22 302 outlet rhea;
#X obj 350 203 ../hold/cmd;
#X text 32 325 via UDP to rhea(s);
#X obj 350 178 r /piano/\$1/hold/val;
#X connect 0 0 7 0;
#X connect 7 0 16 0;
#X connect 8 0 7 1;
#X connect 9 0 18 0;
#X connect 9 1 19 0;
#X connect 10 0 9 0;
#X connect 13 0 23 0;
#X connect 15 0 16 0;
#X connect 16 0 17 0;
#X connect 17 0 9 0;
#X connect 18 0 24 0;
#X connect 19 0 23 0;
#X connect 25 0 13 0;
#X connect 25 0 24 0;
#X connect 27 0 25 0;
