#N canvas 979 237 298 197 10;
#X obj 38 98 pack s f;
#X msg 37 121 connect \$1 \$2;
#X text 36 47 establish connection on IP and Portnr;
#X obj 38 66 r /piano/\$1/ip;
#X obj 153 68 r /piano/\$1/portnr;
#X obj 37 143 s /pde/\$1/send;
#X text 37 31 get ip and nr from storage;
#X obj 13 168 pde/send \$1;
#X obj 13 12 inlet;
#X text 50 11 UDP send to one rhea;
#X connect 0 0 1 0;
#X connect 1 0 5 0;
#X connect 3 0 0 0;
#X connect 4 0 0 1;
#X connect 8 0 7 0;
