#N canvas 345 567 450 300 10;
#X obj 49 52 ctlin \$2 \$3;
#X obj 49 138 s \$1;
#X obj 45 178 r \$1/set;
#X obj 45 201 ctlout \$2 \$3;
#X text 43 18 ctl_button <varname> <ctl nr> <midi channel> <trigger
value>;
#X obj 49 81 >= \$4;
#X obj 49 104 sel 1;
#X text 141 68 midibutton mostly sends one value \, but... use a fader
as button ...;
#X text 94 147 (c) GPL winfried ritsch;
#X connect 0 0 5 0;
#X connect 2 0 3 0;
#X connect 5 0 6 0;
#X connect 6 0 1 0;
