#N canvas 418 321 450 300 10;
#X obj 41 95 ctlin \$2 \$3;
#X obj 38 194 s \$1;
#X obj 49 217 r \$1/set;
#X obj 49 258 ctlout \$2 \$3;
#X text 45 60 mode 0 is exponential;
#X obj 43 122 * 0.007874;
#X obj 310 118 f \$4;
#X obj 363 106 f \$5;
#X obj 294 61 loadbang;
#X obj 294 83 t b b;
#X obj 44 146 * 1;
#X obj 44 168 + 0;
#X obj 326 172 - 0;
#X obj 327 200 max 0;
#X obj 214 233 r /midi/ctl/feedback;
#X obj 142 104 r \$1;
#X obj 141 206 spigot 0;
#X obj 141 228 spigot \$6;
#X text 135 260 feedback if 6.arg is 1 and feedback is turned on;
#X text 43 18 ctl_scaling <varname> <ctl nr> <midi channel> <from>
<to> <fdbk>;
#X obj 140 131 - 0;
#X obj 140 153 / 1;
#X floatatom 258 170 5 0 0 0 - - -;
#X floatatom 368 242 5 0 0 0 - - -;
#X obj 143 183 * 127;
#X connect 0 0 5 0;
#X connect 2 0 3 0;
#X connect 5 0 10 0;
#X connect 6 0 12 1;
#X connect 6 0 11 1;
#X connect 6 0 20 1;
#X connect 6 0 22 0;
#X connect 7 0 12 0;
#X connect 8 0 9 0;
#X connect 9 0 7 0;
#X connect 9 1 6 0;
#X connect 10 0 11 0;
#X connect 11 0 1 0;
#X connect 12 0 13 0;
#X connect 13 0 10 1;
#X connect 13 0 21 1;
#X connect 13 0 23 0;
#X connect 14 0 16 1;
#X connect 15 0 20 0;
#X connect 16 0 17 0;
#X connect 17 0 3 0;
#X connect 20 0 21 0;
#X connect 21 0 24 0;
#X connect 24 0 16 0;
